<svg width="120" height="119" viewBox="0 0 120 119" fill="none" xmlns="http://www.w3.org/2000/svg">
<circle cx="60" cy="59.5" r="59.5" fill="#DDEBEF"/>
<path d="M30.944 61.576H28.416C26.2827 61.576 24.448 61.256 22.912 60.616C21.3973 59.976 20.2347 59.0587 19.424 57.864C18.6347 56.648 18.24 55.1867 18.24 53.48C18.24 51.7947 18.6347 50.344 19.424 49.128C20.2347 47.912 21.3973 46.9947 22.912 46.376C24.448 45.736 26.2827 45.416 28.416 45.416H30.944V42.28H32.864V45.416H35.392C37.5467 45.416 39.3813 45.736 40.896 46.376C42.432 46.9947 43.5947 47.912 44.384 49.128C45.1947 50.344 45.6 51.7947 45.6 53.48C45.6 55.1867 45.1947 56.648 44.384 57.864C43.5947 59.0587 42.432 59.976 40.896 60.616C39.3813 61.256 37.5467 61.576 35.392 61.576H32.864V65H30.944V61.576ZM30.944 60.392V46.568H28.384C25.7387 46.568 23.7013 47.176 22.272 48.392C20.864 49.5867 20.16 51.2827 20.16 53.48C20.16 54.952 20.48 56.2107 21.12 57.256C21.76 58.28 22.688 59.0587 23.904 59.592C25.1413 60.1253 26.6347 60.392 28.384 60.392H30.944ZM35.424 60.392C37.1733 60.392 38.656 60.1253 39.872 59.592C41.1093 59.0587 42.048 58.28 42.688 57.256C43.328 56.2107 43.648 54.952 43.648 53.48C43.648 51.2827 42.9333 49.5867 41.504 48.392C40.096 47.176 38.0693 46.568 35.424 46.568H32.864V60.392H35.424ZM57.9245 65.32C56.3458 65.32 54.9058 64.9573 53.6045 64.232C52.3245 63.4853 51.3112 62.4827 50.5645 61.224C49.8178 59.9653 49.4445 58.5573 49.4445 57C49.4445 55.4427 49.8178 54.0347 50.5645 52.776C51.3112 51.496 52.3245 50.4933 53.6045 49.768C54.9058 49.0427 56.3458 48.68 57.9245 48.68C59.5032 48.68 60.9432 49.0427 62.2445 49.768C63.5458 50.4933 64.5592 51.496 65.2845 52.776C66.0312 54.0347 66.4045 55.4427 66.4045 57C66.4045 58.5573 66.0312 59.9653 65.2845 61.224C64.5592 62.4827 63.5458 63.4853 62.2445 64.232C60.9432 64.9573 59.5032 65.32 57.9245 65.32ZM57.9245 64.2C59.2045 64.2 60.3565 63.8907 61.3805 63.272C62.4045 62.6533 63.2045 61.8 63.7805 60.712C64.3565 59.6027 64.6445 58.3653 64.6445 57C64.6445 55.6347 64.3565 54.408 63.7805 53.32C63.2045 52.2107 62.4045 51.3467 61.3805 50.728C60.3565 50.1093 59.2045 49.8 57.9245 49.8C56.6658 49.8 55.5245 50.1093 54.5005 50.728C53.4765 51.3467 52.6658 52.2 52.0685 53.288C51.4925 54.376 51.2045 55.6133 51.2045 57C51.2045 58.3653 51.4925 59.6027 52.0685 60.712C52.6658 61.8 53.4765 62.6533 54.5005 63.272C55.5245 63.8907 56.6658 64.2 57.9245 64.2ZM75.0848 50.152H68.3648V49H83.5328V50.152H76.8128V65H75.0848V50.152ZM93.987 65.32C92.4083 65.32 90.9683 64.9573 89.667 64.232C88.387 63.4853 87.3737 62.4827 86.627 61.224C85.8803 59.9653 85.507 58.5573 85.507 57C85.507 55.4427 85.8803 54.0347 86.627 52.776C87.3737 51.496 88.387 50.4933 89.667 49.768C90.9683 49.0427 92.4083 48.68 93.987 48.68C95.5657 48.68 97.0057 49.0427 98.307 49.768C99.6083 50.4933 100.622 51.496 101.347 52.776C102.094 54.0347 102.467 55.4427 102.467 57C102.467 58.5573 102.094 59.9653 101.347 61.224C100.622 62.4827 99.6083 63.4853 98.307 64.232C97.0057 64.9573 95.5657 65.32 93.987 65.32ZM93.987 64.2C95.267 64.2 96.419 63.8907 97.443 63.272C98.467 62.6533 99.267 61.8 99.843 60.712C100.419 59.6027 100.707 58.3653 100.707 57C100.707 55.6347 100.419 54.408 99.843 53.32C99.267 52.2107 98.467 51.3467 97.443 50.728C96.419 50.1093 95.267 49.8 93.987 49.8C92.7283 49.8 91.587 50.1093 90.563 50.728C89.539 51.3467 88.7283 52.2 88.131 53.288C87.555 54.376 87.267 55.6133 87.267 57C87.267 58.3653 87.555 59.6027 88.131 60.712C88.7283 61.8 89.539 62.6533 90.563 63.272C91.587 63.8907 92.7283 64.2 93.987 64.2Z" fill="black"/>
</svg>
