<?xml version="1.0" encoding="utf-8"?>
<!-- Generator: Adobe Illustrator 24.3.0, SVG Export Plug-In . SVG Version: 6.00 Build 0)  -->
<svg version="1.1" id="Слой_1" xmlns="http://www.w3.org/2000/svg" xmlns:xlink="http://www.w3.org/1999/xlink" x="0px" y="0px"
	 viewBox="0 0 283.5 283.5" style="enable-background:new 0 0 283.5 283.5;" xml:space="preserve">
<style type="text/css">
	.st0{fill:#87A6AC;}
	.st1{fill:#88A5AC;}
	.st2{fill:#AFC7CE;}
	.st3{fill:#533422;}
	.st4{clip-path:url(#SVGID_2_);}
</style>
<g>
	<defs>
		<rect id="SVGID_1_" y="0" width="283.5" height="283.5"/>
	</defs>
	<clipPath id="SVGID_2_">
		<use xlink:href="#SVGID_1_"  style="overflow:visible;"/>
	</clipPath>
	<g class="st4">
		<path class="st1" d="M250,101.1c4.7-0.1,6.8,1.1,6.8,6.3c-0.2,24.1-0.2,48.3,0,72.4c0,5.2-1.5,7.6-7.3,7.5
			c-27.7-0.7-55.4,0.5-83.1-0.6c-15.7-0.6-15.7-0.3-15.7-16.3c0-20.6,0.1-41.1-0.2-61.7c-0.1-6,1.9-7.7,7.7-7.6
			C173.4,101.4,234.6,101.3,250,101.1z"/>
		<path class="st2" d="M157,86.7c-4.8,0.1-6.9-1.1-6.8-6.3c0.2-24.4,0.2-48.7,0-73.1c-0.1-5.6,2-7.4,7.4-7.4
			c31.1,0.2,62.1,0.2,93.2,0.1c4.5,0,6.4,1.4,6.4,6.2c-0.1,24.4-0.1,48.7,0,73.1c0,5.4-2.1,7.5-7.6,7.5
			C233.9,86.6,172.2,86.5,157,86.7z M178.9,40.3c-0.6-4.8-2.8-7.8-8.2-7.5c-5.2,0.2-7.2,3.8-7.1,8c0.1,4.5,3,7.2,7.9,7.2
			C176.7,47.9,178.7,45.1,178.9,40.3z"/>
		<path class="st2" d="M156.7,283.4c-5.1,0.1-6.6-1.7-6.6-6.5c0.2-23.9,0.2-47.8,0-71.6c-0.1-6.2,2.1-8.1,8.2-8.1
			c30.6,0.2,61.2,0.2,91.7,0.1c5,0,7.2,1.2,7.1,6.7c-0.2,24.3-0.2,48.7,0,73c0,5-1.8,6.6-6.7,6.5
			C234.8,283.2,172.3,283.1,156.7,283.4z M169.3,248.1c4.8,0.1,7-2.6,7.2-7c0.2-4.7-2.2-7.6-7.2-7.6c-4.5,0.1-7.4,2.7-7.4,7
			C161.8,245,164.4,248,169.3,248.1z"/>
		<path class="st1" d="M125.2,198.2c4.3,0,6.6,0.9,6.5,5.8c-0.2,23.7-0.1,47.4-0.1,71c0,4.9-1.9,7.1-7.2,7.1
			c-30.2-0.2-60.3-0.1-90.5,0.1c-5.1,0-6.4-1.8-6.4-6.6c0.2-23.7,0.2-47.4,0-71c0-5,1.6-6.6,6.6-6.5
			C49.5,198.4,110.2,198.3,125.2,198.2z"/>
		<path class="st1" d="M33.4,85.8c-3.2,0-5.7-0.2-5.8-4.4c-0.3-15.8-1.7-31.6,0-47.5C30.2,10.3,41.9,3.2,62.2,1.6
			c20.9-1.6,42-0.4,63-0.7c5.2-0.1,6.5,2.4,6.4,7c-0.1,17,0.6,61.5,0.6,67.6c0,5.4-0.7,9.8-8.4,10C115.4,85.9,48.6,85.7,33.4,85.8z"
			/>
		<path class="st2" d="M33.9,186.7c-5.3,0.1-7.6-1.5-7.6-7.2c0.2-23.9,0.2-47.8,0-71.7c-0.1-5.6,2.1-7.3,7.5-7.3
			c30.6,0.2,61.2,0.2,91.8,0c5.2,0,7.1,1.7,7.1,7c-0.2,24.3-0.1,48.7,0,73c0,4.7-1.8,6.3-6.3,6.2C110.7,186.6,49.1,186.5,33.9,186.7
			z M125.2,128.6c0.7-2,0.3-4-1.1-4.7c-4.5-2.3-6.8-3.2-11.9-5.3c-3.6-1.5-5.7,3.1-7,5.7c-6.6,13.3-12.8,26.8-19.5,40.1
			c-2.5,5.1-2.8,8.5,3.1,11.2c11,5.1,11.1,5.2,14.7-2.3C110.7,157.9,118.4,144.2,125.2,128.6z M99,127c0.5-2.9-0.9-3.7-2.3-4.4
			c-2.8-1.3-5.7-2.5-8.5-3.8c-3.5-1.7-5.9-0.8-7.6,2.7C73.3,136.8,66,152,58.7,167.2c-3.3,6.5,5.2,7.8,9.2,10.2
			c4,2.2,6.5,1.1,8.4-3.1C83.6,158.6,92.1,142.9,99,127z"/>
	</g>
</g>
</svg>
