<?xml version="1.0" standalone="no"?>
<!DOCTYPE svg PUBLIC "-//W3C//DTD SVG 20010904//EN"
 "http://www.w3.org/TR/2001/REC-SVG-20010904/DTD/svg10.dtd">
<svg version="1.0" xmlns="http://www.w3.org/2000/svg"
 width="700.000000pt" height="700.000000pt" viewBox="0 0 700.000000 700.000000"
 preserveAspectRatio="xMidYMid meet">
<metadata>
Created by potrace 1.14, written by Peter Selinger 2001-2017
</metadata>
<g transform="translate(0.000000,700.000000) scale(0.100000,-0.100000)"
fill="#000000" stroke="none">
<path d="M3783 6984 c-18 -9 -40 -28 -50 -43 -17 -25 -18 -82 -21 -1009 -2
-1077 -5 -1024 56 -1056 28 -14 163 -15 2314 -18 164 0 202 11 242 65 21 28
21 36 24 1003 2 855 1 979 -13 1007 -31 66 64 62 -1290 64 -1102 2 -1233 1
-1262 -13z m557 -824 c57 -40 86 -131 69 -211 -20 -90 -74 -132 -174 -132 -74
0 -126 23 -163 71 -21 28 -27 46 -29 103 -3 89 24 143 88 177 58 31 159 27
209 -8z"/>
<path d="M1749 6976 c-2 -2 -56 -7 -119 -10 -63 -4 -128 -8 -145 -10 -16 -2
-57 -7 -90 -11 -33 -4 -62 -8 -66 -10 -3 -2 -19 -6 -35 -9 -84 -15 -206 -64
-283 -113 -202 -130 -311 -370 -339 -748 -14 -199 -2 -1021 17 -1115 5 -26 15
-39 40 -52 31 -16 121 -17 1195 -13 638 2 1177 6 1196 10 55 11 97 42 120 90
26 54 25 10 15 1085 -5 545 -11 806 -19 829 -6 19 -24 44 -39 55 -28 21 -35
21 -737 23 -389 1 -709 0 -711 -1z"/>
<path d="M748 4509 c-42 -11 -67 -33 -83 -71 -12 -32 -14 -169 -14 -983 0
-667 3 -955 11 -978 14 -41 41 -65 87 -76 22 -6 520 -9 1248 -8 l1213 2 25 26
c15 14 30 41 34 60 4 19 6 462 6 984 -1 1036 2 985 -58 1029 l-28 21 -1208 0
c-665 1 -1219 -2 -1233 -6z m1482 -466 c214 -92 235 -110 210 -183 -21 -59
-104 -238 -242 -518 -72 -147 -177 -363 -234 -480 -57 -117 -112 -221 -122
-232 -22 -24 -68 -41 -95 -36 -28 6 -224 96 -260 120 -30 20 -57 64 -57 93 0
24 86 207 390 838 34 72 91 189 125 261 67 138 103 182 154 182 14 0 73 -21
131 -45z m636 -12 c222 -95 242 -111 231 -175 -8 -52 -63 -169 -371 -788 -147
-295 -237 -465 -253 -478 -35 -27 -87 -14 -248 60 -162 75 -183 134 -103 299
23 47 42 88 43 91 1 3 48 100 105 215 56 116 125 257 152 315 142 301 222 452
256 481 42 37 60 35 188 -20z"/>
<path d="M3860 4502 c-50 -5 -95 -24 -113 -48 -26 -35 -33 -92 -30 -259 1 -82
3 -474 3 -870 1 -396 6 -746 11 -779 19 -116 64 -141 279 -151 237 -12 447
-14 1316 -15 1001 -2 951 -5 991 57 17 25 18 90 20 999 2 895 1 974 -15 1005
-9 19 -30 40 -45 47 -22 11 -253 14 -1210 15 -650 1 -1193 1 -1207 -1z"/>
<path d="M3812 2120 c-18 -4 -42 -16 -54 -26 -50 -45 -49 -18 -49 -1033 0
-520 3 -956 5 -968 9 -43 36 -71 79 -80 25 -6 545 -9 1263 -9 1205 1 1222 1
1244 21 12 11 27 29 33 40 18 31 18 1954 0 1995 -8 20 -26 37 -54 49 -40 18
-92 19 -1238 19 -658 0 -1211 -4 -1229 -8z m462 -905 c106 -51 111 -253 9
-316 -85 -53 -233 -15 -266 68 -29 73 -25 136 10 191 47 72 161 98 247 57z"/>
<path d="M743 2092 c-61 -29 -58 30 -60 -1002 -1 -577 2 -959 8 -982 7 -28 18
-40 48 -55 36 -18 78 -19 1217 -17 1327 1 1234 -4 1273 76 l21 44 0 932 c0
682 -3 938 -12 956 -6 14 -23 33 -37 43 -24 16 -110 17 -1227 18 -1008 1
-1206 -1 -1231 -13z"/>
</g>
</svg>
