<svg width="23" height="33" viewBox="0 0 23 33" fill="none" xmlns="http://www.w3.org/2000/svg">
<g clip-path="url(#clip0_80_49670)">
<path d="M11.2676 0.702881C5.03286 0.702881 0 5.73574 0 11.9705C0 14.0738 0.600939 16.1019 1.65258 17.9048L10.5915 32.2522C10.7418 32.5526 11.0423 32.7029 11.4178 32.7029C11.7183 32.7029 12.0188 32.5526 12.2441 32.2522L20.9577 17.6794C22.0094 15.9517 22.5352 13.9235 22.5352 11.8954C22.5352 5.73574 17.5023 0.702881 11.2676 0.702881ZM19.3052 16.778L11.4178 29.9987L3.30516 16.9282C2.40376 15.4259 1.87793 13.7733 1.87793 11.9705C1.87793 6.78739 6.08451 2.58082 11.2676 2.58082C16.4507 2.58082 20.6573 6.78739 20.6573 11.9705C20.6573 13.6231 20.2066 15.3508 19.3052 16.778Z" fill="#52545C"/>
<path d="M11.2676 6.33667C8.18778 6.33667 5.63379 8.89066 5.63379 11.9705C5.63379 15.0503 8.11266 17.6043 11.2676 17.6043C14.4225 17.6043 16.9014 15.0503 16.9014 11.9705C16.9014 8.89066 14.3474 6.33667 11.2676 6.33667ZM11.2676 15.7263C9.16431 15.7263 7.51172 13.9986 7.51172 11.9705C7.51172 9.86719 9.23942 8.2146 11.2676 8.2146C13.3709 8.2146 15.0235 9.9423 15.0235 11.9705C15.0235 13.9986 13.3709 15.7263 11.2676 15.7263Z" fill="#52545C"/>
</g>
<defs>
<clipPath id="clip0_80_49670">
<rect width="22.5352" height="32" fill="white" transform="translate(0 0.702881)"/>
</clipPath>
</defs>
</svg>
