<svg width="36" height="35" viewBox="0 0 36 35" fill="none" xmlns="http://www.w3.org/2000/svg">
<path d="M17.7615 34.344C15.9354 34.344 14.3702 34.0893 12.6745 33.7071C11.8919 33.4523 11.1093 33.1975 10.3267 32.8153C10.1962 32.6879 10.0658 32.6879 9.80494 32.6879C8.8919 32.8153 7.97885 33.0701 7.06581 33.1975C5.76146 33.4523 4.58755 33.7071 3.2832 33.9619C2.63103 34.0892 2.10929 34.2166 1.45712 34.344C1.19625 34.344 1.06581 34.344 1.06581 33.9619C1.19625 33.0701 1.32668 32.1784 1.45712 31.2866C1.58755 30.5223 1.71799 29.6305 1.84842 28.8662C1.97886 27.847 2.10929 26.7005 2.23972 25.6813C2.23972 25.5539 2.23972 25.5539 2.23972 25.4266C1.58755 24.28 1.19625 23.1335 0.804942 21.9869C0.544073 20.8404 0.283203 19.5665 0.283203 18.2926C0.283203 17.4008 0.283203 16.5091 0.283203 15.7447C0.413638 14.5982 0.674508 13.4516 1.06581 12.3051C1.71799 10.2668 2.63103 8.61072 3.93538 6.95462C5.10929 5.42591 6.54407 4.15198 8.23972 3.13284C9.2832 2.49587 10.1962 1.9863 11.3702 1.60413C12.6745 1.09456 14.1093 0.712378 15.5441 0.584985C16.4571 0.457593 17.3702 0.3302 18.2832 0.3302C19.3267 0.3302 20.5006 0.457592 21.5441 0.712378C23.2397 1.09456 24.9354 1.73152 26.3702 2.62327C27.5441 3.26023 28.5876 4.02459 29.5006 4.91634C30.9354 6.19026 32.1093 7.71897 33.0223 9.37508C33.6745 10.5216 34.0658 11.6681 34.4571 12.8147C34.718 13.7064 34.8484 14.5982 34.9789 15.6173C35.1093 16.6365 35.1093 17.6556 34.9789 18.6747C34.8484 19.4391 34.8484 20.0761 34.718 20.8404C34.5876 21.6048 34.3267 22.4965 34.0658 23.2609C33.4136 24.917 32.631 26.4457 31.4571 27.847C30.0223 29.6305 28.1962 31.1592 26.1093 32.3058C24.5441 33.1975 22.9789 33.7071 21.2832 34.0892C19.9789 34.344 18.9354 34.4714 17.7615 34.344ZM32.1093 17.4008C32.1093 16.2543 31.9789 15.1077 31.718 14.0886C31.4571 12.9421 30.9354 11.7955 30.4136 10.7764C29.5006 9.24769 28.4571 7.84637 27.1528 6.69983C26.3702 6.06287 25.4571 5.42591 24.5441 4.91634C22.9789 4.02459 21.1528 3.51502 19.3267 3.38762C17.8919 3.26023 16.4571 3.26023 15.1528 3.51502C14.2397 3.64241 13.1962 4.02459 12.2832 4.27937C10.718 4.91634 9.41364 5.80808 8.10929 6.82722C7.06581 7.71897 6.15277 8.73811 5.50059 10.012C4.45712 11.6681 3.80494 13.4516 3.54407 15.3625C3.41364 16.5091 3.41364 17.6556 3.54407 18.8021C3.67451 19.9487 3.93538 20.9678 4.32668 21.9869C4.71799 22.8787 5.10929 23.7704 5.63103 24.6622C5.76146 24.7896 5.76146 24.917 5.76146 25.0444C5.37016 25.9361 5.23972 26.7005 5.23972 27.4648C5.10929 28.484 4.97886 29.5031 4.84842 30.5223C4.84842 30.777 4.84842 30.777 5.10929 30.777C5.63103 30.6496 6.02233 30.6496 6.54407 30.5223C7.84842 30.2675 9.02233 30.0127 10.3267 29.7579C10.4571 29.7579 10.5876 29.7579 10.718 29.7579C10.8484 29.8853 11.1093 29.8853 11.2397 30.0127C12.6745 30.777 14.2397 31.1592 15.8049 31.414C16.8484 31.5414 18.0223 31.5414 19.0658 31.414C20.1093 31.2866 21.0223 31.1592 21.9354 30.9044C23.2397 30.5223 24.4136 30.0127 25.5876 29.2483C26.8919 28.3566 28.0658 27.3374 28.9789 26.1909C30.4136 24.4074 31.3267 22.3691 31.8484 20.2035C31.9789 19.1843 32.1093 18.2926 32.1093 17.4008Z" fill="black"/>
<path d="M22.3265 25.6815C21.5439 25.6815 20.6309 25.4268 19.8483 25.172C18.9352 24.7898 17.8917 24.4076 16.9787 24.0254C16.0657 23.5159 15.1526 22.8789 14.37 22.1146C12.8048 20.7132 11.6309 19.1845 10.5874 17.5284C10.0657 16.7641 9.67436 15.8723 9.28305 14.9806C8.76131 13.5792 8.76131 12.1779 9.54392 10.7766C9.93523 10.0123 10.457 9.50269 11.1091 8.99311C11.37 8.86572 11.5004 8.86572 11.7613 8.86572C12.0222 8.86572 12.4135 8.86572 12.6744 8.86572C13.1961 8.86572 13.457 9.12051 13.5874 9.63008C13.8483 10.3944 14.1091 11.1588 14.5004 12.0505C14.6309 12.4327 14.7613 12.6875 14.8917 13.0697C15.0222 13.4519 15.0222 13.7066 14.7613 13.9614C14.5004 14.471 13.9787 14.8532 13.5874 15.2354C13.3265 15.4901 13.1961 15.7449 13.457 16.1271C14.37 17.9106 15.6744 19.4393 17.37 20.4585C18.0222 20.8406 18.6744 21.2228 19.3265 21.4776C19.7178 21.605 19.8483 21.605 20.1091 21.3502C20.6309 20.8406 21.1526 20.3311 21.6744 19.6941C21.8048 19.4393 22.0657 19.4393 22.3265 19.4393C22.7178 19.5667 23.2396 19.8215 23.6309 20.0763C24.4135 20.4585 25.1961 20.968 25.9787 21.3502C26.2396 21.4776 26.37 21.7324 26.37 21.9872C26.2396 22.8789 26.1091 23.8981 25.3265 24.535C24.4135 25.2994 23.5004 25.6815 22.3265 25.6815Z" fill="black"/>
</svg>
