<svg width="57" height="36" viewBox="0 0 57 36" fill="none" xmlns="http://www.w3.org/2000/svg">
<path d="M27.9807 33.3207C23.6381 33.3207 19.3824 33.3207 15.0398 33.3207C13.3896 33.3207 12 31.9635 12 30.3518C12 21.8692 12 13.4715 12 4.98886C12 3.63165 13.1291 2.35926 14.5187 2.10478C23.2907 2.01995 32.1496 2.10478 40.9216 2.10478C42.2244 2.10478 43.9614 3.29234 43.9614 4.56473C43.9614 13.3018 43.9614 21.6996 43.9614 30.3518C43.9614 31.9635 42.5718 33.3207 40.9216 33.3207C36.6659 33.3207 32.3233 33.3207 27.9807 33.3207ZM28.1544 28.9098C33.9735 28.9946 39.2714 24.1595 39.6188 18.4762C40.2268 12.1991 34.9288 6.4309 28.5018 6.26125C21.9011 5.92195 15.9952 11.7749 16.5163 18.2217C16.6031 19.9182 17.2111 21.6148 17.9059 23.1416C17.7322 24.414 17.5585 25.6016 17.3848 26.874C17.2979 27.4677 17.2111 28.0615 17.1242 28.6553C17.1242 28.825 17.2111 28.9098 17.3848 28.9098C19.2087 28.5705 21.0326 28.2312 22.9433 27.8919C23.5513 27.9767 24.1592 28.4008 24.854 28.4857C25.8963 28.825 26.9385 28.9946 28.1544 28.9098Z" fill="#B4EE87"/>
<path d="M28.1547 28.9097C26.9388 28.9097 25.8966 28.7401 24.7675 28.4856C24.2464 28.3159 23.7253 28.1463 23.2042 27.8918C23.1173 27.807 23.0305 27.807 22.8568 27.807C22.2488 27.8918 21.6408 28.0614 21.0329 28.1463C20.1644 28.3159 19.3827 28.4856 18.5142 28.6552C18.0799 28.7401 17.7325 28.8249 17.2983 28.9097C17.1246 28.9097 17.0377 28.9097 17.0377 28.6552C17.1246 28.0614 17.2114 27.4677 17.2983 26.8739C17.3851 26.3649 17.472 25.7711 17.5588 25.2622C17.6457 24.5836 17.7325 23.8201 17.8194 23.1415C17.8194 23.0567 17.8194 23.0567 17.8194 22.9719C17.3851 22.2085 17.1246 21.445 16.864 20.6816C16.6903 19.9182 16.5166 19.0699 16.5166 18.2216C16.5166 17.6279 16.5166 17.0341 16.5166 16.5251C16.6035 15.7617 16.7772 14.9982 17.0377 14.2348C17.472 12.8776 18.0799 11.7749 18.9484 10.6721C19.7301 9.65421 20.6855 8.80595 21.8146 8.12734C22.5094 7.70321 23.1173 7.36391 23.899 7.10943C24.7675 6.77013 25.7229 6.51565 26.6782 6.43082C27.2862 6.346 27.8942 6.26117 28.5021 6.26117C29.1969 6.26117 29.9786 6.346 30.6734 6.51565C31.8025 6.77013 32.9316 7.19425 33.8869 7.78804C34.6686 8.21217 35.3634 8.72112 35.9714 9.3149C36.9267 10.1632 37.7084 11.1811 38.3164 12.2838C38.7506 13.0472 39.0112 13.8107 39.2717 14.5741C39.4454 15.1679 39.5323 15.7617 39.6191 16.4403C39.706 17.1189 39.706 17.7975 39.6191 18.4761C39.5323 18.9851 39.5323 19.4092 39.4454 19.9182C39.3586 20.4271 39.1849 21.0209 39.0112 21.5298C38.5769 22.6326 38.0558 23.6505 37.2741 24.5836C36.3188 25.7711 35.1028 26.7891 33.7132 27.5525C32.671 28.1463 31.6288 28.4856 30.4997 28.7401C29.6312 28.9097 28.9364 28.9945 28.1547 28.9097ZM37.7084 17.6278C37.7084 16.8644 37.6215 16.101 37.4478 15.4224C37.2741 14.6589 36.9267 13.8955 36.5793 13.2169C35.9714 12.199 35.2766 11.2659 34.408 10.5025C33.8869 10.0783 33.279 9.65421 32.671 9.3149C31.6288 8.72112 30.4129 8.38182 29.1969 8.29699C28.2416 8.21217 27.2862 8.21217 26.4177 8.38182C25.8097 8.46664 25.1149 8.72112 24.507 8.89077C23.4647 9.3149 22.5962 9.90869 21.7277 10.5873C21.0329 11.1811 20.4249 11.8597 19.9907 12.7079C19.2959 13.8107 18.8616 14.9982 18.6879 16.2706C18.601 17.0341 18.601 17.7975 18.6879 18.5609C18.7747 19.3244 18.9484 20.003 19.209 20.6816C19.4696 21.2754 19.7301 21.8691 20.0775 22.4629C20.1644 22.5478 20.1644 22.6326 20.1644 22.7174C19.9038 23.3112 19.817 23.8201 19.817 24.3291C19.7301 25.0077 19.6433 25.6863 19.5564 26.3649C19.5564 26.5346 19.5564 26.5346 19.7301 26.5346C20.0775 26.4498 20.3381 26.4498 20.6855 26.3649C21.554 26.1953 22.3357 26.0256 23.2042 25.856C23.291 25.856 23.3779 25.856 23.4647 25.856C23.5516 25.9408 23.7253 25.9408 23.8121 26.0256C24.7675 26.5346 25.8097 26.7891 26.8519 26.9587C27.5468 27.0435 28.3284 27.0435 29.0232 26.9587C29.718 26.8739 30.326 26.7891 30.934 26.6194C31.8025 26.3649 32.5842 26.0256 33.3658 25.5167C34.2343 24.9229 35.016 24.2443 35.624 23.4808C36.5793 22.2933 37.1873 20.9361 37.5347 19.494C37.6215 18.8154 37.7084 18.2216 37.7084 17.6278Z" fill="#FEFEFE"/>
<path d="M37.7085 17.6278C37.7953 22.2933 33.8002 26.5346 29.0233 26.9587C27.1994 27.1283 25.4624 26.789 23.8122 26.0256C23.6385 25.9408 23.378 25.7711 23.2043 25.856C22.0752 26.1104 20.8593 26.2801 19.7302 26.5346C19.5565 26.5346 19.4696 26.5346 19.5565 26.3649C19.5565 25.6015 19.6433 25.0077 19.817 24.3291C20.2513 21.954 19.817 22.887 19.1222 20.7664C18.1669 18.1368 18.5143 15.1679 19.9908 12.7928C25.0281 4.73429 37.5348 8.21215 37.7085 17.6278ZM31.1946 23.1415C32.5842 23.2264 33.9739 22.2084 33.887 20.7664C33.9739 20.3423 32.4105 19.7485 32.0631 19.494C30.5867 18.5609 30.8472 19.4092 29.7181 20.3423C29.3707 20.8512 28.3285 19.9181 27.8943 19.7485C26.7652 18.9851 25.9835 17.9671 25.2887 16.8644C24.9413 16.2706 25.9835 15.9313 26.1572 15.4224C26.4178 14.9982 26.0704 14.5741 25.9835 14.15C25.8098 13.641 25.6361 13.1321 25.3756 12.5383C25.2019 12.0293 24.5939 12.0293 24.1596 12.0293C23.4648 12.0293 22.9437 12.7079 22.5963 13.3017C21.2067 15.9313 23.9859 19.0699 25.8098 20.8512C27.2863 21.954 29.3707 23.0567 31.1946 23.1415Z" fill="#B4EE87"/>
<path d="M31.1944 23.1417C30.6733 23.1417 30.0653 22.972 29.5442 22.8024C28.9362 22.5479 28.2414 22.2934 27.6335 22.039C27.0255 21.6997 26.4175 21.2755 25.8964 20.7666C24.8542 19.8335 24.0725 18.8156 23.3777 17.7128C23.0303 17.2039 22.7698 16.6101 22.5092 16.0163C22.1618 15.0832 22.1618 14.1501 22.6829 13.2171C22.9435 12.7081 23.2909 12.3688 23.7251 12.0295C23.8988 11.9447 23.9857 11.9447 24.1594 11.9447C24.3331 11.9447 24.5936 11.9447 24.7674 11.9447C25.1148 11.9447 25.2885 12.1143 25.3753 12.4536C25.549 12.9626 25.7227 13.4715 25.9833 14.0653C26.0701 14.3198 26.157 14.4895 26.2438 14.7439C26.3307 14.9984 26.3307 15.1681 26.157 15.3377C25.9833 15.677 25.6359 15.9315 25.3753 16.186C25.2016 16.3556 25.1148 16.5253 25.2885 16.7798C25.8964 17.9673 26.7649 18.9852 27.894 19.6638C28.3283 19.9183 28.7625 20.1728 29.1968 20.3424C29.4573 20.4273 29.5442 20.4273 29.7179 20.2576C30.0653 19.9183 30.4127 19.579 30.7601 19.1549C30.847 18.9852 31.0207 18.9852 31.1944 18.9852C31.4549 19.0701 31.8023 19.2397 32.0629 19.4094C32.584 19.6638 33.1051 20.0031 33.6262 20.2576C33.7999 20.3424 33.8868 20.5121 33.8868 20.6817C33.7999 21.2755 33.7131 21.9541 33.192 22.3783C32.584 22.8872 31.976 23.1417 31.1944 23.1417Z" fill="#FEFEFE"/>
<path d="M46 7C49 13.5 49 21.5 47 26M50.5 1C59 12 57 25.5 50.5 35" stroke="black"/>
<path d="M10 7C7.33984 13.5 7.33984 21.5 9.11328 26M6.00977 1C-1.52734 12 0.246096 25.5 6.00977 35" stroke="black"/>
</svg>
