<svg width="168" height="104" viewBox="0 0 168 104" fill="none" xmlns="http://www.w3.org/2000/svg">
<g clip-path="url(#clip0_247_42)">
<path d="M108.001 30.8594C91.5492 25.1294 75.5859 17.657 58.2876 14.4777C51.4247 13.2203 45.2575 13.1125 39.1655 17.3696C27.8276 25.2731 16.6966 33.4999 5.75352 41.8703C2.36908 44.4749 -3.45707e-05 43.3971 1.48536 42.0859C6.99448 37.1822 12.0147 32.009 17.2418 26.8358C24.9132 19.5251 32.3402 11.7833 40.5569 5.02947C47.9839 -0.844236 55.4296 1.47291 63.4959 4.63429C68.6666 6.77182 73.8184 8.92731 78.9139 11.2445C85.7204 14.316 92.6209 17.208 99.4086 20.2975C100.8 20.9082 100.838 20.8903 100.838 19.4533C100.838 17.693 100.875 15.9147 100.856 14.1544C100.856 13.4718 101.063 13.3281 101.759 13.5616C106.76 15.268 111.781 16.9565 116.801 18.609C117.459 18.8246 117.666 19.1479 117.647 19.7766C117.609 21.986 117.666 24.2133 117.609 26.4227C117.591 27.1951 117.873 27.6441 118.568 27.9674C132.031 34.4698 145.55 40.9004 159.012 47.4028C159.877 47.8339 160.761 48.229 161.626 48.6422C162.246 48.9296 161.852 49.8097 161.212 49.5762C148.746 45.2473 122.874 36.1224 108.001 30.8594Z" fill="#B9DFEA"/>
<path d="M91.7936 49.3966C92.4517 49.3966 92.7525 49.5403 92.7525 50.2408C92.7149 53.4741 92.7337 56.7073 92.7525 59.9405C92.7525 60.641 92.5457 60.9644 91.7184 60.9464C87.8451 60.8566 83.953 61.0183 80.0797 60.8566C77.8798 60.7668 77.8798 60.8027 77.8798 58.6652C77.8798 55.9169 77.8986 53.1507 77.861 50.4025C77.8422 49.5942 78.1242 49.3786 78.9327 49.3966C81.0386 49.4505 89.6313 49.4325 91.7936 49.3966Z" fill="#B9DFEA"/>
<path d="M78.7636 47.4926C78.0867 47.5105 77.8047 47.3489 77.8047 46.6484C77.8235 43.3792 77.8235 40.128 77.8047 36.8588C77.8047 36.1044 78.0867 35.8709 78.8388 35.8709C83.201 35.8889 87.5444 35.9068 91.9065 35.8889C92.5458 35.8889 92.8091 36.0865 92.8091 36.7151C92.7903 39.9843 92.7903 43.2355 92.8091 46.5046C92.8091 47.2231 92.527 47.5105 91.7373 47.5105C89.5374 47.4567 80.8883 47.4567 78.7636 47.4926ZM81.8096 41.2596C81.7344 40.613 81.4148 40.2178 80.6627 40.2537C79.9294 40.2897 79.6473 40.7567 79.6661 41.3315C79.6849 41.9422 80.0986 42.3014 80.7755 42.2835C81.5088 42.2835 81.7908 41.9063 81.8096 41.2596Z" fill="#C4E6F0"/>
<path d="M78.707 73.8255C77.9925 73.8434 77.7857 73.6099 77.7857 72.9453C77.8045 69.748 77.8233 66.5507 77.7857 63.3534C77.7669 62.5271 78.0865 62.2756 78.9326 62.2756C83.2196 62.3116 87.5066 62.3116 91.7935 62.2936C92.508 62.2936 92.8089 62.4553 92.7901 63.1917C92.7524 66.4429 92.7712 69.7121 92.7901 72.9633C92.7901 73.6279 92.5456 73.8434 91.8499 73.8434C89.6688 73.7895 80.9069 73.7895 78.707 73.8255ZM80.4744 69.1013C81.1513 69.1193 81.4522 68.7421 81.471 68.1673C81.4898 67.5386 81.1513 67.1434 80.4556 67.1614C79.8352 67.1614 79.4215 67.5207 79.4215 68.0954C79.4215 68.6702 79.7788 69.0834 80.4744 69.1013Z" fill="#C4E6F0"/>
<path d="M74.2885 62.4014C74.8902 62.4014 75.2099 62.5271 75.2099 63.1917C75.1911 66.3711 75.1911 69.5324 75.1911 72.7118C75.1911 73.3584 74.9278 73.6638 74.1757 73.6638C69.9452 73.6458 65.7146 73.6458 61.5029 73.6818C60.7884 73.6818 60.6003 73.4482 60.6003 72.8016C60.6191 69.6222 60.6379 66.4609 60.6003 63.2815C60.6003 62.6169 60.826 62.4014 61.5217 62.4193C63.684 62.4373 72.2015 62.4193 74.2885 62.4014Z" fill="#B9DFEA"/>
<path d="M61.4277 47.3489C60.9764 47.3489 60.6192 47.3309 60.6192 46.7561C60.5816 44.6366 60.3748 42.517 60.6192 40.3974C60.9764 37.236 62.6311 36.284 65.4702 36.0865C68.4034 35.8709 71.3554 36.0326 74.3074 35.9966C75.0407 35.9966 75.2099 36.32 75.2099 36.9307C75.1911 39.2119 75.3039 45.1575 75.3039 45.9837C75.3039 46.7202 75.1911 47.295 74.1382 47.3309C72.916 47.3668 63.5524 47.3489 61.4277 47.3489Z" fill="#B9DFEA"/>
<path d="M61.4841 60.8566C60.7508 60.8746 60.4124 60.659 60.4312 59.8866C60.4688 56.6893 60.45 53.492 60.4312 50.2768C60.4312 49.5223 60.732 49.3068 61.4841 49.3068C65.7711 49.3248 70.058 49.3248 74.345 49.3068C75.0783 49.3068 75.3415 49.5403 75.3415 50.2408C75.3227 53.51 75.3227 56.7612 75.3415 60.0303C75.3415 60.659 75.0971 60.8746 74.4578 60.8746C72.2579 60.8566 63.6276 60.8386 61.4841 60.8566ZM74.2886 53.0969C74.3826 52.8274 74.3262 52.558 74.1382 52.4682C73.4989 52.1628 73.1792 52.0371 72.4647 51.7676C71.9571 51.5701 71.6562 52.1808 71.487 52.5221C70.5657 54.3003 69.7008 56.1145 68.7607 57.8928C68.4034 58.5754 68.3658 59.0245 69.1931 59.4017C70.7349 60.0842 70.7349 60.1022 71.2426 59.0963C72.2579 57.0127 73.3485 55.1805 74.2886 53.0969ZM70.6221 52.8813C70.6973 52.5041 70.5093 52.3784 70.3025 52.3065C69.9076 52.1269 69.4939 51.9832 69.0991 51.8036C68.6102 51.5701 68.2718 51.6958 68.0274 52.1628C67.012 54.2105 65.9967 56.2403 64.9626 58.27C64.5113 59.1322 65.6958 59.3118 66.2411 59.6352C66.8052 59.9226 67.1436 59.7789 67.4257 59.222C68.4598 57.1025 69.6632 55.0009 70.6221 52.8813Z" fill="#C4E6F0"/>
<path d="M10.3038 102.116C9.72096 102.116 9.21329 102.008 8.76203 101.811C8.31078 101.613 7.93473 101.326 7.65269 100.967C7.37065 100.607 7.20143 100.176 7.12622 99.6733H7.33305C7.44586 100.338 7.7467 100.859 8.25437 101.254C8.76203 101.649 9.38252 101.829 10.1534 101.829C10.8867 101.829 11.4508 101.667 11.8832 101.362C12.3157 101.056 12.5225 100.625 12.5225 100.104C12.5225 99.7991 12.4285 99.5296 12.2593 99.2782C12.0901 99.0267 11.8456 98.8291 11.5448 98.7034C11.244 98.5597 10.9055 98.4878 10.5483 98.4878H9.77737V98.2902H10.5107C10.8679 98.2902 11.1876 98.2184 11.4696 98.0747C11.7516 97.931 11.9773 97.7334 12.1465 97.464C12.3157 97.2125 12.3909 96.9431 12.3909 96.6377C12.3909 96.2964 12.2969 95.9911 12.1089 95.7396C11.9208 95.4701 11.6576 95.2726 11.3192 95.1289C10.9807 94.9852 10.5859 94.9133 10.1346 94.9133C9.42012 94.9133 8.81844 95.1109 8.34838 95.4881C7.87832 95.8653 7.61508 96.3862 7.52107 97.0508H7.31425C7.37065 96.5658 7.52107 96.1348 7.78431 95.7755C8.04754 95.4163 8.38599 95.1468 8.81844 94.9492C9.2509 94.7516 9.75857 94.6618 10.3226 94.6618C10.8491 94.6618 11.3004 94.7517 11.714 94.9133C12.1277 95.075 12.4473 95.3085 12.6729 95.5959C12.8986 95.8833 13.0114 96.2246 13.0114 96.6018C13.0114 97.0329 12.861 97.4101 12.5789 97.7154C12.2969 98.0388 11.902 98.2543 11.3944 98.3621C11.8832 98.4519 12.2969 98.6495 12.6353 98.9728C12.9738 99.2961 13.143 99.6733 13.143 100.104C13.143 100.518 13.0302 100.877 12.8046 101.164C12.5789 101.452 12.2405 101.685 11.808 101.847C11.3944 102.026 10.8867 102.116 10.3038 102.116Z" fill="#533422"/>
<path d="M13.6694 101.757H14.2335C14.4027 101.254 14.5343 100.733 14.6284 100.194C14.7224 99.6554 14.76 99.0447 14.76 98.3621C14.76 98.2902 14.76 98.2184 14.7412 98.1466C14.7412 98.0567 14.7224 97.9849 14.7224 97.913C14.7224 97.8771 14.7224 97.8412 14.7224 97.7873C14.7224 97.7514 14.7224 97.7154 14.7224 97.6795L14.6848 96.8712H18.5769V101.775H19.329V103.302H18.8401V101.973H14.1583V103.302H13.6694V101.757ZM17.994 101.757V97.0688H15.0796L15.042 98.1825C15.0044 98.9728 14.9292 99.6374 14.854 100.176C14.76 100.715 14.6472 101.254 14.4779 101.757H17.994Z" fill="#533422"/>
<path d="M23.0518 102.062C22.5253 102.062 22.0553 101.955 21.6416 101.721C21.2092 101.488 20.8895 101.164 20.6451 100.769C20.4007 100.374 20.269 99.9069 20.269 99.4219C20.269 98.9189 20.3819 98.4699 20.6263 98.0747C20.8707 97.6616 21.2092 97.3562 21.6228 97.1227C22.0553 96.8892 22.5253 96.7814 23.0518 96.7814C23.5783 96.7814 24.0483 96.8892 24.462 97.1227C24.8944 97.3562 25.2141 97.6616 25.4585 98.0747C25.703 98.4699 25.8158 98.9189 25.8158 99.4219C25.8158 99.4398 25.8158 99.4578 25.8158 99.4758C25.8158 99.4937 25.8158 99.5117 25.8158 99.5296H20.8707C20.8707 99.9787 20.9835 100.392 21.1904 100.733C21.3972 101.092 21.6792 101.362 22.0177 101.541C22.3561 101.739 22.751 101.829 23.1834 101.829C23.6911 101.829 24.1423 101.703 24.5372 101.47C24.9321 101.236 25.1953 100.895 25.3457 100.5H25.5713C25.4773 100.823 25.3081 101.092 25.0637 101.344C24.8192 101.577 24.5372 101.757 24.18 101.901C23.8227 101.99 23.4467 102.062 23.0518 102.062ZM25.2329 99.3141C25.2141 98.8471 25.1013 98.4339 24.9132 98.0927C24.7252 97.7334 24.462 97.464 24.1423 97.2664C23.8227 97.0688 23.4467 96.979 23.0518 96.979C22.6382 96.979 22.2621 97.0688 21.9425 97.2664C21.6228 97.464 21.3596 97.7334 21.1716 98.0927C20.9835 98.4519 20.8707 98.8471 20.8707 99.2782V99.3141H25.2329Z" fill="#533422"/>
<path d="M29.5765 102.062C29.05 102.062 28.5799 101.955 28.1663 101.721C27.7338 101.488 27.4142 101.164 27.1697 100.769C26.9253 100.356 26.8125 99.9068 26.8125 99.4219C26.8125 98.9189 26.9253 98.4699 27.1697 98.0567C27.4142 97.6436 27.7338 97.3382 28.1663 97.1047C28.5799 96.8712 29.0688 96.7634 29.5953 96.7634C30.0653 96.7634 30.4602 96.8353 30.8362 96.9969C31.1935 97.1586 31.4943 97.3741 31.7199 97.6615C31.9456 97.9489 32.096 98.3082 32.1712 98.7034H31.9644C31.8516 98.1645 31.5883 97.7514 31.1935 97.446C30.7986 97.1406 30.3098 96.979 29.7269 96.979C29.2944 96.979 28.8808 97.0867 28.5423 97.2843C28.2039 97.4819 27.9218 97.7693 27.715 98.1465C27.527 98.5058 27.4142 98.9369 27.4142 99.4039C27.4142 99.8709 27.5082 100.284 27.715 100.661C27.903 101.021 28.1851 101.308 28.5423 101.523C28.8996 101.739 29.2944 101.829 29.7269 101.829C30.3098 101.829 30.7986 101.667 31.1935 101.362C31.5883 101.056 31.8516 100.625 31.9644 100.104H32.1712C32.096 100.5 31.9456 100.859 31.7199 101.146C31.4943 101.434 31.1935 101.667 30.8362 101.829C30.4414 101.99 30.0465 102.062 29.5765 102.062Z" fill="#533422"/>
<path d="M33.7129 96.8532H34.2958V99.0087H35.5179C36.1948 99.0087 36.7213 99.1345 37.0973 99.4039C37.4734 99.6733 37.6614 100.033 37.6614 100.482C37.6614 100.931 37.4734 101.29 37.0973 101.559C36.7213 101.829 36.1948 101.955 35.5179 101.955H33.7129V96.8532ZM35.4991 101.757C35.988 101.757 36.3828 101.649 36.6649 101.416C36.9469 101.2 37.0785 100.877 37.0785 100.464C37.0785 100.051 36.9469 99.7452 36.6649 99.5117C36.3828 99.2961 36.0068 99.1704 35.4991 99.1704H34.277V101.739H35.4991V101.757Z" fill="#533422"/>
<path d="M43.3022 99.1165L41.2715 96.8532H41.5536L43.7534 99.2961H44.7312V94.6978H45.314V99.2961H46.2918L48.5105 96.8532H48.7737L46.743 99.0985L48.9241 101.955H48.266L46.2918 99.5117H45.2952V101.955H44.7124V99.5117H43.7346L41.7792 101.955H41.1211L43.3022 99.1165Z" fill="#533422"/>
<path d="M50.2778 96.8532H50.8607V101.254L54.546 96.8532H55.0349V101.955H54.452V97.2843L50.5035 102.008H50.259V96.8532H50.2778Z" fill="#533422"/>
<path d="M57.2349 96.8532H59.3783C60.0176 96.8532 60.5253 96.961 60.8825 97.1945C61.2398 97.428 61.409 97.7514 61.409 98.1645C61.409 98.4699 61.315 98.7393 61.1082 98.9369C60.9013 99.1345 60.6193 99.2782 60.2245 99.368V99.4039C60.6757 99.4758 61.033 99.6194 61.2586 99.835C61.4842 100.051 61.6158 100.32 61.6158 100.643C61.6158 101.056 61.4466 101.38 61.0894 101.613C60.7321 101.847 60.2245 101.955 59.5476 101.955H57.2161V96.8532H57.2349ZM59.3031 99.3141C59.792 99.3141 60.1869 99.2243 60.4689 99.0267C60.7509 98.8291 60.8825 98.5597 60.8825 98.2004C60.8825 97.8412 60.7509 97.5538 60.4877 97.3562C60.2245 97.1586 59.8484 97.0688 59.3595 97.0688H57.8177V99.332H59.3031V99.3141ZM59.51 101.757C59.9988 101.757 60.3749 101.649 60.6381 101.452C60.9013 101.254 61.0518 100.967 61.0518 100.607C61.0518 100.248 60.9202 99.9787 60.6381 99.7811C60.3561 99.5835 59.9612 99.4937 59.4724 99.4937H57.8177V101.739H59.51V101.757Z" fill="#533422"/>
<path d="M65.4327 102.062C64.9062 102.062 64.4361 101.955 64.0225 101.721C63.59 101.488 63.2704 101.164 63.026 100.769C62.7815 100.374 62.6499 99.9069 62.6499 99.4219C62.6499 98.9189 62.7627 98.4699 63.0071 98.0747C63.2516 97.6616 63.59 97.3562 64.0037 97.1227C64.4361 96.8892 64.9062 96.7814 65.4327 96.7814C65.9591 96.7814 66.4292 96.8892 66.8428 97.1227C67.2753 97.3562 67.5949 97.6616 67.8394 98.0747C68.0838 98.4699 68.1966 98.9189 68.1966 99.4219C68.1966 99.4398 68.1966 99.4578 68.1966 99.4758C68.1966 99.4937 68.1966 99.5117 68.1966 99.5296H63.2516C63.2516 99.9787 63.3644 100.392 63.5712 100.733C63.778 101.092 64.0601 101.362 64.3985 101.541C64.737 101.739 65.1318 101.829 65.5643 101.829C66.0719 101.829 66.5232 101.703 66.9181 101.47C67.3129 101.218 67.5761 100.895 67.7266 100.5H67.9522C67.8582 100.823 67.689 101.092 67.4445 101.344C67.2001 101.577 66.9181 101.757 66.5608 101.901C66.2036 102.044 65.8463 102.062 65.4327 102.062ZM67.6326 99.3141C67.6138 98.8471 67.5009 98.4339 67.3129 98.0927C67.1249 97.7334 66.8616 97.464 66.542 97.2664C66.2224 97.0688 65.8463 96.979 65.4515 96.979C65.0378 96.979 64.6618 97.0688 64.3421 97.2664C64.0225 97.464 63.7592 97.7334 63.5712 98.0927C63.3832 98.4519 63.2704 98.8471 63.2704 99.2782V99.3141H67.6326ZM64.2857 94.3565H64.9814L64.6806 96.0629H64.5866L64.2857 94.3565ZM65.7147 94.3565H66.4104L66.1096 96.0629H66.0155L65.7147 94.3565Z" fill="#533422"/>
<path d="M71.1486 97.0688H68.9299V96.8712H73.9314V97.0688H71.7127V101.973H71.1298V97.0688H71.1486Z" fill="#533422"/>
<path d="M77.9739 96.8532H80.1174C80.7566 96.8532 81.2643 96.961 81.6216 97.1945C81.9788 97.428 82.148 97.7514 82.148 98.1645C82.148 98.4699 82.054 98.7393 81.8472 98.9369C81.6404 99.1345 81.3583 99.2782 80.9635 99.368V99.4039C81.4147 99.4758 81.772 99.6194 81.9976 99.835C82.2232 100.051 82.3549 100.32 82.3549 100.643C82.3549 101.056 82.1856 101.38 81.8284 101.613C81.4711 101.847 80.9635 101.955 80.2866 101.955H77.9551V96.8532H77.9739ZM80.061 99.3141C80.5498 99.3141 80.9447 99.2243 81.2267 99.0267C81.5087 98.8291 81.6404 98.5597 81.6404 98.2004C81.6404 97.8412 81.5087 97.5538 81.2455 97.3562C80.9823 97.1586 80.6062 97.0688 80.1174 97.0688H78.5756V99.332H80.061V99.3141ZM80.249 101.757C80.7378 101.757 81.1139 101.649 81.3771 101.452C81.6404 101.254 81.7908 100.967 81.7908 100.607C81.7908 100.248 81.6592 99.9787 81.3771 99.7811C81.0951 99.5835 80.7002 99.4937 80.2114 99.4937H78.5568V101.739H80.249V101.757Z" fill="#533422"/>
<path d="M85.0811 102.08C84.5171 102.08 84.1034 101.955 83.8026 101.721C83.5017 101.488 83.3513 101.164 83.3513 100.769C83.3513 100.392 83.4829 100.104 83.7274 99.8889C83.9906 99.6733 84.3102 99.5296 84.6863 99.4398C85.0623 99.35 85.4948 99.2782 86.0025 99.2422C86.5101 99.2063 86.905 99.1524 87.1682 99.0447C87.4315 98.9548 87.5631 98.7932 87.5631 98.5956C87.5631 98.1106 87.3939 97.7334 87.0742 97.428C86.7358 97.1406 86.3221 96.9969 85.8144 96.9969C85.288 96.9969 84.8555 97.1406 84.4983 97.446C84.141 97.7334 83.9342 98.1465 83.8402 98.6674H83.6334C83.6898 98.2723 83.8402 97.9489 84.0282 97.6615C84.235 97.3741 84.4983 97.1586 84.8179 96.9969C85.1376 96.8353 85.5136 96.7634 85.9273 96.7634C86.3597 96.7634 86.7358 96.8532 87.0554 97.0149C87.3938 97.1766 87.6383 97.428 87.8263 97.7334C88.0143 98.0388 88.1083 98.416 88.1083 98.8291V101.775H88.898V101.973H87.5443V100.571C87.375 101.038 87.0554 101.416 86.6041 101.685C86.1717 101.955 85.664 102.08 85.0811 102.08ZM85.2504 101.811C85.6828 101.811 86.0777 101.721 86.4349 101.523C86.7922 101.344 87.0554 101.074 87.2622 100.733C87.4691 100.392 87.5631 100.033 87.5631 99.6194L87.5819 99.0447C87.4879 99.1345 87.3374 99.2063 87.1306 99.2602C86.9238 99.3141 86.6606 99.35 86.3409 99.3859C86.3221 99.3859 86.3033 99.3859 86.2845 99.3859C86.2657 99.3859 86.2469 99.3859 86.2093 99.3859C85.4196 99.4578 84.8555 99.6015 84.4983 99.7991C84.141 100.015 83.953 100.32 83.953 100.715C83.953 101.056 84.0658 101.326 84.3102 101.523C84.5359 101.721 84.8555 101.811 85.2504 101.811Z" fill="#533422"/>
<path d="M90.3647 96.8532H90.9476V101.757H93.674V96.8532H94.2569V101.757H96.9832V96.8532H97.5661V101.955H90.3835V96.8532H90.3647Z" fill="#533422"/>
<path d="M100.857 102.08C100.292 102.08 99.8788 101.955 99.578 101.721C99.2771 101.488 99.1267 101.164 99.1267 100.769C99.1267 100.392 99.2583 100.104 99.5028 99.8889C99.766 99.6733 100.086 99.5296 100.462 99.4398C100.838 99.35 101.27 99.2782 101.778 99.2422C102.286 99.2063 102.68 99.1524 102.944 99.0447C103.207 98.9548 103.338 98.7932 103.338 98.5956C103.338 98.1106 103.169 97.7334 102.85 97.428C102.511 97.1406 102.097 96.9969 101.59 96.9969C101.063 96.9969 100.631 97.1406 100.274 97.446C99.9164 97.7334 99.7096 98.1465 99.6156 98.6674H99.4087C99.4652 98.2723 99.6156 97.9489 99.8036 97.6615C100.01 97.3741 100.274 97.1586 100.593 96.9969C100.913 96.8353 101.289 96.7634 101.703 96.7634C102.135 96.7634 102.511 96.8532 102.831 97.0149C103.169 97.1766 103.414 97.428 103.602 97.7334C103.79 98.0388 103.884 98.416 103.884 98.8291V101.775H104.673V101.973H103.32V100.571C103.15 101.038 102.831 101.416 102.38 101.685C101.947 101.955 101.439 102.08 100.857 102.08ZM101.045 101.811C101.477 101.811 101.872 101.721 102.229 101.523C102.586 101.344 102.85 101.074 103.056 100.733C103.263 100.392 103.357 100.033 103.357 99.6194L103.376 99.0447C103.282 99.1345 103.132 99.2063 102.925 99.2602C102.718 99.3141 102.455 99.35 102.135 99.3859C102.116 99.3859 102.097 99.3859 102.079 99.3859C102.06 99.3859 102.041 99.3859 102.003 99.3859C101.214 99.4578 100.65 99.6015 100.292 99.7991C99.9352 100.015 99.7472 100.32 99.7472 100.715C99.7472 101.056 99.86 101.326 100.104 101.523C100.311 101.721 100.631 101.811 101.045 101.811Z" fill="#533422"/>
<path d="M108.81 96.8532H109.487L111.837 101.326L114.169 96.8532H114.789V101.955H114.225V97.2125L111.743 101.955H111.536L109.036 97.2125V101.955H108.829V96.8532H108.81Z" fill="#533422"/>
<path d="M119.227 102.062C118.7 102.062 118.23 101.955 117.816 101.721C117.384 101.488 117.064 101.164 116.82 100.769C116.575 100.356 116.444 99.9069 116.444 99.4219C116.444 98.9189 116.557 98.4699 116.801 98.0747C117.046 97.6616 117.384 97.3562 117.798 97.1227C118.23 96.8892 118.7 96.7814 119.227 96.7814C119.753 96.7814 120.223 96.8892 120.637 97.1227C121.069 97.3562 121.389 97.6616 121.633 98.0747C121.878 98.4699 121.991 98.9189 121.991 99.4219C121.991 99.4398 121.991 99.4578 121.991 99.4758C121.991 99.4937 121.991 99.5117 121.991 99.5296H117.046C117.046 99.9787 117.158 100.392 117.365 100.733C117.572 101.092 117.854 101.362 118.192 101.541C118.531 101.739 118.926 101.829 119.358 101.829C119.866 101.829 120.317 101.703 120.712 101.47C121.107 101.218 121.37 100.895 121.521 100.5H121.746C121.652 100.823 121.483 101.092 121.238 101.344C120.994 101.577 120.712 101.757 120.355 101.901C119.998 102.044 119.621 102.062 119.227 102.062ZM121.408 99.3141C121.389 98.8471 121.276 98.4339 121.088 98.0927C120.9 97.7334 120.637 97.464 120.317 97.2664C119.998 97.0688 119.621 96.979 119.227 96.979C118.813 96.979 118.437 97.0688 118.117 97.2664C117.798 97.464 117.534 97.7334 117.346 98.0927C117.158 98.4519 117.046 98.8471 117.046 99.2782V99.3141H121.408Z" fill="#533422"/>
<path d="M125.845 102.062C125.319 102.062 124.848 101.955 124.435 101.739C124.021 101.523 123.683 101.218 123.457 100.823C123.213 100.428 123.1 100.015 123.1 99.5476V98.3262C123.119 97.6795 123.25 97.1406 123.495 96.6916C123.739 96.2605 124.096 95.9192 124.548 95.7036C124.999 95.4881 125.544 95.3803 126.165 95.3803H127.782V94.6978H127.988V95.8653H126.014C125.413 95.8653 124.924 95.9551 124.51 96.1347C124.115 96.3144 123.814 96.5838 123.608 96.9431C123.401 97.3023 123.307 97.7514 123.307 98.2723V98.7034C123.419 98.398 123.608 98.1465 123.852 97.913C124.096 97.6795 124.397 97.4999 124.736 97.3741C125.074 97.2484 125.431 97.1766 125.826 97.1766C126.353 97.1766 126.823 97.2843 127.236 97.4999C127.65 97.7154 127.988 98.0028 128.214 98.38C128.44 98.7573 128.571 99.1704 128.571 99.6194C128.571 100.086 128.459 100.5 128.214 100.877C127.97 101.254 127.65 101.541 127.236 101.757C126.823 101.955 126.353 102.062 125.845 102.062ZM125.826 101.865C126.24 101.865 126.616 101.775 126.936 101.577C127.255 101.38 127.518 101.128 127.706 100.787C127.894 100.446 127.988 100.051 127.988 99.6194C127.988 99.1883 127.894 98.7932 127.706 98.4699C127.518 98.1286 127.255 97.8771 126.936 97.6795C126.616 97.4999 126.24 97.3921 125.826 97.3921C125.413 97.3921 125.055 97.4819 124.736 97.6795C124.416 97.8591 124.153 98.1286 123.965 98.4699C123.777 98.8111 123.683 99.1883 123.683 99.6194C123.683 100.051 123.777 100.446 123.965 100.787C124.153 101.128 124.416 101.398 124.736 101.577C125.055 101.775 125.431 101.865 125.826 101.865Z" fill="#533422"/>
<path d="M132.463 102.062C131.937 102.062 131.467 101.955 131.053 101.721C130.621 101.488 130.301 101.164 130.057 100.769C129.812 100.356 129.681 99.9069 129.681 99.4219C129.681 98.9189 129.793 98.4699 130.038 98.0747C130.282 97.6616 130.621 97.3562 131.034 97.1227C131.467 96.8892 131.937 96.7814 132.463 96.7814C132.99 96.7814 133.46 96.8892 133.874 97.1227C134.306 97.3562 134.626 97.6616 134.87 98.0747C135.115 98.4699 135.227 98.9189 135.227 99.4219C135.227 99.4398 135.227 99.4578 135.227 99.4758C135.227 99.4937 135.227 99.5117 135.227 99.5296H130.282C130.282 99.9787 130.395 100.392 130.602 100.733C130.809 101.092 131.091 101.362 131.429 101.541C131.768 101.739 132.163 101.829 132.595 101.829C133.103 101.829 133.554 101.703 133.949 101.47C134.344 101.218 134.607 100.895 134.757 100.5H134.983C134.889 100.823 134.72 101.092 134.475 101.344C134.231 101.577 133.949 101.757 133.592 101.901C133.234 102.044 132.877 102.062 132.463 102.062ZM134.663 99.3141C134.645 98.8471 134.532 98.4339 134.344 98.0927C134.156 97.7334 133.892 97.464 133.573 97.2664C133.253 97.0688 132.877 96.979 132.482 96.979C132.069 96.979 131.693 97.0688 131.373 97.2664C131.053 97.464 130.79 97.7334 130.602 98.0927C130.414 98.4519 130.301 98.8471 130.301 99.2782V99.3141H134.663Z" fill="#533422"/>
<path d="M136.243 102.062C136.149 102.062 136.074 102.062 135.98 102.044C135.904 102.026 135.81 101.99 135.735 101.955V101.452C135.81 101.488 135.904 101.523 135.98 101.541C136.074 101.559 136.149 101.577 136.243 101.577C136.468 101.577 136.638 101.523 136.788 101.416C136.92 101.308 137.032 101.146 137.108 100.931C137.183 100.715 137.239 100.41 137.258 99.9787C137.296 99.5476 137.315 99.0447 137.315 98.4519C137.315 98.3441 137.315 98.2184 137.315 98.1106C137.315 98.0029 137.315 97.8951 137.296 97.7873L137.258 96.8712H141.113V101.973H140.53V97.0688H137.634L137.597 97.8412C137.559 98.7213 137.521 99.4398 137.465 100.033C137.409 100.607 137.315 101.021 137.202 101.29C137.089 101.577 136.957 101.775 136.788 101.901C136.656 101.99 136.468 102.062 136.243 102.062Z" fill="#533422"/>
<path d="M143.294 96.8532H143.877V99.0087H145.099C145.776 99.0087 146.302 99.1345 146.678 99.4039C147.054 99.6733 147.242 100.033 147.242 100.482C147.242 100.931 147.054 101.29 146.678 101.559C146.302 101.829 145.776 101.955 145.099 101.955H143.294V96.8532ZM145.099 101.757C145.588 101.757 145.982 101.649 146.264 101.416C146.547 101.2 146.678 100.877 146.678 100.464C146.678 100.051 146.547 99.7452 146.264 99.5117C145.982 99.2961 145.606 99.1704 145.099 99.1704H143.877V101.739H145.099V101.757Z" fill="#533422"/>
<path d="M149.273 102.026C149.141 102.026 149.028 101.973 148.934 101.883C148.84 101.793 148.803 101.685 148.803 101.559C148.803 101.434 148.859 101.326 148.953 101.236C149.047 101.146 149.16 101.11 149.292 101.11C149.423 101.11 149.536 101.146 149.63 101.236C149.724 101.326 149.762 101.434 149.762 101.559C149.762 101.685 149.724 101.793 149.63 101.883C149.536 101.973 149.404 102.026 149.273 102.026ZM148.916 94.8235H149.592L149.329 99.9248H149.16L148.916 94.8235Z" fill="#533422"/>
<path d="M25.7593 75.1547L10.2472 49.4684H1.86133V84.5131H9.40112V61.7188L23.1645 84.5131H28.4104L42.155 61.7188V84.5131H49.6948V49.4684H41.3089L25.7593 75.1547Z" fill="#533422"/>
<path d="M144.346 49.4684L128.797 75.1547L113.341 49.5583L113.304 49.4684H104.899V84.5131H112.439V61.7188L126.146 84.4233L126.202 84.5131H131.448L145.211 61.7188V84.5131H152.732V49.4684H144.346Z" fill="#533422"/>
<path d="M54.6023 89.9018H62.1233V81.675H92.2448V89.9018H99.7846V74.975H54.6023V89.9018Z" fill="#533422"/>
</g>
<defs>
<clipPath id="clip0_247_42">
<rect width="168" height="103.05" fill="white"/>
</clipPath>
</defs>
</svg>
