<svg width="168" height="104" viewBox="0 0 168 104" fill="none" xmlns="http://www.w3.org/2000/svg">
<g clip-path="url(#clip0_26_5086)">
<path d="M108.001 31.3343C91.5492 25.6043 75.5859 18.1319 58.2876 14.9526C51.4247 13.6952 45.2575 13.5875 39.1655 17.8445C27.8276 25.748 16.6966 33.9748 5.75352 42.3453C2.36908 44.9498 -3.45707e-05 43.8721 1.48536 42.5608C6.99448 37.6571 12.0147 32.4839 17.2418 27.3107C24.9132 20 32.3402 12.2582 40.5569 5.50438C47.9839 -0.369322 55.4296 1.94783 63.4959 5.10921C68.6666 7.24673 73.8184 9.40222 78.9139 11.7194C85.7204 14.7909 92.6209 17.6829 99.4086 20.7724C100.8 21.3831 100.838 21.3652 100.838 19.9282C100.838 18.1679 100.875 16.3896 100.856 14.6293C100.856 13.9467 101.063 13.803 101.759 14.0365C106.76 15.7429 111.781 17.4314 116.801 19.084C117.459 19.2995 117.666 19.6228 117.647 20.2515C117.609 22.4609 117.666 24.6882 117.609 26.8976C117.591 27.67 117.873 28.119 118.568 28.4424C132.031 34.9447 145.55 41.3753 159.012 47.8777C159.877 48.3088 160.761 48.7039 161.626 49.1171C162.246 49.4045 161.852 50.2846 161.212 50.0511C148.746 45.7222 122.874 36.5973 108.001 31.3343Z" fill="#A6A6A6"/>
<path d="M91.7936 49.8716C92.4517 49.8716 92.7525 50.0153 92.7525 50.7159C92.7149 53.9491 92.7337 57.1823 92.7525 60.4156C92.7525 61.1161 92.5457 61.4394 91.7184 61.4214C87.8451 61.3316 83.953 61.4933 80.0797 61.3316C77.8798 61.2418 77.8798 61.2777 77.8798 59.1402C77.8798 56.392 77.8986 53.6258 77.861 50.8775C77.8422 50.0692 78.1242 49.8537 78.9327 49.8716C81.0386 49.9255 89.6313 49.9075 91.7936 49.8716Z" fill="#989898"/>
<path d="M78.7636 47.9679C78.0867 47.9858 77.8047 47.8242 77.8047 47.1236C77.8235 43.8545 77.8235 40.6033 77.8047 37.3341C77.8047 36.5797 78.0867 36.3462 78.8388 36.3462C83.201 36.3642 87.5444 36.3821 91.9065 36.3642C92.5458 36.3642 92.8091 36.5617 92.8091 37.1904C92.7903 40.4596 92.7903 43.7108 92.8091 46.9799C92.8091 47.6984 92.527 47.9858 91.7373 47.9858C89.5374 47.9319 80.8883 47.9319 78.7636 47.9679ZM81.8096 41.7349C81.7344 41.0883 81.4148 40.6931 80.6627 40.729C79.9294 40.7649 79.6473 41.232 79.6661 41.8068C79.6849 42.4175 80.0986 42.7767 80.7755 42.7588C81.5088 42.7588 81.7908 42.3816 81.8096 41.7349Z" fill="#A9A9A9"/>
<path d="M78.707 74.3003C77.9925 74.3183 77.7857 74.0848 77.7857 73.4202C77.8045 70.2228 77.8233 67.0255 77.7857 63.8282C77.7669 63.002 78.0865 62.7505 78.9326 62.7505C83.2196 62.7864 87.5066 62.7864 91.7935 62.7684C92.508 62.7684 92.8089 62.9301 92.7901 63.6666C92.7524 66.9178 92.7712 70.1869 92.7901 73.4381C92.7901 74.1027 92.5456 74.3183 91.8499 74.3183C89.6688 74.2644 80.9069 74.2644 78.707 74.3003ZM80.4744 69.5762C81.1513 69.5942 81.4522 69.2169 81.471 68.6422C81.4898 68.0135 81.1513 67.6183 80.4556 67.6363C79.8352 67.6363 79.4215 67.9955 79.4215 68.5703C79.4215 69.1451 79.7788 69.5582 80.4744 69.5762Z" fill="#A9A9A9"/>
<path d="M74.2885 62.8765C74.8902 62.8765 75.2099 63.0022 75.2099 63.6668C75.1911 66.8462 75.1911 70.0075 75.1911 73.1869C75.1911 73.8335 74.9278 74.1389 74.1757 74.1389C69.9452 74.1209 65.7146 74.1209 61.5029 74.1569C60.7884 74.1569 60.6003 73.9233 60.6003 73.2767C60.6191 70.0973 60.6379 66.936 60.6003 63.7566C60.6003 63.092 60.826 62.8765 61.5217 62.8944C63.684 62.9124 72.2015 62.8944 74.2885 62.8765Z" fill="#989898"/>
<path d="M61.4277 47.8238C60.9764 47.8238 60.6192 47.8058 60.6192 47.231C60.5816 45.1114 60.3748 42.9919 60.6192 40.8723C60.9764 37.7109 62.6311 36.7589 65.4702 36.5613C68.4034 36.3458 71.3554 36.5074 74.3074 36.4715C75.0407 36.4715 75.2099 36.7948 75.2099 37.4056C75.1911 39.6868 75.3039 45.6323 75.3039 46.4586C75.3039 47.1951 75.1911 47.7699 74.1382 47.8058C72.916 47.8417 63.5524 47.8238 61.4277 47.8238Z" fill="#989898"/>
<path d="M61.4841 61.3316C60.7508 61.3495 60.4124 61.134 60.4312 60.3616C60.4688 57.1643 60.45 53.967 60.4312 50.7517C60.4312 49.9973 60.732 49.7817 61.4841 49.7817C65.7711 49.7997 70.058 49.7997 74.345 49.7817C75.0783 49.7817 75.3415 50.0153 75.3415 50.7158C75.3227 53.9849 75.3227 57.2361 75.3415 60.5053C75.3415 61.134 75.0971 61.3495 74.4578 61.3495C72.2579 61.3316 63.6276 61.3136 61.4841 61.3316ZM74.2886 53.5718C74.3826 53.3024 74.3262 53.0329 74.1382 52.9431C73.4989 52.6378 73.1792 52.512 72.4647 52.2426C71.9571 52.045 71.6562 52.6557 71.487 52.997C70.5657 54.7753 69.7008 56.5895 68.7607 58.3678C68.4034 59.0503 68.3658 59.4994 69.1931 59.8766C70.7349 60.5592 70.7349 60.5771 71.2426 59.5712C72.2579 57.4876 73.3485 55.6554 74.2886 53.5718ZM70.6221 53.3563C70.6973 52.979 70.5093 52.8533 70.3025 52.7815C69.9076 52.6018 69.4939 52.4581 69.0991 52.2785C68.6102 52.045 68.2718 52.1707 68.0274 52.6378C67.012 54.6855 65.9967 56.7152 64.9626 58.745C64.5113 59.6072 65.6958 59.7868 66.2411 60.1101C66.8052 60.3975 67.1436 60.2538 67.4257 59.697C68.4598 57.5774 69.6632 55.4758 70.6221 53.3563Z" fill="#A9A9A9"/>
<path d="M10.3038 102.591C9.72096 102.591 9.21329 102.483 8.76203 102.286C8.31078 102.088 7.93473 101.801 7.65269 101.442C7.37065 101.082 7.20143 100.651 7.12622 100.148H7.33305C7.44586 100.813 7.7467 101.334 8.25437 101.729C8.76203 102.124 9.38252 102.304 10.1534 102.304C10.8867 102.304 11.4508 102.142 11.8832 101.837C12.3157 101.531 12.5225 101.1 12.5225 100.579C12.5225 100.274 12.4285 100.005 12.2593 99.7531C12.0901 99.5016 11.8456 99.304 11.5448 99.1783C11.244 99.0346 10.9055 98.9627 10.5483 98.9627H9.77737V98.7651H10.5107C10.8679 98.7651 11.1876 98.6933 11.4696 98.5496C11.7516 98.4059 11.9773 98.2083 12.1465 97.9388C12.3157 97.6874 12.3909 97.4179 12.3909 97.1126C12.3909 96.7713 12.2969 96.4659 12.1089 96.2145C11.9208 95.945 11.6576 95.7474 11.3192 95.6037C10.9807 95.46 10.5859 95.3882 10.1346 95.3882C9.42012 95.3882 8.81844 95.5858 8.34838 95.963C7.87832 96.3402 7.61508 96.8611 7.52107 97.5257H7.31425C7.37065 97.0407 7.52107 96.6096 7.78431 96.2504C8.04754 95.8911 8.38599 95.6217 8.81844 95.4241C9.2509 95.2265 9.75857 95.1367 10.3226 95.1367C10.8491 95.1367 11.3004 95.2265 11.714 95.3882C12.1277 95.5499 12.4473 95.7834 12.6729 96.0708C12.8986 96.3582 13.0114 96.6994 13.0114 97.0767C13.0114 97.5078 12.861 97.885 12.5789 98.1903C12.2969 98.5136 11.902 98.7292 11.3944 98.837C11.8832 98.9268 12.2969 99.1244 12.6353 99.4477C12.9738 99.771 13.143 100.148 13.143 100.579C13.143 100.992 13.0302 101.352 12.8046 101.639C12.5789 101.927 12.2405 102.16 11.808 102.322C11.3944 102.501 10.8867 102.591 10.3038 102.591Z" fill="#52545C"/>
<path d="M13.6694 102.232H14.2335C14.4027 101.729 14.5343 101.208 14.6284 100.669C14.7224 100.13 14.76 99.5196 14.76 98.8371C14.76 98.7652 14.76 98.6934 14.7412 98.6215C14.7412 98.5317 14.7224 98.4599 14.7224 98.388C14.7224 98.3521 14.7224 98.3162 14.7224 98.2623C14.7224 98.2264 14.7224 98.1904 14.7224 98.1545L14.6848 97.3462H18.5769V102.25H19.329V103.777H18.8401V102.448H14.1583V103.777H13.6694V102.232ZM17.994 102.232V97.5438H15.0796L15.042 98.6574C15.0044 99.4478 14.9292 100.112 14.854 100.651C14.76 101.19 14.6472 101.729 14.4779 102.232H17.994Z" fill="#52545C"/>
<path d="M23.0518 102.537C22.5253 102.537 22.0553 102.43 21.6416 102.196C21.2092 101.962 20.8895 101.639 20.6451 101.244C20.4007 100.849 20.269 100.382 20.269 99.8968C20.269 99.3939 20.3819 98.9448 20.6263 98.5496C20.8707 98.1365 21.2092 97.8311 21.6228 97.5976C22.0553 97.3641 22.5253 97.2563 23.0518 97.2563C23.5783 97.2563 24.0483 97.3641 24.462 97.5976C24.8944 97.8311 25.2141 98.1365 25.4585 98.5496C25.703 98.9448 25.8158 99.3939 25.8158 99.8968C25.8158 99.9148 25.8158 99.9327 25.8158 99.9507C25.8158 99.9687 25.8158 99.9866 25.8158 100.005H20.8707C20.8707 100.454 20.9835 100.867 21.1904 101.208C21.3972 101.567 21.6792 101.837 22.0177 102.016C22.3561 102.214 22.751 102.304 23.1834 102.304C23.6911 102.304 24.1423 102.178 24.5372 101.945C24.9321 101.711 25.1953 101.37 25.3457 100.975H25.5713C25.4773 101.298 25.3081 101.567 25.0637 101.819C24.8192 102.052 24.5372 102.232 24.18 102.376C23.8227 102.465 23.4467 102.537 23.0518 102.537ZM25.2329 99.7891C25.2141 99.322 25.1013 98.9089 24.9132 98.5676C24.7252 98.2084 24.462 97.9389 24.1423 97.7413C23.8227 97.5437 23.4467 97.4539 23.0518 97.4539C22.6382 97.4539 22.2621 97.5437 21.9425 97.7413C21.6228 97.9389 21.3596 98.2084 21.1716 98.5676C20.9835 98.9268 20.8707 99.322 20.8707 99.7531V99.7891H25.2329Z" fill="#52545C"/>
<path d="M29.5765 102.537C29.05 102.537 28.5799 102.429 28.1663 102.196C27.7338 101.962 27.4142 101.639 27.1697 101.244C26.9253 100.831 26.8125 100.382 26.8125 99.8967C26.8125 99.3938 26.9253 98.9447 27.1697 98.5316C27.4142 98.1184 27.7338 97.8131 28.1663 97.5796C28.5799 97.346 29.0688 97.2383 29.5953 97.2383C30.0653 97.2383 30.4602 97.3101 30.8362 97.4718C31.1935 97.6335 31.4943 97.849 31.7199 98.1364C31.9456 98.4238 32.096 98.783 32.1712 99.1782H31.9644C31.8516 98.6393 31.5883 98.2262 31.1935 97.9209C30.7986 97.6155 30.3098 97.4538 29.7269 97.4538C29.2944 97.4538 28.8808 97.5616 28.5423 97.7592C28.2039 97.9568 27.9218 98.2442 27.715 98.6214C27.527 98.9806 27.4142 99.4117 27.4142 99.8788C27.4142 100.346 27.5082 100.759 27.715 101.136C27.903 101.495 28.1851 101.783 28.5423 101.998C28.8996 102.214 29.2944 102.304 29.7269 102.304C30.3098 102.304 30.7986 102.142 31.1935 101.837C31.5883 101.531 31.8516 101.1 31.9644 100.579H32.1712C32.096 100.974 31.9456 101.334 31.7199 101.621C31.4943 101.908 31.1935 102.142 30.8362 102.304C30.4414 102.465 30.0465 102.537 29.5765 102.537Z" fill="#52545C"/>
<path d="M33.7129 97.3281H34.2958V99.4836H35.5179C36.1948 99.4836 36.7213 99.6094 37.0973 99.8788C37.4734 100.148 37.6614 100.507 37.6614 100.957C37.6614 101.406 37.4734 101.765 37.0973 102.034C36.7213 102.304 36.1948 102.429 35.5179 102.429H33.7129V97.3281ZM35.4991 102.232C35.988 102.232 36.3828 102.124 36.6649 101.891C36.9469 101.675 37.0785 101.352 37.0785 100.939C37.0785 100.525 36.9469 100.22 36.6649 99.9866C36.3828 99.771 36.0068 99.6453 35.4991 99.6453H34.277V102.214H35.4991V102.232Z" fill="#52545C"/>
<path d="M43.3022 99.5916L41.2715 97.3283H41.5536L43.7534 99.7712H44.7312V95.1729H45.314V99.7712H46.2918L48.5105 97.3283H48.7737L46.743 99.5736L48.9241 102.43H48.266L46.2918 99.9868H45.2952V102.43H44.7124V99.9868H43.7346L41.7792 102.43H41.1211L43.3022 99.5916Z" fill="#52545C"/>
<path d="M50.2778 97.3281H50.8607V101.729L54.546 97.3281H55.0349V102.429H54.452V97.7592L50.5035 102.483H50.259V97.3281H50.2778Z" fill="#52545C"/>
<path d="M57.2349 97.3281H59.3783C60.0176 97.3281 60.5253 97.4359 60.8825 97.6694C61.2398 97.9029 61.409 98.2262 61.409 98.6394C61.409 98.9447 61.315 99.2142 61.1082 99.4118C60.9013 99.6093 60.6193 99.753 60.2245 99.8429V99.8788C60.6757 99.9506 61.033 100.094 61.2586 100.31C61.4842 100.525 61.6158 100.795 61.6158 101.118C61.6158 101.531 61.4466 101.855 61.0894 102.088C60.7321 102.322 60.2245 102.429 59.5476 102.429H57.2161V97.3281H57.2349ZM59.3031 99.789C59.792 99.789 60.1869 99.6992 60.4689 99.5016C60.7509 99.304 60.8825 99.0346 60.8825 98.6753C60.8825 98.3161 60.7509 98.0287 60.4877 97.8311C60.2245 97.6335 59.8484 97.5437 59.3595 97.5437H57.8177V99.8069H59.3031V99.789ZM59.51 102.232C59.9988 102.232 60.3749 102.124 60.6381 101.926C60.9013 101.729 61.0518 101.442 61.0518 101.082C61.0518 100.723 60.9202 100.454 60.6381 100.256C60.3561 100.058 59.9612 99.9686 59.4724 99.9686H57.8177V102.214H59.51V102.232Z" fill="#52545C"/>
<path d="M65.4327 102.537C64.9062 102.537 64.4361 102.43 64.0225 102.196C63.59 101.963 63.2704 101.639 63.026 101.244C62.7815 100.849 62.6499 100.382 62.6499 99.8969C62.6499 99.394 62.7627 98.9449 63.0071 98.5498C63.2516 98.1366 63.59 97.8313 64.0037 97.5978C64.4361 97.3642 64.9062 97.2565 65.4327 97.2565C65.9591 97.2565 66.4292 97.3642 66.8428 97.5978C67.2753 97.8313 67.5949 98.1366 67.8394 98.5498C68.0838 98.9449 68.1966 99.394 68.1966 99.8969C68.1966 99.9149 68.1966 99.9329 68.1966 99.9508C68.1966 99.9688 68.1966 99.9867 68.1966 100.005H63.2516C63.2516 100.454 63.3644 100.867 63.5712 101.208C63.778 101.567 64.0601 101.837 64.3985 102.017C64.737 102.214 65.1318 102.304 65.5643 102.304C66.0719 102.304 66.5232 102.178 66.9181 101.945C67.3129 101.693 67.5761 101.37 67.7266 100.975H67.9522C67.8582 101.298 67.689 101.567 67.4445 101.819C67.2001 102.052 66.9181 102.232 66.5608 102.376C66.2036 102.519 65.8463 102.537 65.4327 102.537ZM67.6326 99.7892C67.6138 99.3221 67.5009 98.909 67.3129 98.5677C67.1249 98.2085 66.8616 97.939 66.542 97.7415C66.2224 97.5439 65.8463 97.4541 65.4515 97.4541C65.0378 97.4541 64.6618 97.5439 64.3421 97.7415C64.0225 97.939 63.7592 98.2085 63.5712 98.5677C63.3832 98.927 63.2704 99.3221 63.2704 99.7532V99.7892H67.6326ZM64.2857 94.8315H64.9814L64.6806 96.538H64.5866L64.2857 94.8315ZM65.7147 94.8315H66.4104L66.1096 96.538H66.0155L65.7147 94.8315Z" fill="#52545C"/>
<path d="M71.1486 97.5438H68.9299V97.3462H73.9314V97.5438H71.7127V102.448H71.1298V97.5438H71.1486Z" fill="#52545C"/>
<path d="M77.9739 97.3281H80.1174C80.7566 97.3281 81.2643 97.4359 81.6216 97.6694C81.9788 97.9029 82.148 98.2262 82.148 98.6394C82.148 98.9447 82.054 99.2142 81.8472 99.4118C81.6404 99.6093 81.3583 99.753 80.9635 99.8429V99.8788C81.4147 99.9506 81.772 100.094 81.9976 100.31C82.2232 100.525 82.3549 100.795 82.3549 101.118C82.3549 101.531 82.1856 101.855 81.8284 102.088C81.4711 102.322 80.9635 102.429 80.2866 102.429H77.9551V97.3281H77.9739ZM80.061 99.789C80.5498 99.789 80.9447 99.6992 81.2267 99.5016C81.5087 99.304 81.6404 99.0346 81.6404 98.6753C81.6404 98.3161 81.5087 98.0287 81.2455 97.8311C80.9823 97.6335 80.6062 97.5437 80.1174 97.5437H78.5756V99.8069H80.061V99.789ZM80.249 102.232C80.7378 102.232 81.1139 102.124 81.3771 101.926C81.6404 101.729 81.7908 101.442 81.7908 101.082C81.7908 100.723 81.6592 100.454 81.3771 100.256C81.0951 100.058 80.7002 99.9686 80.2114 99.9686H78.5568V102.214H80.249V102.232Z" fill="#52545C"/>
<path d="M85.0811 102.555C84.5171 102.555 84.1034 102.429 83.8026 102.196C83.5017 101.962 83.3513 101.639 83.3513 101.244C83.3513 100.867 83.4829 100.579 83.7274 100.364C83.9906 100.148 84.3102 100.004 84.6863 99.9147C85.0623 99.8249 85.4948 99.753 86.0025 99.7171C86.5101 99.6812 86.905 99.6273 87.1682 99.5195C87.4315 99.4297 87.5631 99.268 87.5631 99.0704C87.5631 98.5855 87.3939 98.2083 87.0742 97.9029C86.7358 97.6155 86.3221 97.4718 85.8144 97.4718C85.288 97.4718 84.8555 97.6155 84.4983 97.9209C84.141 98.2082 83.9342 98.6214 83.8402 99.1423H83.6334C83.6898 98.7471 83.8402 98.4238 84.0282 98.1364C84.235 97.849 84.4983 97.6335 84.8179 97.4718C85.1376 97.3101 85.5136 97.2383 85.9273 97.2383C86.3597 97.2383 86.7358 97.3281 87.0554 97.4897C87.3938 97.6514 87.6383 97.9029 87.8263 98.2082C88.0143 98.5136 88.1083 98.8908 88.1083 99.304V102.25H88.898V102.447H87.5443V101.046C87.375 101.513 87.0554 101.891 86.6041 102.16C86.1717 102.429 85.664 102.555 85.0811 102.555ZM85.2504 102.286C85.6828 102.286 86.0777 102.196 86.4349 101.998C86.7922 101.819 87.0554 101.549 87.2622 101.208C87.4691 100.867 87.5631 100.507 87.5631 100.094L87.5819 99.5195C87.4879 99.6093 87.3374 99.6812 87.1306 99.735C86.9238 99.7889 86.6606 99.8249 86.3409 99.8608C86.3221 99.8608 86.3033 99.8608 86.2845 99.8608C86.2657 99.8608 86.2469 99.8608 86.2093 99.8608C85.4196 99.9326 84.8555 100.076 84.4983 100.274C84.141 100.489 83.953 100.795 83.953 101.19C83.953 101.531 84.0658 101.801 84.3102 101.998C84.5359 102.196 84.8555 102.286 85.2504 102.286Z" fill="#52545C"/>
<path d="M90.3647 97.3281H90.9476V102.232H93.674V97.3281H94.2569V102.232H96.9832V97.3281H97.5661V102.429H90.3835V97.3281H90.3647Z" fill="#52545C"/>
<path d="M100.857 102.555C100.292 102.555 99.8788 102.429 99.578 102.196C99.2771 101.962 99.1267 101.639 99.1267 101.244C99.1267 100.867 99.2583 100.579 99.5028 100.364C99.766 100.148 100.086 100.004 100.462 99.9147C100.838 99.8249 101.27 99.753 101.778 99.7171C102.286 99.6812 102.68 99.6273 102.944 99.5195C103.207 99.4297 103.338 99.268 103.338 99.0704C103.338 98.5855 103.169 98.2083 102.85 97.9029C102.511 97.6155 102.097 97.4718 101.59 97.4718C101.063 97.4718 100.631 97.6155 100.274 97.9209C99.9164 98.2082 99.7096 98.6214 99.6156 99.1423H99.4087C99.4652 98.7471 99.6156 98.4238 99.8036 98.1364C100.01 97.849 100.274 97.6335 100.593 97.4718C100.913 97.3101 101.289 97.2383 101.703 97.2383C102.135 97.2383 102.511 97.3281 102.831 97.4897C103.169 97.6514 103.414 97.9029 103.602 98.2082C103.79 98.5136 103.884 98.8908 103.884 99.304V102.25H104.673V102.447H103.32V101.046C103.15 101.513 102.831 101.891 102.38 102.16C101.947 102.429 101.439 102.555 100.857 102.555ZM101.045 102.286C101.477 102.286 101.872 102.196 102.229 101.998C102.586 101.819 102.85 101.549 103.056 101.208C103.263 100.867 103.357 100.507 103.357 100.094L103.376 99.5195C103.282 99.6093 103.132 99.6812 102.925 99.735C102.718 99.7889 102.455 99.8249 102.135 99.8608C102.116 99.8608 102.097 99.8608 102.079 99.8608C102.06 99.8608 102.041 99.8608 102.003 99.8608C101.214 99.9326 100.65 100.076 100.292 100.274C99.9352 100.489 99.7472 100.795 99.7472 101.19C99.7472 101.531 99.86 101.801 100.104 101.998C100.311 102.196 100.631 102.286 101.045 102.286Z" fill="#52545C"/>
<path d="M108.81 97.3281H109.487L111.837 101.801L114.169 97.3281H114.789V102.429H114.225V97.6874L111.743 102.429H111.536L109.036 97.6874V102.429H108.829V97.3281H108.81Z" fill="#52545C"/>
<path d="M119.227 102.537C118.7 102.537 118.23 102.43 117.816 102.196C117.384 101.962 117.064 101.639 116.82 101.244C116.575 100.831 116.444 100.382 116.444 99.8968C116.444 99.3939 116.557 98.9448 116.801 98.5496C117.046 98.1365 117.384 97.8311 117.798 97.5976C118.23 97.3641 118.7 97.2563 119.227 97.2563C119.753 97.2563 120.223 97.3641 120.637 97.5976C121.069 97.8311 121.389 98.1365 121.633 98.5496C121.878 98.9448 121.991 99.3939 121.991 99.8968C121.991 99.9148 121.991 99.9327 121.991 99.9507C121.991 99.9687 121.991 99.9866 121.991 100.005H117.046C117.046 100.454 117.158 100.867 117.365 101.208C117.572 101.567 117.854 101.837 118.192 102.016C118.531 102.214 118.926 102.304 119.358 102.304C119.866 102.304 120.317 102.178 120.712 101.945C121.107 101.693 121.37 101.37 121.521 100.975H121.746C121.652 101.298 121.483 101.567 121.238 101.819C120.994 102.052 120.712 102.232 120.355 102.376C119.998 102.519 119.621 102.537 119.227 102.537ZM121.408 99.7891C121.389 99.322 121.276 98.9089 121.088 98.5676C120.9 98.2084 120.637 97.9389 120.317 97.7413C119.998 97.5437 119.621 97.4539 119.227 97.4539C118.813 97.4539 118.437 97.5437 118.117 97.7413C117.798 97.9389 117.534 98.2084 117.346 98.5676C117.158 98.9268 117.046 99.322 117.046 99.7531V99.7891H121.408Z" fill="#52545C"/>
<path d="M125.845 102.537C125.319 102.537 124.848 102.43 124.435 102.214C124.021 101.999 123.683 101.693 123.457 101.298C123.213 100.903 123.1 100.49 123.1 100.023V98.8013C123.119 98.1546 123.25 97.6157 123.495 97.1667C123.739 96.7356 124.096 96.3943 124.548 96.1787C124.999 95.9632 125.544 95.8554 126.165 95.8554H127.782V95.1729H127.988V96.3404H126.014C125.413 96.3404 124.924 96.4302 124.51 96.6098C124.115 96.7895 123.814 97.0589 123.608 97.4182C123.401 97.7774 123.307 98.2265 123.307 98.7474V99.1785C123.419 98.8731 123.608 98.6216 123.852 98.3881C124.096 98.1546 124.397 97.975 124.736 97.8492C125.074 97.7235 125.431 97.6517 125.826 97.6517C126.353 97.6517 126.823 97.7594 127.236 97.975C127.65 98.1905 127.988 98.4779 128.214 98.8551C128.44 99.2324 128.571 99.6455 128.571 100.095C128.571 100.562 128.459 100.975 128.214 101.352C127.97 101.729 127.65 102.017 127.236 102.232C126.823 102.43 126.353 102.537 125.845 102.537ZM125.826 102.34C126.24 102.34 126.616 102.25 126.936 102.052C127.255 101.855 127.518 101.603 127.706 101.262C127.894 100.921 127.988 100.526 127.988 100.095C127.988 99.6634 127.894 99.2683 127.706 98.945C127.518 98.6037 127.255 98.3522 126.936 98.1546C126.616 97.975 126.24 97.8672 125.826 97.8672C125.413 97.8672 125.055 97.957 124.736 98.1546C124.416 98.3342 124.153 98.6037 123.965 98.945C123.777 99.2862 123.683 99.6634 123.683 100.095C123.683 100.526 123.777 100.921 123.965 101.262C124.153 101.603 124.416 101.873 124.736 102.052C125.055 102.25 125.431 102.34 125.826 102.34Z" fill="#52545C"/>
<path d="M132.463 102.537C131.937 102.537 131.467 102.43 131.053 102.196C130.621 101.962 130.301 101.639 130.057 101.244C129.812 100.831 129.681 100.382 129.681 99.8968C129.681 99.3939 129.793 98.9448 130.038 98.5496C130.282 98.1365 130.621 97.8311 131.034 97.5976C131.467 97.3641 131.937 97.2563 132.463 97.2563C132.99 97.2563 133.46 97.3641 133.874 97.5976C134.306 97.8311 134.626 98.1365 134.87 98.5496C135.115 98.9448 135.227 99.3939 135.227 99.8968C135.227 99.9148 135.227 99.9327 135.227 99.9507C135.227 99.9687 135.227 99.9866 135.227 100.005H130.282C130.282 100.454 130.395 100.867 130.602 101.208C130.809 101.567 131.091 101.837 131.429 102.016C131.768 102.214 132.163 102.304 132.595 102.304C133.103 102.304 133.554 102.178 133.949 101.945C134.344 101.693 134.607 101.37 134.757 100.975H134.983C134.889 101.298 134.72 101.567 134.475 101.819C134.231 102.052 133.949 102.232 133.592 102.376C133.234 102.519 132.877 102.537 132.463 102.537ZM134.663 99.7891C134.645 99.322 134.532 98.9089 134.344 98.5676C134.156 98.2084 133.892 97.9389 133.573 97.7413C133.253 97.5437 132.877 97.4539 132.482 97.4539C132.069 97.4539 131.693 97.5437 131.373 97.7413C131.053 97.9389 130.79 98.2084 130.602 98.5676C130.414 98.9268 130.301 99.322 130.301 99.7531V99.7891H134.663Z" fill="#52545C"/>
<path d="M136.243 102.537C136.149 102.537 136.074 102.537 135.98 102.519C135.904 102.501 135.81 102.465 135.735 102.43V101.927C135.81 101.963 135.904 101.998 135.98 102.016C136.074 102.034 136.149 102.052 136.243 102.052C136.468 102.052 136.638 101.998 136.788 101.891C136.92 101.783 137.032 101.621 137.108 101.406C137.183 101.19 137.239 100.885 137.258 100.454C137.296 100.023 137.315 99.5196 137.315 98.9269C137.315 98.8191 137.315 98.6934 137.315 98.5856C137.315 98.4778 137.315 98.3701 137.296 98.2623L137.258 97.3462H141.113V102.448H140.53V97.5438H137.634L137.597 98.3162C137.559 99.1963 137.521 99.9148 137.465 100.508C137.409 101.082 137.315 101.496 137.202 101.765C137.089 102.052 136.957 102.25 136.788 102.376C136.656 102.465 136.468 102.537 136.243 102.537Z" fill="#52545C"/>
<path d="M143.294 97.3281H143.877V99.4836H145.099C145.776 99.4836 146.302 99.6094 146.678 99.8788C147.054 100.148 147.242 100.507 147.242 100.957C147.242 101.406 147.054 101.765 146.678 102.034C146.302 102.304 145.776 102.429 145.099 102.429H143.294V97.3281ZM145.099 102.232C145.588 102.232 145.982 102.124 146.264 101.891C146.547 101.675 146.678 101.352 146.678 100.939C146.678 100.525 146.547 100.22 146.264 99.9866C145.982 99.771 145.606 99.6453 145.099 99.6453H143.877V102.214H145.099V102.232Z" fill="#52545C"/>
<path d="M149.273 102.501C149.141 102.501 149.028 102.447 148.934 102.358C148.84 102.268 148.803 102.16 148.803 102.034C148.803 101.909 148.859 101.801 148.953 101.711C149.047 101.621 149.16 101.585 149.292 101.585C149.423 101.585 149.536 101.621 149.63 101.711C149.724 101.801 149.762 101.909 149.762 102.034C149.762 102.16 149.724 102.268 149.63 102.358C149.536 102.447 149.404 102.501 149.273 102.501ZM148.916 95.2983H149.592L149.329 100.4H149.16L148.916 95.2983Z" fill="#52545C"/>
<path d="M25.7593 75.6296L10.2472 49.9434H1.86133V84.988H9.40112V62.1937L23.1645 84.988H28.4104L42.155 62.1937V84.988H49.6948V49.9434H41.3089L25.7593 75.6296Z" fill="#52545C"/>
<path d="M144.346 49.9434L128.797 75.6296L113.341 50.0332L113.304 49.9434H104.899V84.988H112.439V62.1937L126.146 84.8982L126.202 84.988H131.448L145.211 62.1937V84.988H152.732V49.9434H144.346Z" fill="#52545C"/>
<path d="M54.6023 90.3769H62.1233V82.1502H92.2448V90.3769H99.7846V75.4502H54.6023V90.3769Z" fill="#52545C"/>
</g>
<defs>
<clipPath id="clip0_26_5086">
<rect width="168" height="103.05" fill="white" transform="translate(0 0.475098)"/>
</clipPath>
</defs>
</svg>
