<svg width="37" height="33" viewBox="0 0 37 33" fill="none" xmlns="http://www.w3.org/2000/svg">
<path d="M32.34 2.52C31.94 1.34 30.82 0.5 29.5 0.5H7.5C6.18 0.5 5.08 1.34 4.66 2.52L0.5 14.5V30.5C0.5 31.6 1.4 32.5 2.5 32.5H4.5C5.6 32.5 6.5 31.6 6.5 30.5V28.5H30.5V30.5C30.5 31.6 31.4 32.5 32.5 32.5H34.5C35.6 32.5 36.5 31.6 36.5 30.5V14.5L32.34 2.52ZM7.5 22.5C5.84 22.5 4.5 21.16 4.5 19.5C4.5 17.84 5.84 16.5 7.5 16.5C9.16 16.5 10.5 17.84 10.5 19.5C10.5 21.16 9.16 22.5 7.5 22.5ZM29.5 22.5C27.84 22.5 26.5 21.16 26.5 19.5C26.5 17.84 27.84 16.5 29.5 16.5C31.16 16.5 32.5 17.84 32.5 19.5C32.5 21.16 31.16 22.5 29.5 22.5ZM4.5 12.5L7.5 3.5H29.5L32.5 12.5H4.5Z" fill="black"/>
</svg>
