<svg width="49" height="36" viewBox="0 0 49 36" fill="none" xmlns="http://www.w3.org/2000/svg">
<path d="M44.5 0H4.5C2.3 0 0.5 1.8 0.5 4V32C0.5 34.2 2.3 36 4.5 36H44.5C46.7 36 48.48 34.2 48.48 32L48.5 4C48.5 1.8 46.7 0 44.5 0ZM16.5 6C19.82 6 22.5 8.68 22.5 12C22.5 15.32 19.82 18 16.5 18C13.18 18 10.5 15.32 10.5 12C10.5 8.68 13.18 6 16.5 6ZM28.5 30H4.5V28C4.5 24 12.5 21.8 16.5 21.8C20.5 21.8 28.5 24 28.5 28V30ZM36.2 22H39.48L42.5 26L38.52 29.98C35.9 28.02 33.96 25.22 33.06 22C32.7 20.72 32.5 19.38 32.5 18C32.5 16.62 32.7 15.28 33.06 14C33.96 10.76 35.9 7.98 38.52 6.02L42.5 10L39.48 14H36.2C35.76 15.26 35.5 16.6 35.5 18C35.5 19.4 35.76 20.74 36.2 22Z" fill="black"/>
</svg>
