<svg width="37" height="36" viewBox="0 0 37 36" fill="none" xmlns="http://www.w3.org/2000/svg">
<path d="M33.4499 13.65L32.6499 14.85L32.3499 15.35C31.6499 16.55 30.8499 17.75 30.1499 18.95C30.0499 19.15 29.9499 19.35 29.9499 19.55C29.9499 23.25 29.9499 26.95 29.9499 30.65V32.15H25.8499C18.6499 32.15 11.4499 32.15 4.2499 32.15C4.2499 23.55 4.2499 15.05 4.2499 6.44998C10.5499 6.44998 16.8499 6.44998 23.2499 6.44998C23.5499 6.44998 23.8499 6.34998 23.9499 6.04998C24.2499 5.44998 24.6499 4.94998 24.9499 4.44998L25.9499 2.84998H3.8499C2.0499 2.84998 0.649902 4.24998 0.649902 5.94998C0.649902 14.85 0.649902 23.75 0.649902 32.65C0.649902 34.05 1.6499 35.35 3.0499 35.75L3.3499 35.85H30.8499H31.0499H31.1499C32.7499 35.55 33.7499 34.25 33.7499 32.65C33.7499 26.85 33.7499 21.15 33.7499 15.35C33.7499 15.35 33.7499 15.25 33.7499 15.15L33.4499 13.65Z" fill="black"/>
<path d="M36.25 1.95002C36.15 1.75002 36.15 1.55002 36.05 1.35002C35.65 0.650024 34.85 0.150024 34.05 0.150024C33.25 0.150024 32.45 0.550024 31.95 1.25002L17.85 21.55L12.75 15.75C12.05 14.95 10.95 14.75 10.05 15.15C9.15002 15.55 8.55002 16.55 8.65002 17.55C8.75002 18.25 9.05003 18.65 9.45003 19.05C11.25 21.05 13.05 23.15 14.85 25.15L16.35 26.85C16.85 27.35 17.45 27.65 18.15 27.65C18.25 27.65 18.45 27.65 18.65 27.65C19.45 27.55 19.95 26.95 20.25 26.55C25.25 19.35 30.15 12.15 35.15 5.05002L35.65 4.25002C35.95 3.85002 36.25 3.45002 36.35 2.85002V2.35002L36.25 1.95002Z" fill="black"/>
</svg>
