<svg width="37" height="36" viewBox="0 0 37 36" fill="none" xmlns="http://www.w3.org/2000/svg">
<path d="M18.3518 0.215174C21.4518 0.215174 24.6518 0.215174 27.7518 0.215174C29.4518 0.215174 31.0518 0.515174 32.4518 1.41517C34.2518 2.51517 35.3518 4.21517 35.7518 6.21517C35.9518 7.21517 36.0518 8.11517 36.0518 9.11517C36.0518 15.2152 36.0518 21.3152 36.0518 27.4152C36.0518 29.1152 35.6518 30.8152 34.5518 32.3152C33.2518 34.1152 31.4518 35.1152 29.2518 35.4152C27.8518 35.6152 26.4518 35.5152 25.0518 35.5152C19.5518 35.5152 14.0518 35.5152 8.65176 35.5152C6.95176 35.5152 5.25176 35.1152 3.85176 34.1152C2.05176 32.8152 1.05176 31.1152 0.751758 28.9152C0.551758 27.8152 0.551758 26.8152 0.551758 25.7152C0.551758 19.9152 0.551758 14.1152 0.551758 8.21517C0.551758 6.51517 0.951758 4.81517 2.05176 3.31517C3.35176 1.51517 5.05176 0.515174 7.25176 0.215174C10.5518 -0.184826 13.9518 0.115174 17.3518 0.0151741C17.7518 0.215174 18.0518 0.215174 18.3518 0.215174ZM31.1518 23.9152C31.1518 20.1152 28.0518 17.0152 24.3518 17.0152C20.5518 17.0152 17.4518 20.0152 17.4518 23.8152C17.4518 27.6152 20.4518 30.7152 24.2518 30.7152C28.0518 30.8152 31.1518 27.7152 31.1518 23.9152ZM17.0518 11.0152C17.0518 7.91517 14.5518 5.41517 11.4518 5.41517C8.35176 5.41517 5.85176 7.91517 5.85176 11.0152C5.85176 14.1152 8.35176 16.6152 11.4518 16.6152C14.5518 16.6152 17.0518 14.1152 17.0518 11.0152ZM24.3518 6.61517C21.8518 6.61517 19.9518 8.51517 19.8518 11.0152C19.8518 13.4152 21.8518 15.4152 24.2518 15.5152C26.6518 15.5152 28.6518 13.5152 28.6518 11.1152C28.7518 8.51517 26.7518 6.61517 24.3518 6.61517ZM11.4518 20.7152C9.65176 20.7152 8.25176 22.2152 8.25176 23.9152C8.25176 25.7152 9.75176 27.1152 11.4518 27.1152C13.1518 27.1152 14.6518 25.6152 14.6518 23.9152C14.6518 22.2152 13.1518 20.7152 11.4518 20.7152Z" fill="#F2F2F2"/>
<path d="M31.1517 23.9151C31.1517 27.7151 28.0517 30.8151 24.2517 30.8151C20.4517 30.8151 17.4517 27.7151 17.4517 23.9151C17.4517 20.1151 20.5517 17.0151 24.3517 17.1151C28.0517 17.0151 31.1517 20.1151 31.1517 23.9151Z" fill="#C9C9C9"/>
<path d="M17.0516 11.015C17.0516 14.115 14.5516 16.615 11.4516 16.615C8.35156 16.615 5.85156 14.115 5.85156 11.015C5.85156 7.91504 8.35156 5.41504 11.4516 5.41504C14.5516 5.41504 17.0516 7.91504 17.0516 11.015Z" fill="#767676"/>
<path d="M24.3517 6.61523C26.8517 6.61523 28.7517 8.61523 28.7517 11.0152C28.7517 13.4152 26.7517 15.4152 24.3517 15.4152C21.9517 15.4152 19.9517 13.4152 19.9517 10.9152C19.9517 8.51523 21.8517 6.61523 24.3517 6.61523Z" fill="#9D9D9D"/>
<path d="M11.4518 20.7153C13.1518 20.7153 14.6518 22.2153 14.6518 23.9153C14.6518 25.6153 13.1518 27.1153 11.4518 27.1153C9.6518 27.1153 8.2518 25.6153 8.2518 23.9153C8.1518 22.1153 9.6518 20.7153 11.4518 20.7153Z" fill="#A3A3A3"/>
</svg>
