<svg width="31" height="43" viewBox="0 0 31 43" fill="none" xmlns="http://www.w3.org/2000/svg">
<path d="M15.3999 0.12207C7.0999 0.12207 0.399902 6.82207 0.399902 15.1221C0.399902 17.9221 1.1999 20.6221 2.5999 23.0221L14.4999 42.1221C14.6999 42.5221 15.0999 42.7221 15.5999 42.7221C15.9999 42.7221 16.3999 42.5221 16.6999 42.1221L28.2999 22.7221C29.6999 20.4221 30.3999 17.7221 30.3999 15.0221C30.3999 6.82207 23.6999 0.12207 15.3999 0.12207ZM26.0999 21.5221L15.5999 39.1221L4.7999 21.7221C3.5999 19.7221 2.8999 17.5221 2.8999 15.1221C2.8999 8.22207 8.4999 2.62207 15.3999 2.62207C22.2999 2.62207 27.8999 8.22207 27.8999 15.1221C27.8999 17.3221 27.2999 19.6221 26.0999 21.5221Z" fill="#616161"/>
<path d="M15.3999 7.62207C11.2999 7.62207 7.8999 11.0221 7.8999 15.1221C7.8999 19.2221 11.1999 22.6221 15.3999 22.6221C19.5999 22.6221 22.8999 19.2221 22.8999 15.1221C22.8999 11.0221 19.4999 7.62207 15.3999 7.62207ZM15.3999 20.1221C12.5999 20.1221 10.3999 17.8221 10.3999 15.1221C10.3999 12.3221 12.6999 10.1221 15.3999 10.1221C18.1999 10.1221 20.3999 12.4221 20.3999 15.1221C20.3999 17.8221 18.1999 20.1221 15.3999 20.1221Z" fill="#616161"/>
</svg>
