<svg width="116" height="71" viewBox="0 0 116 71" fill="none" xmlns="http://www.w3.org/2000/svg">
<g clip-path="url(#clip0_80_52642)">
<path d="M74.3034 21.7324C63.1278 17.8401 52.2842 12.7643 40.5339 10.6046C35.872 9.75052 31.6828 9.67731 27.5446 12.5691C19.843 17.9377 12.2819 23.526 4.84851 29.2119C2.54952 30.9811 0.940232 30.249 1.94923 29.3583C5.69147 26.0273 9.10163 22.5133 12.6523 18.9993C17.8633 14.0332 22.9083 8.7744 28.4897 4.18664C33.5347 0.196751 38.5925 1.77074 44.0717 3.91821C47.5841 5.37019 51.0837 6.83437 54.5449 8.40836C59.1684 10.4948 63.8558 12.4593 68.4665 14.5579C69.4117 14.9728 69.4372 14.9606 69.4372 13.9844C69.4372 12.7887 69.4628 11.5807 69.45 10.385C69.45 9.92135 69.5905 9.82373 70.063 9.98235C73.4604 11.1415 76.8706 12.2884 80.2808 13.411C80.7278 13.5574 80.8683 13.777 80.8555 14.2041C80.83 15.7049 80.8683 17.2178 80.83 18.7186C80.8172 19.2433 81.0088 19.5483 81.4813 19.768C90.6262 24.1849 99.8094 28.553 108.954 32.97C109.542 33.2628 110.142 33.5312 110.73 33.8119C111.151 34.0071 110.883 34.605 110.449 34.4464C101.981 31.5058 84.4062 25.3074 74.3034 21.7324Z" fill="#A6A6A6"/>
<path d="M63.2938 34.3239C63.7409 34.3239 63.9452 34.4215 63.9452 34.8974C63.9197 37.0937 63.9325 39.2899 63.9452 41.4862C63.9452 41.9621 63.8047 42.1817 63.2428 42.1695C60.6117 42.1085 57.9679 42.2183 55.3368 42.1085C53.8425 42.0475 53.8425 42.0719 53.8425 40.6199C53.8425 38.7531 53.8552 36.874 53.8297 35.0072C53.8169 34.4582 54.0085 34.3117 54.5577 34.3239C55.9882 34.3605 61.8251 34.3483 63.2938 34.3239Z" fill="#989898"/>
<path d="M54.4429 33.0306C53.9831 33.0428 53.7915 32.933 53.7915 32.4571C53.8043 30.2365 53.8043 28.028 53.7915 25.8073C53.7915 25.2948 53.9831 25.1362 54.494 25.1362C57.4571 25.1484 60.4075 25.1606 63.3706 25.1484C63.8049 25.1484 63.9837 25.2826 63.9837 25.7097C63.9709 27.9304 63.9709 30.1388 63.9837 32.3595C63.9837 32.8476 63.7921 33.0428 63.2557 33.0428C61.7613 33.0062 55.8861 33.0062 54.4429 33.0306ZM56.512 28.7967C56.4609 28.3574 56.2438 28.089 55.7329 28.1134C55.2348 28.1378 55.0432 28.455 55.0559 28.8455C55.0687 29.2603 55.3497 29.5044 55.8095 29.4922C56.3076 29.4922 56.4992 29.2359 56.512 28.7967Z" fill="#A9A9A9"/>
<path d="M54.4047 50.9183C53.9193 50.9305 53.7788 50.7719 53.7788 50.3204C53.7916 48.1486 53.8044 45.9767 53.7788 43.8048C53.7661 43.2436 53.9832 43.0728 54.5579 43.0728C57.47 43.0972 60.382 43.0972 63.2941 43.085C63.7794 43.085 63.9838 43.1948 63.971 43.695C63.9455 45.9035 63.9582 48.1242 63.971 50.3326C63.971 50.7841 63.805 50.9305 63.3324 50.9305C61.8508 50.8939 55.899 50.8939 54.4047 50.9183ZM55.6053 47.7093C56.0651 47.7215 56.2694 47.4653 56.2822 47.0748C56.295 46.6478 56.0651 46.3794 55.5925 46.3916C55.171 46.3916 54.89 46.6356 54.89 47.026C54.89 47.4165 55.1327 47.6971 55.6053 47.7093Z" fill="#A9A9A9"/>
<path d="M51.4031 43.1582C51.8118 43.1582 52.0289 43.2436 52.0289 43.6951C52.0162 45.8547 52.0162 48.0022 52.0162 50.1619C52.0162 50.6011 51.8374 50.8085 51.3265 50.8085C48.4527 50.7963 45.579 50.7963 42.718 50.8207C42.2327 50.8207 42.105 50.6621 42.105 50.2229C42.1178 48.0632 42.1305 45.9157 42.105 43.7561C42.105 43.3046 42.2582 43.1582 42.7308 43.1704C44.1996 43.1826 49.9854 43.1704 51.4031 43.1582Z" fill="#989898"/>
<path d="M42.6671 32.9332C42.3606 32.9332 42.1179 32.921 42.1179 32.5306C42.0923 31.0908 41.9519 29.651 42.1179 28.2113C42.3606 26.0638 43.4845 25.4171 45.4131 25.2829C47.4056 25.1365 49.4108 25.2463 51.416 25.2219C51.9141 25.2219 52.0291 25.4415 52.0291 25.8564C52.0163 27.406 52.0929 31.4447 52.0929 32.0059C52.0929 32.5062 52.0163 32.8966 51.3011 32.921C50.4709 32.9454 44.1103 32.9332 42.6671 32.9332Z" fill="#989898"/>
<path d="M42.7055 42.1087C42.2074 42.1209 41.9775 41.9745 41.9902 41.4499C42.0158 39.278 42.003 37.1061 41.9902 34.9221C41.9902 34.4096 42.1946 34.2632 42.7055 34.2632C45.6175 34.2754 48.5296 34.2754 51.4416 34.2632C51.9397 34.2632 52.1186 34.4218 52.1186 34.8977C52.1058 37.1183 52.1058 39.3268 52.1186 41.5475C52.1186 41.9745 51.9525 42.1209 51.5183 42.1209C50.0239 42.1087 44.1615 42.0965 42.7055 42.1087ZM51.4033 36.8377C51.4672 36.6547 51.4289 36.4717 51.3011 36.4106C50.8669 36.2032 50.6498 36.1178 50.1644 35.9348C49.8196 35.8006 49.6152 36.2154 49.5003 36.4473C48.8744 37.6552 48.2869 38.8876 47.6483 40.0955C47.4056 40.5592 47.3801 40.8642 47.9421 41.1204C48.9894 41.5841 48.9894 41.5963 49.3342 40.913C50.0239 39.4976 50.7647 38.2531 51.4033 36.8377ZM48.9128 36.6913C48.9638 36.435 48.8361 36.3496 48.6956 36.3008C48.4274 36.1788 48.1464 36.0812 47.8782 35.9592C47.5461 35.8006 47.3162 35.886 47.1502 36.2032C46.4605 37.5942 45.7708 38.973 45.0683 40.3517C44.7618 40.9374 45.5664 41.0594 45.9368 41.279C46.32 41.4743 46.5499 41.3767 46.7415 40.9984C47.444 39.5586 48.2614 38.1311 48.9128 36.6913Z" fill="#A9A9A9"/>
<path d="M7.93974 70.1354C7.5438 70.1354 7.19896 70.0622 6.89243 69.928C6.58589 69.7938 6.33045 69.5985 6.13887 69.3545C5.94729 69.1105 5.83234 68.8176 5.78125 68.476H5.92174C5.99838 68.9275 6.20273 69.2813 6.54758 69.5497C6.89243 69.8182 7.31391 69.9402 7.83756 69.9402C8.33568 69.9402 8.71884 69.8304 9.0126 69.6229C9.30636 69.4155 9.44685 69.1227 9.44685 68.7688C9.44685 68.5614 9.38299 68.3784 9.26804 68.2076C9.15309 68.0367 8.98706 67.9025 8.7827 67.8171C8.57835 67.7195 8.34845 67.6707 8.10578 67.6707H7.58212V67.5365H8.08024C8.32291 67.5365 8.54003 67.4877 8.73161 67.3901C8.9232 67.2924 9.07646 67.1582 9.19141 66.9752C9.30636 66.8044 9.35745 66.6214 9.35745 66.4139C9.35745 66.1821 9.29359 65.9747 9.16587 65.8039C9.03815 65.6208 8.85934 65.4866 8.62944 65.389C8.39954 65.2914 8.13132 65.2426 7.82479 65.2426C7.33945 65.2426 6.93074 65.3768 6.61144 65.633C6.29214 65.8893 6.11333 66.2431 6.04946 66.6946H5.90897C5.94729 66.3651 6.04946 66.0723 6.22827 65.8283C6.40708 65.5842 6.63698 65.4012 6.93074 65.267C7.2245 65.1328 7.56935 65.0718 7.95251 65.0718C8.31013 65.0718 8.61666 65.1328 8.89765 65.2426C9.17864 65.3524 9.39577 65.511 9.54903 65.7063C9.7023 65.9015 9.77893 66.1333 9.77893 66.3895C9.77893 66.6824 9.67675 66.9386 9.48517 67.146C9.29359 67.3657 9.02537 67.5121 8.68053 67.5853C9.0126 67.6463 9.29359 67.7805 9.52349 68.0001C9.75338 68.2198 9.86833 68.476 9.86833 68.7688C9.86833 69.0495 9.7917 69.2935 9.63844 69.4887C9.48517 69.6839 9.25527 69.8426 8.96151 69.9524C8.68053 70.0744 8.33568 70.1354 7.93974 70.1354Z" fill="#52545C"/>
<path d="M10.2261 69.8911H10.6092C10.7242 69.5494 10.8136 69.1956 10.8775 68.8295C10.9413 68.4635 10.9669 68.0486 10.9669 67.585C10.9669 67.5362 10.9669 67.4874 10.9541 67.4386C10.9541 67.3776 10.9413 67.3288 10.9413 67.28C10.9413 67.2555 10.9413 67.2312 10.9413 67.1945C10.9413 67.1701 10.9413 67.1457 10.9413 67.1213L10.9158 66.5723H13.5596V69.9033H14.0705V70.9404H13.7384V70.0375H10.5582V70.9404H10.2261V69.8911ZM13.1637 69.8911V66.7065H11.184L11.1584 67.463C11.1329 67.9998 11.0818 68.4513 11.0307 68.8173C10.9669 69.1834 10.8902 69.5494 10.7753 69.8911H13.1637Z" fill="#52545C"/>
<path d="M16.5993 70.0985C16.2416 70.0985 15.9223 70.0253 15.6413 69.8666C15.3476 69.708 15.1305 69.4884 14.9644 69.22C14.7984 68.9515 14.709 68.6343 14.709 68.3049C14.709 67.9632 14.7856 67.6582 14.9517 67.3897C15.1177 67.1091 15.3476 66.9017 15.6286 66.7431C15.9223 66.5844 16.2416 66.5112 16.5993 66.5112C16.9569 66.5112 17.2762 66.5844 17.5572 66.7431C17.8509 66.9017 18.0681 67.1091 18.2341 67.3897C18.4001 67.6582 18.4768 67.9632 18.4768 68.3049C18.4768 68.3171 18.4768 68.3293 18.4768 68.3415C18.4768 68.3537 18.4768 68.3659 18.4768 68.3781H15.1177C15.1177 68.6831 15.1943 68.9637 15.3348 69.1956C15.4753 69.4396 15.6669 69.6226 15.8968 69.7446C16.1267 69.8788 16.3949 69.9399 16.6887 69.9399C17.0335 69.9399 17.34 69.8544 17.6083 69.6958C17.8765 69.5372 18.0553 69.3054 18.1575 69.0369H18.3107C18.2469 69.2566 18.1319 69.4396 17.9659 69.6104C17.7998 69.769 17.6083 69.891 17.3656 69.9887C17.1229 70.0497 16.8675 70.0985 16.5993 70.0985ZM18.0808 68.2316C18.0681 67.9144 17.9914 67.6338 17.8637 67.4019C17.736 67.1579 17.5572 66.9749 17.34 66.8407C17.1229 66.7065 16.8675 66.6455 16.5993 66.6455C16.3183 66.6455 16.0628 66.7065 15.8457 66.8407C15.6286 66.9749 15.4498 67.1579 15.322 67.4019C15.1943 67.646 15.1177 67.9144 15.1177 68.2072V68.2316H18.0808Z" fill="#52545C"/>
<path d="M21.0313 70.0985C20.6737 70.0985 20.3544 70.0253 20.0734 69.8666C19.7796 69.708 19.5625 69.4884 19.3965 69.22C19.2304 68.9393 19.1538 68.6343 19.1538 68.3048C19.1538 67.9632 19.2304 67.6582 19.3965 67.3775C19.5625 67.0969 19.7796 66.8895 20.0734 66.7308C20.3544 66.5722 20.6865 66.499 21.0441 66.499C21.3634 66.499 21.6316 66.5478 21.887 66.6576C22.1297 66.7675 22.3341 66.9139 22.4873 67.1091C22.6406 67.3043 22.7428 67.5484 22.7939 67.8168H22.6534C22.5767 67.4507 22.3979 67.1701 22.1297 66.9627C21.8615 66.7553 21.5294 66.6454 21.1335 66.6454C20.8397 66.6454 20.5587 66.7186 20.3288 66.8529C20.0989 66.9871 19.9074 67.1823 19.7669 67.4385C19.6391 67.6826 19.5625 67.9754 19.5625 68.2926C19.5625 68.6099 19.6264 68.8905 19.7669 69.1468C19.8946 69.3908 20.0862 69.586 20.3288 69.7324C20.5715 69.8788 20.8397 69.9398 21.1335 69.9398C21.5294 69.9398 21.8615 69.83 22.1297 69.6226C22.3979 69.4152 22.5767 69.1223 22.6534 68.7685H22.7939C22.7428 69.0369 22.6406 69.281 22.4873 69.4762C22.3341 69.6714 22.1297 69.83 21.887 69.9398C21.6188 70.0497 21.3506 70.0985 21.0313 70.0985Z" fill="#52545C"/>
<path d="M23.8408 66.5601H24.2368V68.0242H25.0669C25.5267 68.0242 25.8844 68.1097 26.1398 68.2927C26.3952 68.4757 26.523 68.7197 26.523 69.0248C26.523 69.3298 26.3952 69.5738 26.1398 69.7569C25.8844 69.9399 25.5267 70.0253 25.0669 70.0253H23.8408V66.5601ZM25.0542 69.8911C25.3862 69.8911 25.6545 69.8179 25.846 69.6592C26.0376 69.5128 26.127 69.2932 26.127 69.0126C26.127 68.7319 26.0376 68.5245 25.846 68.3659C25.6545 68.2195 25.399 68.134 25.0542 68.134H24.224V69.8789H25.0542V69.8911Z" fill="#52545C"/>
<path d="M30.3546 68.0978L28.9752 66.5604H29.1668L30.6611 68.2198H31.3253V65.0962H31.7212V68.2198H32.3854L33.8925 66.5604H34.0713L32.6919 68.0856L34.1735 70.0256H33.7265L32.3854 68.3662H31.7085V70.0256H31.3125V68.3662H30.6484L29.3201 70.0256H28.873L30.3546 68.0978Z" fill="#52545C"/>
<path d="M35.0933 66.5601H35.4893V69.5494L37.9926 66.5601H38.3247V70.0253H37.9288V66.8529L35.2466 70.0619H35.0806V66.5601H35.0933Z" fill="#52545C"/>
<path d="M39.8189 66.5601H41.2749C41.7092 66.5601 42.054 66.6333 42.2967 66.7919C42.5394 66.9505 42.6543 67.1701 42.6543 67.4508C42.6543 67.6582 42.5905 67.8412 42.45 67.9754C42.3095 68.1096 42.1179 68.2073 41.8497 68.2683V68.2927C42.1562 68.3415 42.3989 68.4391 42.5522 68.5855C42.7054 68.7319 42.7948 68.9149 42.7948 69.1346C42.7948 69.4152 42.6799 69.6348 42.4372 69.7935C42.1945 69.9521 41.8497 70.0253 41.3899 70.0253H39.8062V66.5601H39.8189ZM41.2239 68.2317C41.5559 68.2317 41.8242 68.1707 42.0157 68.0364C42.2073 67.9022 42.2967 67.7192 42.2967 67.4752C42.2967 67.2311 42.2073 67.0359 42.0285 66.9017C41.8497 66.7675 41.5943 66.7065 41.2622 66.7065H40.2149V68.2439H41.2239V68.2317ZM41.3644 69.8911C41.6964 69.8911 41.9519 69.8179 42.1307 69.6836C42.3095 69.5494 42.4117 69.3542 42.4117 69.1102C42.4117 68.8661 42.3223 68.6831 42.1307 68.5489C41.9391 68.4147 41.6709 68.3537 41.3388 68.3537H40.2149V69.8789H41.3644V69.8911Z" fill="#52545C"/>
<path d="M45.3878 70.0987C45.0302 70.0987 44.7109 70.0255 44.4299 69.8669C44.1362 69.7083 43.919 69.4886 43.753 69.2202C43.587 68.9518 43.4976 68.6345 43.4976 68.3051C43.4976 67.9634 43.5742 67.6584 43.7402 67.39C43.9063 67.1093 44.1362 66.9019 44.4172 66.7433C44.7109 66.5847 45.0302 66.5115 45.3878 66.5115C45.7455 66.5115 46.0648 66.5847 46.3457 66.7433C46.6395 66.9019 46.8566 67.1093 47.0227 67.39C47.1887 67.6584 47.2653 67.9634 47.2653 68.3051C47.2653 68.3173 47.2653 68.3295 47.2653 68.3417C47.2653 68.3539 47.2653 68.3661 47.2653 68.3783H43.9063C43.9063 68.6833 43.9829 68.964 44.1234 69.1958C44.2639 69.4398 44.4555 69.6228 44.6854 69.7449C44.9153 69.8791 45.1835 69.9401 45.4772 69.9401C45.8221 69.9401 46.1286 69.8547 46.3968 69.6961C46.665 69.5252 46.8439 69.3056 46.946 69.0372H47.0993C47.0354 69.2568 46.9205 69.4398 46.7545 69.6106C46.5884 69.7693 46.3968 69.8913 46.1542 69.9889C45.9115 70.0865 45.6688 70.0987 45.3878 70.0987ZM46.8822 68.2319C46.8694 67.9146 46.7928 67.634 46.665 67.4022C46.5373 67.1581 46.3585 66.9751 46.1414 66.8409C45.9243 66.7067 45.6688 66.6457 45.4006 66.6457C45.1196 66.6457 44.8642 66.7067 44.6471 66.8409C44.4299 66.9751 44.2511 67.1581 44.1234 67.4022C43.9957 67.6462 43.919 67.9146 43.919 68.2075V68.2319H46.8822ZM44.6087 64.8643H45.0813L44.8769 66.0234H44.8131L44.6087 64.8643ZM45.5794 64.8643H46.052L45.8476 66.0234H45.7838L45.5794 64.8643Z" fill="#52545C"/>
<path d="M49.2703 66.7065H47.7632V66.5723H51.1606V66.7065H49.6535V70.0375H49.2575V66.7065H49.2703Z" fill="#52545C"/>
<path d="M53.9068 66.5601H55.3628C55.7971 66.5601 56.1419 66.6333 56.3846 66.7919C56.6273 66.9505 56.7422 67.1701 56.7422 67.4508C56.7422 67.6582 56.6784 67.8412 56.5379 67.9754C56.3974 68.1096 56.2058 68.2073 55.9376 68.2683V68.2927C56.2441 68.3415 56.4868 68.4391 56.6401 68.5855C56.7933 68.7319 56.8827 68.9149 56.8827 69.1346C56.8827 69.4152 56.7678 69.6348 56.5251 69.7935C56.2824 69.9521 55.9376 70.0253 55.4778 70.0253H53.894V66.5601H53.9068ZM55.3245 68.2317C55.6566 68.2317 55.9248 68.1707 56.1164 68.0364C56.308 67.9022 56.3974 67.7192 56.3974 67.4752C56.3974 67.2311 56.308 67.0359 56.1292 66.9017C55.9504 66.7675 55.6949 66.7065 55.3628 66.7065H54.3155V68.2439H55.3245V68.2317ZM55.4522 69.8911C55.7843 69.8911 56.0398 69.8179 56.2186 69.6836C56.3974 69.5494 56.4996 69.3542 56.4996 69.1102C56.4996 68.8661 56.4102 68.6831 56.2186 68.5489C56.027 68.4147 55.7588 68.3537 55.4267 68.3537H54.3027V69.8789H55.4522V69.8911Z" fill="#52545C"/>
<path d="M58.7346 70.1107C58.3514 70.1107 58.0705 70.0253 57.8661 69.8666C57.6618 69.708 57.5596 69.4884 57.5596 69.22C57.5596 68.9637 57.649 68.7685 57.815 68.6221C57.9938 68.4757 58.211 68.378 58.4664 68.317C58.7218 68.256 59.0156 68.2072 59.3604 68.1828C59.7053 68.1584 59.9735 68.1218 60.1523 68.0486C60.3311 67.9876 60.4205 67.8778 60.4205 67.7436C60.4205 67.4141 60.3056 67.1579 60.0885 66.9505C59.8586 66.7553 59.5776 66.6576 59.2327 66.6576C58.8751 66.6576 58.5813 66.7553 58.3387 66.9627C58.096 67.1579 57.9555 67.4385 57.8916 67.7924H57.7512C57.7895 67.5239 57.8916 67.3043 58.0194 67.1091C58.1599 66.9139 58.3387 66.7675 58.5558 66.6576C58.7729 66.5478 59.0284 66.499 59.3094 66.499C59.6031 66.499 59.8586 66.56 60.0757 66.6698C60.3056 66.7797 60.4716 66.9505 60.5993 67.1579C60.7271 67.3653 60.7909 67.6216 60.7909 67.9022V69.9032H61.3274V70.0375H60.4078V69.0857C60.2928 69.403 60.0757 69.6592 59.7692 69.8422C59.4754 70.0253 59.1305 70.1107 58.7346 70.1107ZM58.8496 69.9276C59.1433 69.9276 59.4115 69.8666 59.6542 69.7324C59.8969 69.6104 60.0757 69.4274 60.2162 69.1956C60.3567 68.9637 60.4205 68.7197 60.4205 68.4391L60.4333 68.0486C60.3694 68.1096 60.2673 68.1584 60.1268 68.195C59.9863 68.2316 59.8075 68.256 59.5903 68.2804C59.5776 68.2804 59.5648 68.2804 59.552 68.2804C59.5393 68.2804 59.5265 68.2804 59.5009 68.2804C58.9645 68.3292 58.5813 68.4269 58.3387 68.5611C58.096 68.7075 57.9683 68.9149 57.9683 69.1834C57.9683 69.4152 58.0449 69.5982 58.211 69.7324C58.3642 69.8666 58.5813 69.9276 58.8496 69.9276Z" fill="#52545C"/>
<path d="M62.3237 66.5601H62.7197V69.8911H64.5716V66.5601H64.9676V69.8911H66.8195V66.5601H67.2155V70.0253H62.3365V66.5601H62.3237Z" fill="#52545C"/>
<path d="M69.4504 70.1107C69.0673 70.1107 68.7863 70.0253 68.5819 69.8666C68.3776 69.708 68.2754 69.4884 68.2754 69.22C68.2754 68.9637 68.3648 68.7685 68.5308 68.6221C68.7096 68.4757 68.9268 68.378 69.1822 68.317C69.4377 68.256 69.7314 68.2072 70.0763 68.1828C70.4211 68.1584 70.6893 68.1218 70.8681 68.0486C71.0469 67.9876 71.1363 67.8778 71.1363 67.7436C71.1363 67.4141 71.0214 67.1579 70.8043 66.9505C70.5744 66.7553 70.2934 66.6576 69.9485 66.6576C69.5909 66.6576 69.2972 66.7553 69.0545 66.9627C68.8118 67.1579 68.6713 67.4385 68.6075 67.7924H68.467C68.5053 67.5239 68.6075 67.3043 68.7352 67.1091C68.8757 66.9139 69.0545 66.7675 69.2716 66.6576C69.4887 66.5478 69.7442 66.499 70.0252 66.499C70.3189 66.499 70.5744 66.56 70.7915 66.6698C71.0214 66.7797 71.1874 66.9505 71.3152 67.1579C71.4429 67.3653 71.5067 67.6216 71.5067 67.9022V69.9032H72.0432V70.0375H71.1236V69.0857C71.0086 69.403 70.7915 69.6592 70.485 69.8422C70.1912 70.0253 69.8464 70.1107 69.4504 70.1107ZM69.5782 69.9276C69.8719 69.9276 70.1401 69.8666 70.3828 69.7324C70.6255 69.6104 70.8043 69.4274 70.9448 69.1956C71.0853 68.9637 71.1491 68.7197 71.1491 68.4391L71.1619 68.0486C71.098 68.1096 70.9959 68.1584 70.8554 68.195C70.7149 68.2316 70.5361 68.256 70.3189 68.2804C70.3062 68.2804 70.2934 68.2804 70.2806 68.2804C70.2678 68.2804 70.2551 68.2804 70.2295 68.2804C69.6931 68.3292 69.3099 68.4269 69.0673 68.5611C68.8246 68.7075 68.6969 68.9149 68.6969 69.1834C68.6969 69.4152 68.7735 69.5982 68.9395 69.7324C69.08 69.8666 69.2972 69.9276 69.5782 69.9276Z" fill="#52545C"/>
<path d="M74.853 66.5601H75.3128L76.9093 69.5982L78.4931 66.5601H78.9146V70.0253H78.5314V66.8041L76.8455 70.0253H76.705L75.0063 66.8041V70.0253H74.8658V66.5601H74.853Z" fill="#52545C"/>
<path d="M81.9288 70.0985C81.5712 70.0985 81.2519 70.0253 80.9709 69.8666C80.6772 69.708 80.4601 69.4884 80.294 69.22C80.128 68.9393 80.0386 68.6343 80.0386 68.3049C80.0386 67.9632 80.1152 67.6582 80.2812 67.3897C80.4473 67.1091 80.6772 66.9017 80.9582 66.7431C81.2519 66.5844 81.5712 66.5112 81.9288 66.5112C82.2865 66.5112 82.6058 66.5844 82.8868 66.7431C83.1805 66.9017 83.3977 67.1091 83.5637 67.3897C83.7297 67.6582 83.8064 67.9632 83.8064 68.3049C83.8064 68.3171 83.8064 68.3293 83.8064 68.3415C83.8064 68.3537 83.8064 68.3659 83.8064 68.3781H80.4473C80.4473 68.6831 80.5239 68.9637 80.6644 69.1956C80.8049 69.4396 80.9965 69.6226 81.2264 69.7446C81.4563 69.8788 81.7245 69.9399 82.0183 69.9399C82.3631 69.9399 82.6696 69.8544 82.9379 69.6958C83.2061 69.525 83.3849 69.3054 83.4871 69.0369H83.6403C83.5765 69.2566 83.4615 69.4396 83.2955 69.6104C83.1294 69.769 82.9378 69.891 82.6952 69.9887C82.4525 70.0863 82.1971 70.0985 81.9288 70.0985ZM83.4104 68.2316C83.3976 67.9144 83.321 67.6338 83.1933 67.4019C83.0656 67.1579 82.8868 66.9749 82.6696 66.8407C82.4525 66.7065 82.1971 66.6455 81.9288 66.6455C81.6479 66.6455 81.3924 66.7065 81.1753 66.8407C80.9582 66.9749 80.7794 67.1579 80.6516 67.4019C80.5239 67.646 80.4473 67.9144 80.4473 68.2072V68.2316H83.4104Z" fill="#52545C"/>
<path d="M86.4243 70.0988C86.0667 70.0988 85.7474 70.0256 85.4664 69.8792C85.1854 69.7328 84.9555 69.5253 84.8022 69.2569C84.6362 68.9885 84.5596 68.7078 84.5596 68.3906V67.5609C84.5723 67.1216 84.6617 66.7556 84.8278 66.4506C84.9938 66.1577 85.2365 65.9259 85.543 65.7795C85.8496 65.6331 86.2199 65.5598 86.6414 65.5598H87.7398V65.0962H87.8803V65.8893H86.5393C86.1305 65.8893 85.7985 65.9503 85.5175 66.0723C85.2493 66.1943 85.0449 66.3773 84.9044 66.6214C84.7639 66.8654 84.7001 67.1704 84.7001 67.5243V67.8171C84.7767 67.6097 84.9044 67.4389 85.0705 67.2803C85.2365 67.1216 85.4408 66.9996 85.6707 66.9142C85.9006 66.8288 86.1433 66.78 86.4115 66.78C86.7692 66.78 87.0885 66.8532 87.3694 66.9996C87.6504 67.146 87.8803 67.3413 88.0336 67.5975C88.1869 67.8537 88.2763 68.1344 88.2763 68.4394C88.2763 68.7566 88.1996 69.0373 88.0336 69.2935C87.8676 69.5497 87.6504 69.745 87.3694 69.8914C87.0885 70.0256 86.7691 70.0988 86.4243 70.0988ZM86.4115 69.9646C86.6925 69.9646 86.948 69.9036 87.1651 69.7694C87.3822 69.6351 87.561 69.4643 87.6887 69.2325C87.8165 69.0007 87.8803 68.7322 87.8803 68.4394C87.8803 68.1466 87.8165 67.8781 87.6887 67.6585C87.561 67.4267 87.3822 67.2559 87.1651 67.1216C86.948 66.9996 86.6925 66.9264 86.4115 66.9264C86.1305 66.9264 85.8879 66.9874 85.6707 67.1216C85.4536 67.2437 85.2748 67.4267 85.1471 67.6585C85.0194 67.8903 84.9555 68.1466 84.9555 68.4394C84.9555 68.7322 85.0194 69.0007 85.1471 69.2325C85.2748 69.4643 85.4536 69.6473 85.6707 69.7694C85.8879 69.9036 86.1433 69.9646 86.4115 69.9646Z" fill="#52545C"/>
<path d="M90.9205 70.0985C90.5629 70.0985 90.2436 70.0253 89.9626 69.8666C89.6689 69.708 89.4518 69.4884 89.2857 69.22C89.1197 68.9393 89.0303 68.6343 89.0303 68.3049C89.0303 67.9632 89.1069 67.6582 89.2729 67.3897C89.439 67.1091 89.6689 66.9017 89.9499 66.7431C90.2436 66.5844 90.5629 66.5112 90.9205 66.5112C91.2782 66.5112 91.5975 66.5844 91.8785 66.7431C92.1722 66.9017 92.3893 67.1091 92.5554 67.3897C92.7214 67.6582 92.7981 67.9632 92.7981 68.3049C92.7981 68.3171 92.7981 68.3293 92.7981 68.3415C92.7981 68.3537 92.7981 68.3659 92.7981 68.3781H89.439C89.439 68.6831 89.5156 68.9637 89.6561 69.1956C89.7966 69.4396 89.9882 69.6226 90.2181 69.7446C90.448 69.8788 90.7162 69.9399 91.01 69.9399C91.3548 69.9399 91.6613 69.8544 91.9296 69.6958C92.1978 69.525 92.3766 69.3054 92.4788 69.0369H92.632C92.5682 69.2566 92.4532 69.4396 92.2872 69.6104C92.1211 69.769 91.9295 69.891 91.6869 69.9887C91.4442 70.0863 91.2015 70.0985 90.9205 70.0985ZM92.4149 68.2316C92.4021 67.9144 92.3255 67.6338 92.1978 67.4019C92.07 67.1579 91.8912 66.9749 91.6741 66.8407C91.457 66.7065 91.2015 66.6455 90.9333 66.6455C90.6523 66.6455 90.3969 66.7065 90.1798 66.8407C89.9626 66.9749 89.7838 67.1579 89.6561 67.4019C89.5284 67.646 89.4518 67.9144 89.4518 68.2072V68.2316H92.4149Z" fill="#52545C"/>
<path d="M93.4874 70.0985C93.4236 70.0985 93.3725 70.0985 93.3086 70.0863C93.2575 70.0741 93.1937 70.0497 93.1426 70.0253V69.6836C93.1937 69.7081 93.2575 69.7325 93.3086 69.7447C93.3725 69.7569 93.4236 69.7691 93.4874 69.7691C93.6407 69.7691 93.7556 69.7325 93.8578 69.6592C93.9472 69.586 94.0239 69.4762 94.0749 69.3298C94.126 69.1834 94.1643 68.976 94.1771 68.6831C94.2027 68.3903 94.2154 68.0486 94.2154 67.646C94.2154 67.5728 94.2154 67.4874 94.2154 67.4142C94.2154 67.341 94.2154 67.2678 94.2027 67.1945L94.1771 66.5723H96.7954V70.0375H96.3995V66.7065H94.4326L94.407 67.2311C94.3815 67.829 94.3559 68.3171 94.3176 68.7197C94.2793 69.1102 94.2154 69.3908 94.1388 69.5738C94.0622 69.7691 93.9728 69.9033 93.8578 69.9887C93.7684 70.0497 93.6407 70.0985 93.4874 70.0985Z" fill="#52545C"/>
<path d="M98.2769 66.5601H98.6728V68.0242H99.503C99.9628 68.0242 100.32 68.1097 100.576 68.2927C100.831 68.4757 100.959 68.7197 100.959 69.0248C100.959 69.3298 100.831 69.5738 100.576 69.7569C100.32 69.9399 99.9628 70.0253 99.503 70.0253H98.2769V66.5601ZM99.503 69.8911C99.8351 69.8911 100.103 69.8179 100.295 69.6592C100.486 69.5128 100.576 69.2932 100.576 69.0126C100.576 68.7319 100.486 68.5245 100.295 68.3659C100.103 68.2195 99.8478 68.134 99.503 68.134H98.6728V69.8789H99.503V69.8911Z" fill="#52545C"/>
<path d="M102.339 70.0744C102.249 70.0744 102.173 70.0378 102.109 69.9768C102.045 69.9158 102.02 69.8426 102.02 69.7572C102.02 69.6718 102.058 69.5986 102.122 69.5376C102.186 69.4766 102.262 69.4522 102.352 69.4522C102.441 69.4522 102.518 69.4766 102.582 69.5376C102.645 69.5986 102.671 69.6718 102.671 69.7572C102.671 69.8426 102.645 69.9158 102.582 69.9768C102.518 70.0378 102.428 70.0744 102.339 70.0744ZM102.096 65.1816H102.556L102.377 68.6469H102.262L102.096 65.1816Z" fill="#52545C"/>
<path d="M18.4385 51.8212L7.90145 34.373H2.20508V58.1782H7.32671V42.6945L16.6759 58.1782H20.2393L29.5758 42.6945V58.1782H34.6974V34.373H29.001L18.4385 51.8212Z" fill="#52545C"/>
<path d="M98.9922 34.373L88.4297 51.8212L77.931 34.4341L77.9054 34.373H72.1963V58.1782H77.3179V42.6945L86.6288 58.1172L86.6671 58.1782H90.2305L99.5798 42.6945V58.1782H104.689V34.373H98.9922Z" fill="#52545C"/>
<path d="M38.0308 61.8387H43.1396V56.2504H63.6006V61.8387H68.7222V51.6992H38.0308V61.8387Z" fill="#52545C"/>
</g>
<defs>
<clipPath id="clip0_80_52642">
<rect width="114.119" height="70" fill="white" transform="translate(0.94043 0.77002)"/>
</clipPath>
</defs>
</svg>
