<svg width="30" height="22" viewBox="0 0 30 22" fill="none" xmlns="http://www.w3.org/2000/svg">
<path d="M18.1001 6.34016L23.084 6.17625C24.923 6.11577 26.4646 7.55921 26.5251 9.39822C26.5856 11.2372 25.1422 12.7788 23.3032 12.8393L18.3192 13.0032C19.4516 14.5802 21.3119 15.5729 23.3908 15.5045C26.709 15.3954 29.2995 12.6288 29.1904 9.31057C29.0812 5.99236 26.3146 3.4019 22.9964 3.51102C20.9175 3.57939 19.1264 4.69219 18.1001 6.34016ZM12.3613 19.656L15.174 13.5069C15.2599 13.2773 15.3053 13.0356 15.297 12.7824L15.2637 11.7697L23.2593 11.5067C24.3654 11.4703 25.2289 10.5481 25.1925 9.44204C25.1561 8.33597 24.2339 7.47249 23.1279 7.50886L8.81559 7.97954C9.67061 3.14883 9.65991 3.22923 9.65421 3.05599C9.64063 2.64288 9.45512 2.27544 9.17983 2.01768L8.07912 0.99998L1.71251 7.79958C1.36453 8.17122 1.15464 8.68507 1.17261 9.23144L1.47019 18.2799C1.50305 19.2793 2.26141 20.0281 3.23904 20.1427L10.2948 20.9112C10.3885 20.9215 10.4822 20.9318 10.5622 20.9291C11.3884 20.902 12.0914 20.3719 12.3613 19.656Z" fill="#52545C"/>
</svg>
