<svg width="38" height="38" viewBox="0 0 38 38" fill="none" xmlns="http://www.w3.org/2000/svg">
<path d="M18.9 37.1223C13.9 37.1223 9 37.1223 4 37.1223C2.1 37.1223 0.5 35.5223 0.5 33.6223C0.5 23.6223 0.5 13.7223 0.5 3.72228C0.5 2.12228 1.8 0.622276 3.4 0.322276C13.5 0.222276 23.7 0.322276 33.8 0.322276C35.3 0.322276 37.3 1.72228 37.3 3.22228C37.3 13.5223 37.3 23.4223 37.3 33.6223C37.3 35.5223 35.7 37.1223 33.8 37.1223C28.9 37.1223 23.9 37.1223 18.9 37.1223ZM19.1 31.9223C25.8 32.0223 31.9 26.3223 32.3 19.6223C33 12.2223 26.9 5.42228 19.5 5.22228C11.9 4.82228 5.1 11.7223 5.7 19.3223C5.8 21.3223 6.5 23.3223 7.3 25.1223C7.1 26.6223 6.9 28.0223 6.7 29.5223C6.6 30.2223 6.5 30.9223 6.4 31.6223C6.4 31.8223 6.5 31.9223 6.7 31.9223C8.8 31.5223 10.9 31.1223 13.1 30.7223C13.8 30.8223 14.5 31.3223 15.3 31.4223C16.5 31.8223 17.7 32.0223 19.1 31.9223Z" fill="#616161"/>
<path d="M19.1 31.9222C17.7 31.9222 16.5 31.7222 15.2 31.4222C14.6 31.2222 14 31.0222 13.4 30.7222C13.3 30.6222 13.2 30.6222 13 30.6222C12.3 30.7222 11.6 30.9222 10.9 31.0222C9.89995 31.2222 8.99995 31.4222 7.99995 31.6222C7.49995 31.7222 7.09995 31.8222 6.59995 31.9222C6.39995 31.9222 6.29995 31.9222 6.29995 31.6222C6.39995 30.9222 6.49995 30.2222 6.59995 29.5222C6.69995 28.9222 6.79995 28.2222 6.89995 27.6222C6.99995 26.8222 7.09995 25.9222 7.19995 25.1222C7.19995 25.0222 7.19995 25.0222 7.19995 24.9222C6.69995 24.0222 6.39995 23.1222 6.09995 22.2222C5.89995 21.3222 5.69995 20.3222 5.69995 19.3222C5.69995 18.6222 5.69995 17.9222 5.69995 17.3222C5.79995 16.4222 5.99995 15.5222 6.29995 14.6222C6.79995 13.0222 7.49995 11.7222 8.49995 10.4222C9.39995 9.22217 10.5 8.22217 11.8 7.42217C12.6 6.92217 13.3 6.52217 14.2 6.22217C15.2 5.82217 16.3 5.52217 17.4 5.42217C18.1 5.32217 18.8 5.22217 19.5 5.22217C20.3 5.22217 21.2 5.32217 22 5.52217C23.2999 5.82217 24.6 6.32217 25.7 7.02217C26.6 7.52217 27.4 8.12217 28.1 8.82217C29.2 9.82217 30.0999 11.0222 30.7999 12.3222C31.2999 13.2222 31.6 14.1222 31.9 15.0222C32.1 15.7222 32.1999 16.4222 32.2999 17.2222C32.4 18.0222 32.4 18.8222 32.2999 19.6222C32.1999 20.2222 32.2 20.7222 32.1 21.3222C32 21.9222 31.8 22.6222 31.6 23.2222C31.1 24.5222 30.5 25.7222 29.6 26.8222C28.5 28.2222 27.1 29.4222 25.5 30.3222C24.2999 31.0222 23.0999 31.4222 21.7999 31.7222C20.7999 31.9222 20 32.0222 19.1 31.9222ZM30.1 18.6222C30.1 17.7222 30 16.8222 29.7999 16.0222C29.5999 15.1222 29.1999 14.2222 28.7999 13.4222C28.0999 12.2222 27.2999 11.1222 26.2999 10.2222C25.6999 9.72217 25 9.22217 24.2999 8.82217C23.0999 8.12217 21.7 7.72217 20.3 7.62217C19.2 7.52217 18.1 7.52217 17.1 7.72217C16.4 7.82217 15.6 8.12217 14.9 8.32217C13.7 8.82217 12.7 9.52217 11.7 10.3222C10.9 11.0222 10.2 11.8222 9.69995 12.8222C8.89995 14.1222 8.39995 15.5222 8.19995 17.0222C8.09995 17.9222 8.09995 18.8222 8.19995 19.7222C8.29995 20.6222 8.49995 21.4222 8.79995 22.2222C9.09995 22.9222 9.39995 23.6222 9.79995 24.3222C9.89995 24.4222 9.89995 24.5222 9.89995 24.6222C9.59995 25.3222 9.49995 25.9222 9.49995 26.5222C9.39995 27.3222 9.29995 28.1222 9.19995 28.9222C9.19995 29.1222 9.19995 29.1222 9.39995 29.1222C9.79995 29.0222 10.1 29.0222 10.5 28.9222C11.5 28.7222 12.4 28.5222 13.4 28.3222C13.5 28.3222 13.6 28.3222 13.7 28.3222C13.8 28.4222 14 28.4222 14.1 28.5222C15.2 29.1222 16.4 29.4222 17.6 29.6222C18.4 29.7222 19.3 29.7222 20.1 29.6222C20.9 29.5222 21.5999 29.4222 22.2999 29.2222C23.2999 28.9222 24.2 28.5222 25.1 27.9222C26.1 27.2222 27 26.4222 27.7 25.5222C28.8 24.1222 29.5 22.5222 29.9 20.8222C30 20.0222 30.1 19.3222 30.1 18.6222Z" fill="#FEFEFE"/>
<path d="M30.1 18.6222C30.2 24.1222 25.6 29.1222 20.1 29.6222C18 29.8222 16 29.4222 14.1 28.5222C13.9 28.4222 13.6 28.2222 13.4 28.3222C12.1 28.6222 10.7 28.8222 9.39996 29.1222C9.19996 29.1222 9.09996 29.1222 9.19996 28.9222C9.19996 28.0222 9.29996 27.3222 9.49996 26.5222C9.99996 23.7222 9.49996 24.8222 8.69996 22.3222C7.59996 19.2222 7.99996 15.7222 9.69996 12.9222C15.5 3.42217 29.9 7.52217 30.1 18.6222ZM22.6 25.1222C24.2 25.2222 25.8 24.0222 25.7 22.3222C25.8 21.8222 24 21.1222 23.6 20.8222C21.9 19.7222 22.2 20.7222 20.9 21.8222C20.5 22.4222 19.3 21.3222 18.8 21.1222C17.5 20.2222 16.6 19.0222 15.8 17.7222C15.4 17.0222 16.6 16.6222 16.8 16.0222C17.1 15.5222 16.7 15.0222 16.6 14.5222C16.4 13.9222 16.2 13.3222 15.9 12.6222C15.7 12.0222 15 12.0222 14.5 12.0222C13.7 12.0222 13.1 12.8222 12.7 13.5222C11.1 16.6222 14.3 20.3222 16.4 22.4222C18.1 23.7222 20.5 25.0222 22.6 25.1222Z" fill="#616161"/>
<path d="M22.6001 25.1224C22.0001 25.1224 21.3001 24.9224 20.7001 24.7224C20.0001 24.4224 19.2001 24.1224 18.5001 23.8224C17.8001 23.4224 17.1001 22.9224 16.5001 22.3224C15.3001 21.2224 14.4001 20.0224 13.6001 18.7224C13.2001 18.1224 12.9001 17.4224 12.6001 16.7224C12.2001 15.6224 12.2001 14.5224 12.8001 13.4224C13.1001 12.8224 13.5001 12.4224 14.0001 12.0224C14.2001 11.9224 14.3001 11.9224 14.5001 11.9224C14.7001 11.9224 15.0001 11.9224 15.2001 11.9224C15.6001 11.9224 15.8001 12.1224 15.9001 12.5224C16.1001 13.1224 16.3001 13.7224 16.6001 14.4224C16.7001 14.7224 16.8001 14.9224 16.9001 15.2224C17.0001 15.5224 17.0001 15.7224 16.8001 15.9224C16.6001 16.3224 16.2001 16.6224 15.9001 16.9224C15.7001 17.1224 15.6001 17.3224 15.8001 17.6224C16.5001 19.0224 17.5001 20.2224 18.8001 21.0224C19.3001 21.3224 19.8001 21.6224 20.3001 21.8224C20.6001 21.9224 20.7001 21.9224 20.9001 21.7224C21.3001 21.3224 21.7001 20.9224 22.1001 20.4224C22.2001 20.2224 22.4001 20.2224 22.6001 20.2224C22.9001 20.3224 23.3001 20.5224 23.6001 20.7224C24.2001 21.0224 24.8001 21.4224 25.4001 21.7224C25.6001 21.8224 25.7001 22.0224 25.7001 22.2224C25.6001 22.9224 25.5001 23.7224 24.9001 24.2224C24.2001 24.8224 23.5001 25.1224 22.6001 25.1224Z" fill="#FEFEFE"/>
</svg>
