<svg width="92" height="58" viewBox="0 0 92 58" fill="none" xmlns="http://www.w3.org/2000/svg">
<path d="M3.77534 46.3013C3.77534 49.8963 3.77534 53.3531 3.77534 57.0173C2.66917 57.0173 1.80497 57.0173 0.698798 57.0173C0.66423 56.2568 0.560527 55.5309 0.560527 54.7704C0.560527 49.1013 0.456823 43.4321 0.595095 37.763C0.767934 31.8865 2.94571 27.0815 3.98275 25.284C4.81238 23.9013 5.19263 22.6223 5.22719 21.2395C5.36547 15.4321 5.29633 9.59016 5.29633 3.78276C5.29633 2.88399 5.29633 1.95066 5.29633 0.879051C6.4025 0.879051 7.2667 0.879051 8.26917 0.879051C8.3383 1.81238 8.44201 2.64201 8.51114 3.60992C24.1013 3.60992 39.6223 3.60992 55.2469 3.60992C55.3507 2.78029 55.4889 1.88152 55.6272 0.844482C56.5605 0.844482 57.4593 0.844482 58.6346 0.844482C58.6346 2.53831 58.6346 4.163 58.6346 5.75312C58.6346 10.0395 58.6692 14.2914 58.6346 18.5778C58.6 21.3778 58.5655 23.9704 60.605 26.3556C62.2642 28.2914 63.5432 34.6519 63.405 38.8692C63.1976 44.8149 63.3358 50.7951 63.3358 56.9482C62.2642 56.9482 61.4 56.9482 60.2247 56.9482C60.2247 53.4568 60.2247 49.8963 60.2247 46.2321C41.3161 46.3013 22.6494 46.3013 3.77534 46.3013ZM59.7062 33.7531C59.4642 27.6 56.3877 24.247 50.5111 24.247C38.0321 24.247 25.5186 24.2124 13.0395 24.247C7.47411 24.247 4.43213 28.0494 5.64201 33.5112C23.2025 33.4766 42.0074 33.7531 59.7062 33.7531ZM3.91361 36.8988C3.91361 39.0766 3.91361 40.9778 3.91361 42.9136C22.7186 42.9136 41.3161 42.9136 60.0173 42.9136C60.0173 40.8395 60.0173 38.8692 60.0173 36.8988C41.2124 36.8988 22.6148 36.8988 3.91361 36.8988ZM33.5383 20.963C33.5383 19.442 33.5037 18.2321 33.5383 16.9877C33.6074 13.4963 35.3704 11.6988 38.8963 11.6642C41.6272 11.6297 44.3235 11.6297 47.0544 11.6642C50.5457 11.6988 52.2741 13.4618 52.3432 17.0223C52.3778 18.3013 52.3432 19.6149 52.3432 20.9284C53.484 21.1704 54.3828 21.3778 55.2815 21.5852C55.2815 16.642 55.2815 11.8716 55.2815 7.13584C39.5877 7.13584 24.1013 7.13584 8.54571 7.13584C8.54571 11.9753 8.54571 16.642 8.54571 21.6198C9.65189 21.3778 10.5852 21.1704 11.5877 20.9284C11.5877 19.4766 11.5877 18.2667 11.5877 17.0223C11.6568 13.5655 13.4544 11.7334 16.9457 11.6988C19.6766 11.6642 22.3729 11.6642 25.1037 11.6988C28.5951 11.7679 30.3235 13.5309 30.3581 17.0568C30.3926 18.3358 30.3581 19.6149 30.3581 20.9976C31.5679 20.963 32.3976 20.963 33.5383 20.963ZM27.2815 20.963C27.2815 19.4074 27.5235 18.0593 27.1778 16.8494C26.9704 16.0544 25.9679 14.9828 25.242 14.9136C22.4074 14.7062 19.5383 14.7408 16.6692 14.8791C16.0124 14.9136 14.9753 15.7778 14.8371 16.4C14.5605 17.8519 14.7334 19.4074 14.7334 20.963C19.0544 20.963 22.9951 20.963 27.2815 20.963ZM49.2667 20.9284C49.2667 19.5457 49.2321 18.405 49.2667 17.2642C49.3358 15.4667 48.5062 14.7408 46.7432 14.8099C45.1185 14.879 43.4939 14.8099 41.8692 14.8099C36.3729 14.8099 36.3729 14.8099 36.7531 20.3753C36.7531 20.5136 36.8568 20.6519 36.9951 20.9284C40.9358 20.9284 44.9111 20.9284 49.2667 20.9284Z" fill="#52545C"/>
<path d="M66.6199 57.1209C66.6199 48.237 66.6199 39.5605 66.6199 30.5728C68.8322 30.5728 70.9409 30.5728 73.4643 30.5728C71.3211 25.1802 74.0174 21.6888 77.8199 18.6123C77.647 18.4395 77.4742 18.2666 77.3014 18.1284C74.8125 18.1284 72.289 18.1284 69.4544 18.1284C70.1112 12.7703 70.7335 7.72342 71.3902 2.50366C76.4026 2.50366 81.4149 2.50366 86.7384 2.50366C87.3606 7.51601 88.0174 12.6321 88.6742 18.0247C85.8742 18.0247 83.3162 18.0247 80.7927 18.0247C80.5853 18.1975 80.3779 18.3358 80.1705 18.5086C83.9384 21.6888 86.8767 25.1802 84.5952 30.6074C87.1186 30.6074 89.2618 30.6074 91.4742 30.6074C91.4742 39.6296 91.4742 48.3407 91.4742 57.1901C83.1433 57.1209 75.0199 57.1209 66.6199 57.1209ZM69.7656 44.7456C69.7656 47.9259 69.7656 50.8987 69.7656 53.9061C76.0223 53.9061 82.1063 53.9061 88.294 53.9061C88.294 50.795 88.294 47.8222 88.294 44.7456C82.1063 44.7456 76.0915 44.7456 69.7656 44.7456ZM88.294 41.3926C88.294 38.8691 88.294 36.3456 88.294 33.7185C82.1063 33.7185 76.0223 33.7185 69.8001 33.7185C69.8001 36.3111 69.8001 38.8 69.8001 41.3926C76.0223 41.3926 82.0717 41.3926 88.294 41.3926ZM85.0791 14.8098C84.6989 11.5605 84.3186 8.62218 83.973 5.61477C80.5853 5.61477 77.3705 5.61477 74.1211 5.61477C73.7409 8.72588 73.3952 11.595 73.0149 14.6716C73.9483 14.7407 74.6396 14.7753 75.2964 14.8098C78.4767 14.8444 81.6223 14.8098 85.0791 14.8098ZM79.0298 21.8963C75.8149 24.7308 74.9853 27.4963 76.7483 29.4321C77.9581 30.7456 80.0668 30.7802 81.2767 29.4666C83.0742 27.5654 82.21 24.6617 79.0298 21.8963Z" fill="#52545C"/>
<path d="M82.037 46.3359C82.037 47.3038 82.037 48.2026 82.037 49.2051C80.032 49.2051 78.1308 49.2051 76.0913 49.2051C76.0913 48.2717 76.0913 47.373 76.0913 46.3359C77.9925 46.3359 79.9629 46.3359 82.037 46.3359Z" fill="#52545C"/>
<path d="M76.126 35.3779C78.0963 35.3779 79.9976 35.3779 82.0371 35.3779C82.0371 36.3113 82.0371 37.1409 82.0371 38.1434C80.1359 38.1434 78.2346 38.1434 76.126 38.1434C76.126 37.3483 76.126 36.4841 76.126 35.3779Z" fill="#52545C"/>
</svg>
