<svg width="98" height="92" viewBox="0 0 98 92" fill="none" xmlns="http://www.w3.org/2000/svg">
<path d="M89.3704 0.903076V15.2946H75.5432V0.903076H69.4409V15.2946H23.9383C25.1376 14.2717 25.9841 13.1429 26.5132 11.8025C26.6543 11.4145 26.6543 10.8502 26.5132 10.4622C25.9841 9.12177 25.1023 7.92248 23.8677 6.93482C19.6702 3.51331 12.7213 3.6544 8.62963 7.21701C8.59436 7.25228 8.55909 7.25228 8.55909 7.28756V0.903076H0.763672V84.7126H8.62963V83.2311C9.08819 83.8308 9.51147 84.4304 10.0053 84.9595C10.8519 85.8766 11.6631 86.5468 12.4392 87.1112C16.425 89.8625 21.1517 90.7796 26.478 89.8978C30.9224 89.1571 34.4497 87.0406 36.9189 83.5839C37.8007 82.3846 38.4356 81.1147 38.8236 79.7391L38.9295 79.4216L37.6596 78.9278C36.7425 78.575 35.8607 78.2223 35.0141 77.8696C34.8025 77.799 34.7319 77.7285 34.6967 77.7285C34.3086 76.4234 33.9559 75.1182 33.6032 73.7426L33.4268 73.0724H58.6473C57.1658 76.7761 57.3774 80.8325 59.2469 84.2893C61.187 87.8519 64.679 90.3563 68.5944 90.956C69.3704 91.0618 70.1111 91.1324 70.8166 91.1324C73.6737 91.1324 76.284 90.2152 78.612 88.4163C82.2804 85.5239 83.9735 81.6086 83.6208 76.7056H89.3704V84.7831H97.2011V0.903076H89.3704ZM89.3704 19.5274C89.3704 19.6332 89.3704 19.7038 89.3704 19.8096H75.6138V17.799C75.7549 17.799 75.8959 17.799 76.037 17.799C77.2363 17.799 78.4709 17.799 79.6702 17.799C82.7037 17.799 85.843 17.799 88.9118 17.799C89.2293 17.799 89.3351 17.8343 89.3351 17.8696C89.3351 17.8696 89.4056 17.9401 89.3704 18.2223C89.3351 18.6456 89.3704 19.0689 89.3704 19.5274ZM23.4092 10.0036L23.515 10.1447C23.8677 10.6385 24.1146 10.956 24.1499 11.1324C24.1499 11.2734 23.9735 11.5204 23.6561 11.9436C23.5855 12.0495 23.4797 12.1553 23.4092 12.2964C22.0688 14.06 20.1287 15.0477 17.448 15.2946C14.6261 15.5415 12.3333 14.9066 10.4991 13.3546C10.0758 13.0018 9.72311 12.5433 9.37037 12.0495C9.19401 11.8378 9.05291 11.6262 8.87655 11.4145C8.73545 11.2382 8.70018 11.0971 8.91182 10.7443C10.2169 8.59267 12.2628 7.3581 15.1552 6.9701C15.4374 6.93482 15.7196 6.93482 16.0018 6.89955C16.1429 6.89955 16.2487 6.89955 16.3898 6.86428C19.6702 7.04064 21.8924 8.0283 23.4092 10.0036ZM73.1094 20.0918C73.1094 21.8555 73.1446 26.0177 73.1094 26.5468C73.0741 28.381 73.1094 32.0142 73.1094 32.0495L73.0388 38.3281V51.0265C73.0388 51.0265 73.1094 51.5556 73.1094 51.8378C73.1094 52.4375 73.1094 53.0371 73.1094 53.6368C73.1094 54.8361 73.1093 56.1059 73.1446 57.3405V57.5168C73.2152 61.3616 73.2152 64.113 73.0741 65.3475C72.933 65.3123 72.7566 65.3122 72.6155 65.277C72.4392 65.2417 72.2275 65.2417 72.0159 65.2064V3.33694C72.0864 3.33694 72.157 3.33694 72.2275 3.33694C72.545 3.33694 72.8624 3.30167 73.1446 3.33694C73.1446 4.14823 73.1446 6.15881 73.1446 7.11119V13.2135L73.1094 20.0918ZM74.6967 23.4428V22.3846H90.2169V23.4428H74.6967ZM89.3351 26.0177V32.508H75.6138V26.0177H89.3351ZM75.5432 64.2893C75.5432 64.1835 75.5432 64.113 75.5432 64.0071H89.3351V70.5327C89.2998 70.5327 89.2645 70.5327 89.2293 70.5327H88.0653C85.9489 70.5327 83.7266 70.5327 81.5397 70.5327C81.3986 70.5327 81.1517 70.3916 81.0459 70.2505C79.6349 68.4516 77.8713 67.0759 75.7901 66.1235C75.6843 66.0883 75.5432 65.8766 75.5432 65.7355C75.5432 65.277 75.5432 64.7832 75.5432 64.2893ZM63.3034 70.6033C65.2787 68.628 67.8889 67.5697 70.6402 67.5697C70.6755 67.5697 70.6755 67.5697 70.7108 67.5697C76.5309 67.605 81.2928 72.3317 81.2928 78.1165C81.2928 80.9031 80.1993 83.5486 78.1887 85.5239C76.1781 87.4992 73.5679 88.5927 70.7813 88.5927C70.7813 88.5927 70.7813 88.5927 70.746 88.5927C67.9242 88.5927 65.2787 87.4992 63.3034 85.4886C61.328 83.478 60.2346 80.8325 60.2346 78.0107C60.1993 75.2241 61.2928 72.6138 63.3034 70.6033ZM8.59436 62.5257C8.59436 62.2435 8.62963 62.1729 8.62963 62.1729C8.66491 62.1376 8.73545 62.1024 9.01764 62.1024H9.05291C11.1693 62.1376 13.321 62.1376 15.3668 62.1024H20.3404C22.2099 62.1024 24.1146 62.1024 25.9841 62.1024C26.0194 62.1024 26.0547 62.1024 26.09 62.1024C25.1728 63.09 23.8325 63.3017 20.7989 63.09L20.3404 63.0548L20.9753 65.9824C20.8695 65.9824 20.7284 66.0177 20.6226 66.0177C20.4815 66.0177 20.3051 66.053 20.164 66.053C19.8113 66.0883 19.4233 66.0883 19.0353 66.1941C17.5891 66.5821 16.284 66.8643 14.8377 66.1588C13.709 65.5944 12.4392 65.9472 11.0988 67.1817C10.6402 67.605 10.1111 68.0636 9.51147 68.4163C9.29983 68.5574 9.01764 68.5927 8.70018 68.6632C8.66491 68.6632 8.62963 68.6632 8.59436 68.6985V66.2294C8.59436 65.8766 8.59436 65.5239 8.59436 65.1359C8.59436 64.2893 8.62963 63.4075 8.59436 62.5257ZM30.6402 72.1553C31.2046 74.4128 31.7337 76.4234 32.3686 78.4692C32.5097 78.9631 32.4744 79.3158 32.157 79.7391C31.9453 79.4569 31.769 79.1747 31.5573 78.8925C30.7813 77.8343 30.0758 76.8466 29.3704 75.7884C29.0176 75.2593 28.5944 75.0477 27.9594 75.0477C24.5026 75.0124 21.6102 74.3422 19.0353 73.0724L18.7884 72.9313L13.5679 79.6332C13.2504 79.1747 13.2152 78.7514 13.4268 78.2223C14.1323 76.3175 14.873 74.2717 15.4374 72.1553C16.0723 69.8978 17.5538 68.769 20.2346 68.5221C21.575 68.4163 22.8448 68.6985 24.1852 68.9807C24.679 69.0865 25.2081 69.1923 25.7372 69.2981C26.3016 69.404 26.866 69.404 27.4303 68.9454C28.3122 68.2047 29.194 67.4639 30.0758 66.7232L30.9577 65.9824L33.2504 66.7585C33.2504 66.7937 33.2152 66.829 33.2152 66.8643C33.0741 67.217 32.933 67.605 32.7566 67.9578C32.4392 68.4869 32.0864 69.0512 31.769 69.5803C31.4868 70.0389 31.1693 70.5327 30.8871 71.0265C30.6755 71.2735 30.5697 71.7673 30.6402 72.1553ZM8.94709 53.284H8.66491V53.0371L8.94709 53.284ZM69.4762 32.12C69.4762 32.4022 69.4409 32.4727 69.4409 32.508C69.4409 32.508 69.3704 32.5786 69.0882 32.5786C53.5679 32.5786 38.0476 32.5786 22.5626 32.5786C20.9753 32.5786 19.388 32.5786 17.8007 32.5786H8.62963C8.62963 32.4375 8.59436 32.2964 8.59436 32.1906C8.59436 30.0389 8.59436 27.8872 8.59436 25.7003V24.2188H69.4762C69.4762 24.2893 69.4762 24.3951 69.4762 24.4657C69.4762 25.277 69.4762 26.1235 69.4762 26.9348C69.4762 28.6279 69.4762 30.3916 69.4762 32.12ZM11.134 70.2858C11.8395 69.7214 12.545 69.1218 13.321 68.6279C13.6385 68.4163 14.0265 68.381 14.4497 68.5221C13.2857 69.8272 11.9453 70.568 10.8166 70.5327C10.9224 70.4622 11.0282 70.3916 11.134 70.2858ZM8.59436 56.2117C8.59436 55.9295 8.62963 55.859 8.62963 55.859C8.66491 55.8237 8.73545 55.7884 9.05291 55.7884C13.9559 55.7884 18.9295 55.7884 23.7619 55.7884H28.2064C27.3245 56.8819 26.9365 58.1518 26.9718 59.6685C26.8307 59.6685 26.6896 59.6685 26.5485 59.6685H22.0335C17.8007 59.6685 13.3915 59.6685 9.08819 59.7038C8.77073 59.7038 8.70018 59.6685 8.66491 59.6332C8.62963 59.598 8.59436 59.5274 8.62963 59.21C8.62963 58.187 8.62963 57.1641 8.59436 56.2117ZM34.0265 57.023C32.3686 56.8466 30.7813 57.5168 29.7937 58.822C29.6526 58.9983 29.5467 59.1747 29.4409 59.3863C29.5115 57.9754 30.1111 56.9877 31.381 56.3881C32.1217 56.0354 32.8272 55.8237 33.5326 55.8237C34.2028 55.8237 34.873 56.0001 35.5432 56.3528C35.1199 56.7761 34.7672 57.0936 34.0265 57.023ZM28.9471 64.3246L28.6296 64.6068C27.8889 65.277 27.1481 65.9824 26.3721 66.6174C26.231 66.7232 25.8078 66.7232 25.6667 66.7232C25.5608 66.7232 25.4198 66.6879 25.2787 66.6526C25.1023 66.6174 24.9259 66.5468 24.7496 66.5468C24.1852 66.5468 23.8677 66.2646 23.6208 65.7355C23.7972 65.7003 23.9735 65.665 24.1499 65.5944C24.8201 65.4181 25.4903 65.277 26.09 64.9948C27.3951 64.4304 28.3122 63.6191 28.8413 62.5609C28.8765 62.8784 28.9824 63.1606 29.0882 63.4428C29.2646 63.9366 29.1587 64.113 28.9471 64.3246ZM32.7213 59.598C33.0035 59.4921 33.2857 59.4216 33.6032 59.4216C34.3792 59.4216 35.1199 59.7743 35.5785 60.4445C35.7549 60.6914 35.7549 60.7973 35.6138 61.1147C35.3316 61.6438 35.1552 62.2787 35.1552 62.8431C35.1552 63.8308 35.1199 63.866 34.2381 64.113C34.097 64.1482 33.9206 64.1835 33.8148 64.1835C33.7795 64.1835 33.7443 64.1835 33.7443 64.1835C32.4744 64.1835 31.4868 63.3722 31.2751 62.1729C31.0635 61.15 31.6984 60.0212 32.7213 59.598ZM38.7884 55.859H69.5115V56.4586C69.5115 57.5168 69.5115 58.5045 69.4762 59.5274C69.4409 59.5627 69.3351 59.6685 69.2998 59.6685C69.0529 59.7038 68.7707 59.7038 68.4885 59.7038C68.3827 59.7038 68.2416 59.7038 68.1358 59.7038H62.3157C60.6931 59.7038 59.0353 59.7038 57.4127 59.7038C51.2399 59.7038 44.9612 59.7038 38.7531 59.7038C38.1182 59.7038 37.9065 59.598 37.6949 59.1747C37.5538 58.8925 37.3422 58.6456 37.1305 58.3987C37.0952 58.3634 37.06 58.3281 37.0247 58.2929L39.2469 56.3528L38.7884 55.859ZM37.5891 62.7373C37.5891 62.5257 37.6243 62.2435 38.1182 62.1376C38.2945 62.1376 38.4356 62.2082 38.5414 62.314C38.6473 62.4198 38.7178 62.5609 38.7178 62.702C38.7178 62.8784 38.6473 63.0195 38.5414 63.1606C38.4709 63.2311 38.3651 63.3017 38.1887 63.3017C37.6596 63.2664 37.5891 62.9842 37.5891 62.7373ZM69.4409 53.284H23.9383C24.1499 53.1077 24.3263 52.9313 24.4674 52.7197C25.2787 51.6615 25.9136 50.7444 26.4074 49.8978C26.6543 49.4745 26.6191 48.769 26.4427 48.381C25.067 45.3123 22.5626 43.4075 19 42.7373C14.9436 41.9613 11.5573 42.7726 8.66491 45.1712V35.0124H69.4409V53.284ZM10.0053 47.3934C11.9453 45.3475 14.6261 44.6068 18.1182 45.0653C20.6226 45.4181 22.5626 46.5821 23.8325 48.5927C24.1146 49.016 24.1146 49.2629 23.8677 49.6509C22.4568 51.8378 20.3404 53.0018 17.3069 53.3193C17.1305 53.3546 16.9189 53.3193 16.7072 53.3193C16.6014 53.3193 16.4956 53.3193 16.3898 53.3193C13.5326 53.3193 11.4868 52.5433 10.0053 50.9207C9.15873 50.0389 8.70018 49.5098 8.70018 49.1218C8.70018 48.7338 9.19401 48.2399 10.0053 47.3934ZM15.2258 81.5027L15.9312 80.5856C17.06 79.1394 18.224 77.6227 19.388 76.1412C19.4233 76.1059 19.5996 76.0354 19.6349 76.0706C21.9982 76.9172 24.5732 77.411 27.254 77.5168C27.3598 77.5168 27.5714 77.6227 27.642 77.7285C28.3827 78.7514 29.1587 79.8096 29.8642 80.8325L30.3933 81.5733C28.9118 83.0548 26.231 84.0071 23.2681 84.0777C20.0582 84.1835 17.1305 83.2311 15.2258 81.5027ZM34.6614 69.5803C35.1199 68.381 35.6138 67.217 36.0723 66.053C36.2134 65.7003 36.7778 65.4533 37.1658 65.5944C38.1887 65.9119 39.2822 65.7355 40.0935 65.0653C40.9048 64.3951 41.2928 63.3369 41.1517 62.2787V62.2082H69.5115C69.5115 62.3493 69.5115 62.5257 69.5115 62.6667C69.5115 63.478 69.5115 64.2541 69.4762 65.0653C69.4056 65.1359 69.2645 65.2064 69.194 65.2064C65.7372 65.665 62.9506 67.1817 60.8342 69.7214C60.3051 70.3563 59.8113 70.568 58.9295 70.568C58.9295 70.568 58.9295 70.568 58.8942 70.568C54.4497 70.5327 49.9347 70.5327 45.4903 70.5327C43.6561 70.5327 41.8571 70.5327 40.0582 70.5327H34.2734L34.6614 69.5803ZM8.62963 73.0371H12.545L12.4744 73.2135C12.3333 73.672 12.1922 74.1306 12.0511 74.5539C12.0159 74.695 11.9453 74.8361 11.9101 74.9419C11.8042 75.2593 11.6631 75.5768 11.6279 75.9295C11.4515 77.6579 10.3228 78.187 8.62963 78.6456V73.0371ZM10.1464 80.762C10.4638 80.6209 10.7813 80.4798 11.0282 80.4093C11.0635 80.4093 11.134 80.4445 11.1693 80.4445C13.709 84.6421 17.7654 86.6526 23.515 86.5116C27.3598 86.441 30.4991 85.1359 32.8977 82.702C33.5326 82.0671 34.0265 81.2911 34.4497 80.6209C34.6614 80.3034 34.6614 80.3034 34.873 80.4445C35.1199 80.5856 35.4021 80.6914 35.649 80.762C34.3086 84.2188 29.2293 87.3228 24.3616 87.6403C17.836 88.0636 12.4039 85.4181 10.0406 80.762C10.1111 80.762 10.1464 80.762 10.1464 80.762ZM8.59436 21.6438V21.0442C8.59436 19.986 8.59436 18.963 8.62963 17.9401C8.66491 17.9048 8.77073 17.8343 8.84127 17.799C8.87655 17.799 8.94709 17.799 9.01764 17.799C9.08819 17.799 9.15873 17.799 9.19401 17.799H68.8413C69.0882 17.799 69.3704 17.799 69.4409 17.8343C69.4762 17.9401 69.4762 18.2223 69.4762 18.4692V21.6438H8.59436ZM8.66491 15.2946V15.0477L8.94709 15.2946H8.66491ZM90.2522 73.0371V74.1306C90.0758 74.1306 89.9347 74.1659 89.7584 74.1659C89.1235 74.1659 88.5238 74.1659 87.8889 74.1659C86.5132 74.1659 85.1023 74.1659 83.6914 74.2011C83.127 74.2364 82.9859 74.0953 82.9153 73.7073C82.8801 73.4957 82.8095 73.284 82.7037 73.0724H90.2522V73.0371ZM89.3351 55.8237V57.7638H75.6138V55.8237H89.3351ZM89.3704 53.0018C89.3704 53.0724 89.3704 53.1782 89.3704 53.2488H75.5785V51.2734C75.7196 51.2734 75.8959 51.2734 76.037 51.2734H79.5996C82.6684 51.2734 85.8078 51.2734 88.9118 51.2734C89.2645 51.2734 89.3351 51.3087 89.3351 51.344C89.3351 51.344 89.4056 51.4145 89.3704 51.6967C89.3704 52.12 89.3704 52.5433 89.3704 53.0018ZM90.2522 60.374V61.4322H74.6967V60.374H90.2522ZM89.3704 45.1006C89.3704 45.1359 89.3704 45.1712 89.3704 45.2064C89.3351 45.2064 89.2293 45.2064 89.194 45.2064C89.1235 45.2064 89.0882 45.2064 89.0176 45.2064C85.8078 45.2064 82.5979 45.2064 79.388 45.2064H75.5785V38.6809H89.3704V40.2329C89.3704 41.8555 89.3704 43.478 89.3704 45.1006ZM90.2522 47.7108V48.769H74.6967V47.7108H90.2522ZM74.6967 36.1059V35.0477H90.2522V36.1059H74.6967ZM3.16226 3.83077C3.16226 3.47803 3.19753 3.40749 3.23281 3.37221C3.23281 3.37221 3.33863 3.30167 3.62081 3.33694C4.25574 3.37221 4.89066 3.37221 5.56085 3.37221C5.73722 3.37221 5.91358 3.37221 6.08995 3.37221V82.314H3.16226V72.896C3.19753 49.8625 3.19753 26.829 3.16226 3.83077ZM91.8748 20.1623V3.37221H94.7672V82.2787H94.3439C93.4974 82.2787 92.7213 82.2787 91.91 82.2787C91.8748 82.2435 91.8395 82.2082 91.8395 82.2082C91.8042 80.6562 91.8395 79.1394 91.8395 77.5168L91.8748 70.8149V45.4886V20.1623Z" fill="#52545C"/>
</svg>
