<svg width="96" height="96" viewBox="0 0 96 96" fill="none" xmlns="http://www.w3.org/2000/svg">
<path d="M95.7425 2.93835C95.7425 33.4851 95.7425 64.0318 95.7425 94.5786C95.4603 94.8607 95.1781 95.1429 94.8607 95.4251C94.7548 95.5309 94.5785 95.6368 94.4021 95.6368C92.8148 95.6368 91.2275 95.6368 89.6402 95.6368C89.4638 95.6368 89.2522 95.6015 89.0758 95.5662C88.4409 95.4604 87.9118 94.9666 87.8413 94.2964C87.7707 93.5556 87.7354 92.7796 87.6649 91.9683C87.4532 92.0742 87.3122 92.1094 87.1711 92.18C84.9841 93.2734 82.7972 94.3669 80.6102 95.4604C80.4338 95.5309 80.2575 95.6368 80.0811 95.6368C78.4938 95.6368 76.9065 95.6368 75.3192 95.6015C74.9665 95.6015 74.6137 95.5309 74.2963 95.3546C73.6614 95.0724 73.485 94.4727 73.485 93.8378C73.4497 92.8502 73.4144 91.8272 73.3792 90.8043C56.5185 90.8043 39.6931 90.8043 22.8677 90.8043C22.8324 91.8625 22.7619 92.8854 22.7619 93.8731C22.7619 94.5786 22.515 95.1077 21.8448 95.3898C21.5273 95.5309 21.1393 95.5662 20.7866 95.5662C19.2346 95.6015 17.7178 95.6015 16.1658 95.5662C15.9894 95.5662 15.7778 95.4957 15.6367 95.4251C14.1552 94.6844 12.6737 93.9436 11.2275 93.2029C10.3809 92.7796 9.4991 92.3563 8.582 91.8978C8.51145 92.7091 8.47618 93.4498 8.40563 94.1906C8.33508 94.896 7.84126 95.3898 7.13579 95.4957C6.81833 95.5309 6.46559 95.5662 6.11286 95.5662C4.7372 95.5662 3.39681 95.5662 2.02115 95.5662C1.38623 95.5662 0.504395 94.6844 0.504395 94.0495C0.504395 63.8202 0.504395 33.5909 0.504395 3.32636C0.504395 2.69144 1.24514 1.98597 1.84478 1.98597C5.23103 1.98597 8.65254 1.98597 12.0388 1.98597C12.2152 1.98597 12.4268 2.02125 12.5679 1.9507C13.6261 1.4216 14.6843 0.857226 15.7425 0.328125C17.5414 0.328125 19.3051 0.328125 21.104 0.328125C21.8095 0.433945 22.4797 0.716132 22.6561 1.45687C22.7972 1.98597 23.0794 2.02125 23.5026 2.02125C39.94 2.02125 56.3421 2.02125 72.7795 2.02125C72.9206 2.02125 73.0617 2.05652 73.2028 2.02125C73.3086 1.98597 73.4497 1.91543 73.4497 1.84488C73.6261 0.927772 74.261 0.504492 75.1428 0.363398C76.9065 0.363398 78.6349 0.363398 80.3986 0.363398C81.3862 0.857225 82.3386 1.35105 83.3263 1.84488C83.5732 1.9507 83.8906 2.02125 84.1376 2.02125C87.2416 2.02125 90.3809 2.05652 93.485 2.02125C94.3316 2.02125 95.0723 2.05652 95.6014 2.83253C95.6367 2.90308 95.7072 2.90308 95.7425 2.93835ZM24.455 70.1694C24.4197 69.5697 24.3845 68.9701 24.3492 68.4057C24.3139 66.6421 26.395 64.0318 28.9347 63.9966C31.5802 63.9613 34.261 63.8907 36.9065 63.8907C38.1764 63.8907 39.4462 63.8907 40.6808 64.0671C43.1499 64.4198 44.843 66.4304 44.843 68.9348C44.843 69.3581 44.843 69.7461 44.843 70.1694C45.4074 70.1694 45.9012 70.1694 46.395 70.1694C46.395 58.0001 46.395 45.9013 46.395 33.7673C45.4074 33.7673 44.4197 33.7673 43.4321 33.7673C43.4321 34.5433 43.4674 35.284 43.4321 36.0248C43.3968 36.4833 43.3615 36.9772 43.2557 37.4004C42.903 38.5645 41.6684 38.8819 40.7513 38.0706C40.3633 37.7179 40.1517 37.2946 40.1517 36.7655C40.1517 35.7779 40.1517 34.7549 40.1517 33.732C39.6226 33.732 39.164 33.732 38.6349 33.732C38.6349 33.9436 38.6349 34.12 38.6349 34.2964C38.6349 35.1782 38.6349 36.0953 38.5996 36.9772C38.5644 37.7532 37.7883 38.4939 37.0123 38.5645C36.2716 38.5997 35.6367 38.1059 35.4956 37.2946C35.3545 36.5539 35.3545 35.8131 35.2839 35.0724C35.2487 34.6491 35.2839 34.1906 35.2839 33.732C34.9665 33.732 34.7196 33.7673 34.4374 33.7673C33.9788 33.732 33.8377 33.9436 33.8377 34.4022C33.8025 35.4251 33.7319 36.4481 33.6614 37.4357C33.5908 38.0354 33.1323 38.4586 32.5326 38.5292C31.7213 38.635 30.8395 38.0001 30.6984 37.1888C30.6279 36.7655 30.6279 36.307 30.6279 35.8837C30.6279 35.1782 30.6279 34.4727 30.6279 33.7673C30.0988 33.7673 29.6402 33.7673 29.1464 33.7673C29.1464 34.1906 29.1464 34.5786 29.1464 34.9666C29.1464 35.672 29.1464 36.3775 29.0758 37.0477C29.0053 37.859 28.194 38.5645 27.418 38.5292C26.6067 38.5292 25.9718 37.8943 25.8659 37.0124C25.8307 36.5539 25.8307 36.0953 25.7954 35.6368C25.7601 35.0018 25.7249 34.3669 25.6896 33.732C24.7019 33.732 23.7495 33.732 22.8324 33.732C22.8324 45.9013 22.8324 58.0001 22.8324 70.1341C23.4321 70.1694 23.9612 70.1694 24.455 70.1694ZM81.6331 91.3334C81.8095 91.2629 81.9859 91.1923 82.0917 91.1218C83.7848 90.2752 85.5132 89.3934 87.2063 88.5821C87.5943 88.4057 87.7354 88.1941 87.7354 87.7355C87.7354 76.307 87.7354 64.9137 87.7354 53.4851C87.7354 38.4234 87.7354 23.3969 87.7354 8.33518C87.7354 7.87663 87.5943 7.66499 87.2063 7.48862C85.5132 6.67733 83.8201 5.7955 82.127 4.94894C81.9859 4.87839 81.8095 4.80784 81.5979 4.70202C81.6331 33.6262 81.6331 62.4445 81.6331 91.3334ZM14.6137 4.7373C14.4021 4.84312 14.261 4.87839 14.1199 4.94894C12.3915 5.7955 10.6984 6.67733 8.97 7.52389C8.61727 7.70026 8.47618 7.9119 8.47618 8.29991C8.47618 13.5204 8.47618 18.7408 8.47618 23.926C8.47618 45.1958 8.47618 66.4657 8.47618 87.7003C8.47618 88.1235 8.61727 88.3705 9.00528 88.5468C10.7337 89.3934 12.4268 90.2399 14.1199 91.0865C14.261 91.157 14.4021 91.2276 14.6137 91.2981C14.6137 62.4445 14.6137 33.6262 14.6137 4.7373ZM46.4303 9.92248C38.5644 9.92248 30.7337 9.92248 22.8677 9.92248C22.8677 14.1553 22.8677 18.3175 22.8677 22.5151C30.7337 22.5151 38.5996 22.5151 46.4303 22.5151C46.4303 18.3175 46.4303 14.12 46.4303 9.92248ZM73.3792 38.5292C73.3792 34.2964 73.3792 30.1341 73.3792 25.9366C65.5132 25.9366 57.6825 25.9366 49.8166 25.9366C49.8166 30.1694 49.8166 34.3317 49.8166 38.5292C57.6825 38.5292 65.5132 38.5292 73.3792 38.5292ZM73.3792 70.1694C73.3792 66.0071 73.3792 61.8449 73.3792 57.6826C65.5132 57.6826 57.6825 57.6826 49.8166 57.6826C49.8166 61.8801 49.8166 66.0071 49.8166 70.1694C57.6825 70.1694 65.5132 70.1694 73.3792 70.1694ZM73.3792 9.92248C65.4779 9.92248 57.6473 9.92248 49.8166 9.92248C49.8166 14.12 49.8166 18.3175 49.8166 22.5151C57.6825 22.5151 65.5485 22.5151 73.3792 22.5151C73.3792 18.3175 73.3792 14.1553 73.3792 9.92248ZM46.4303 82.9736C46.4303 79.799 46.4303 76.695 46.4303 73.5204C38.5644 73.5204 30.6984 73.5204 22.8677 73.5204C22.8677 76.695 22.8677 79.8343 22.8677 82.9736C30.7337 82.9736 38.5644 82.9736 46.4303 82.9736ZM73.3792 73.5556C65.4779 73.5556 57.6473 73.5556 49.8166 73.5556C49.8166 76.7302 49.8166 79.8343 49.8166 83.0089C57.6825 83.0089 65.5485 83.0089 73.3792 83.0089C73.3792 79.8343 73.3792 76.695 73.3792 73.5556ZM92.5326 92.4622C92.5326 63.3969 92.5326 34.3317 92.5326 5.30167C91.7919 5.30167 91.0864 5.30167 90.3457 5.30167C91.1217 6.00714 90.9806 6.88897 90.9806 7.73553C90.9806 8.61737 91.0159 9.4992 91.0159 10.3458C91.0159 37.471 90.9806 64.5962 90.9806 91.7214C90.9806 91.9331 90.9806 92.18 90.9806 92.4269C91.545 92.4622 92.0388 92.4622 92.5326 92.4622ZM19.4462 92.4622C19.4462 62.8325 19.4462 33.2382 19.4462 3.60855C18.9524 3.60855 18.4938 3.60855 18.0353 3.60855C18.0353 33.2382 18.0353 62.8325 18.0353 92.4622C18.4938 92.4622 18.9171 92.4622 19.4462 92.4622ZM78.2116 92.4622C78.2116 62.8325 78.2116 33.2382 78.2116 3.60855C77.7178 3.60855 77.2592 3.60855 76.8007 3.60855C76.8007 33.2382 76.8007 62.8325 76.8007 92.4622C77.2592 92.4622 77.7178 92.4622 78.2116 92.4622ZM5.16048 92.3916C5.16048 92.1094 5.16048 91.8625 5.16048 91.6509C5.16048 71.5803 5.16048 51.5098 5.16048 31.4392C5.16048 23.5733 5.23103 15.7426 5.2663 7.87663C5.2663 6.99479 5.12521 6.07768 5.93649 5.30167C5.12521 5.30167 4.41974 5.30167 3.71427 5.30167C3.71427 34.3669 3.71427 63.4322 3.71427 92.4974C4.2081 92.4622 4.66665 92.4269 5.16048 92.3916ZM22.8677 87.6297C39.7284 87.6297 56.5538 87.6297 73.3792 87.6297C73.3792 87.1359 73.3792 86.6773 73.3792 86.1835C56.5185 86.1835 39.6931 86.1835 22.8677 86.1835C22.8677 86.6773 22.8677 87.1359 22.8677 87.6297ZM35.2487 30.5221C35.3192 29.9225 35.3192 29.3581 35.425 28.829C35.5661 28.1588 35.9541 27.5944 36.6949 27.4533C37.7531 27.2064 38.4938 27.8414 38.5996 29.0406C38.6349 29.5345 38.5996 30.0283 38.5996 30.5574C39.164 30.5574 39.6226 30.5574 40.1517 30.5574C40.1517 30.0636 40.1517 29.5697 40.1517 29.0759C40.1869 28.2294 40.963 27.4533 41.7742 27.4181C42.5855 27.3828 43.291 28.053 43.3968 28.9348C43.4674 29.4639 43.5026 30.0283 43.5379 30.5221C44.5256 30.5221 45.4779 30.5221 46.4303 30.5221C46.4303 28.9701 46.4303 27.4533 46.4303 25.9366C38.5644 25.9366 30.6984 25.9366 22.8677 25.9366C22.8677 27.4886 22.8677 29.0054 22.8677 30.5221C23.8554 30.5221 24.8077 30.5221 25.7601 30.5221C25.7954 29.993 25.7954 29.4992 25.9012 29.0054C25.9718 28.6174 26.1129 28.2294 26.3598 27.9119C26.7478 27.4533 27.3122 27.2417 27.9118 27.4886C28.5467 27.7355 29.0406 28.1588 29.1111 28.8643C29.1464 29.3934 29.1111 29.9578 29.1111 30.5221C29.6755 30.5221 30.134 30.5221 30.6631 30.5221C30.6631 29.993 30.6279 29.4639 30.6631 28.9348C30.6984 28.053 31.4391 27.3828 32.2857 27.3828C33.097 27.3828 33.7319 28.0177 33.8025 28.8996C33.8377 29.4287 33.8025 29.9578 33.8025 30.5221C34.2963 30.5221 34.7901 30.5221 35.2487 30.5221ZM73.3792 5.30167C56.5185 5.30167 39.6931 5.30167 22.8677 5.30167C22.8677 5.7955 22.8677 6.25405 22.8677 6.7126C39.7284 6.7126 56.5538 6.7126 73.3792 6.7126C73.3792 6.21878 73.3792 5.76022 73.3792 5.30167ZM61.5979 48.053C63.4674 48.053 65.3368 48.0177 67.1711 48.0883C67.9118 48.1235 68.2998 47.7355 68.582 47.2064C69.1464 46.1835 68.3704 44.9137 67.2063 44.9137C63.4674 44.9137 59.7637 44.9489 56.0247 44.8784C55.3545 44.8784 54.9665 45.1606 54.649 45.6544C54.3316 46.1482 54.2963 46.7126 54.6137 47.2064C54.8959 47.7003 55.2487 48.0883 55.9541 48.053C57.8236 47.9824 59.7284 48.053 61.5979 48.053ZM61.5979 54.3669C63.4321 54.3669 65.3016 54.3316 67.1358 54.4022C67.7707 54.4375 68.1234 54.1553 68.4762 53.732C68.8289 53.2382 68.8642 52.6385 68.582 52.1094C68.2998 51.6156 67.9471 51.1923 67.2416 51.1923C63.5026 51.2276 59.7989 51.2276 56.06 51.1923C55.425 51.1923 55.037 51.404 54.7196 51.8625C54.3668 52.3563 54.2963 52.9207 54.5785 53.4498C54.8607 53.9436 55.1781 54.4022 55.9189 54.3669C57.8236 54.3316 59.7284 54.3669 61.5979 54.3669ZM34.6137 70.0988C34.6137 70.1341 34.6137 70.1694 34.6137 70.1694C35.425 70.1694 36.2363 70.1694 37.0476 70.1694C38.2116 70.1341 39.3404 70.1341 40.5044 70.0636C40.8571 70.0283 41.2804 69.9225 41.4921 69.6756C42.2681 68.7232 41.6684 67.3122 40.4691 67.1712C39.3756 67.0653 38.2822 67.0301 37.1887 67.0301C34.4726 67.0301 31.7919 67.0653 29.0758 67.1006C28.582 67.1006 28.0882 67.1359 27.806 67.6297C27.418 68.2999 27.4885 68.9701 27.806 69.6403C28.0529 70.2047 28.582 70.0988 29.0406 70.0988C30.8748 70.0988 32.7443 70.0988 34.6137 70.0988ZM54.7196 41.7743C53.097 41.7743 51.4744 41.7743 49.8166 41.7743C49.8166 45.9366 49.8166 50.1341 49.8166 54.3316C50.3104 54.3316 50.7337 54.3316 51.1922 54.3316C51.5097 54.3316 51.545 54.1906 51.4744 53.9084C51.4039 53.5556 51.298 53.2029 51.298 52.8502C51.298 51.8272 51.6861 50.8749 52.2857 50.0636C52.5679 49.6756 52.5326 49.4286 52.2504 49.0406C51.5097 47.9824 51.0159 46.8537 51.4039 45.5486C51.933 43.8202 53.0264 42.5856 54.7196 41.7743ZM73.3792 54.3669C73.3792 50.1341 73.3792 45.9366 73.3792 41.8096C71.7213 41.8096 70.134 41.8096 68.5467 41.8096C68.6878 41.986 68.8289 42.0565 69.0053 42.1271C71.8977 43.5733 72.6737 46.501 70.9453 49.1817C70.9453 49.217 70.91 49.2523 70.8748 49.2523C70.5926 49.5345 70.6631 49.7814 70.91 50.0988C71.8271 51.2629 72.2504 52.5327 71.7213 53.9789C71.6155 54.2611 71.7566 54.3316 72.0035 54.3316C72.4268 54.3669 72.8853 54.3669 73.3792 54.3669Z" fill="#52545C"/>
<path d="M61.5626 17.8942C64.5256 17.8942 67.4533 17.9294 70.4162 17.8589C71.1217 17.8589 71.4392 18.2469 71.7214 18.7054C72.0388 19.2345 72.0035 19.7989 71.6508 20.328C71.3334 20.7866 70.9453 21.0688 70.3104 21.0688C64.4903 21.0335 58.6702 21.0335 52.8148 21.0688C52.0741 21.0688 51.7214 20.6455 51.4392 20.1517C51.1217 19.6226 51.2275 19.0582 51.5803 18.5644C51.8977 18.1411 52.2505 17.8942 52.8854 17.8942C55.7778 17.9294 58.6702 17.8942 61.5626 17.8942Z" fill="#52545C"/>
</svg>
