<svg width="100" height="99" viewBox="0 0 100 99" fill="none" xmlns="http://www.w3.org/2000/svg">
<path d="M56.6137 83.88C58.2715 83.88 59.8588 83.8094 61.4461 83.9152C61.9399 83.9505 62.5749 84.3385 62.8218 84.7618C63.0334 85.1145 62.9276 85.82 62.6807 86.1727C62.469 86.4902 61.8341 86.7371 61.4108 86.7371C53.7918 86.7724 46.1727 86.7724 38.5184 86.7724C37.6013 86.7724 36.9664 86.208 36.9311 85.3967C36.8958 84.5854 37.5308 83.88 38.4831 83.88C39.7883 83.8447 41.0934 83.8447 42.3985 83.88C43.104 83.9152 43.3509 83.6683 43.492 82.9629C44.9735 74.9911 45.5731 66.984 45.3615 58.9064C45.2204 52.8747 44.5502 46.9488 43.4567 41.0228C43.3156 40.3174 43.0334 40.141 42.3632 40.141C34.2856 40.141 26.2433 40.141 18.1657 40.141C17.7777 40.141 17.4249 40.141 17.0369 40.1057C16.2257 39.9999 15.8376 39.4355 15.8376 38.6595C15.8376 37.9188 16.2962 37.3544 17.1075 37.2838C17.9893 37.2133 18.8359 37.2486 19.7177 37.2486C23.5625 37.2486 27.4426 37.2486 31.2874 37.2486C31.5696 37.2486 31.8165 37.2133 32.1339 37.0017C31.9223 36.8958 31.7107 36.7547 31.4637 36.6489C29.171 35.5202 28.0422 33.5801 28.395 31.0405C28.6066 29.4884 28.8888 27.9717 29.171 26.4549C29.3121 25.5378 29.8764 25.1498 30.7936 25.1498C32.7336 25.1498 34.6384 25.1498 36.5784 25.1498C37.4249 25.1498 37.9893 25.5378 38.1304 26.3491C38.4479 28.2186 38.8359 30.0881 38.9417 31.9576C39.0828 34.1092 37.7777 35.5555 35.9787 36.5431C35.7318 36.6842 35.4849 36.79 35.238 36.9311C35.2027 36.9311 35.2027 37.0017 35.1675 37.1428C38.0246 37.1428 40.8465 37.1428 43.7742 37.1428C43.8094 36.8253 43.8447 36.4726 43.8447 36.1198C43.8447 31.6401 43.8447 27.1604 43.8447 22.6807C43.8447 21.1286 44.3033 20.6701 45.8553 20.6701C46.6313 20.6701 47.4073 20.6701 48.1833 20.6348C48.2539 20.6348 48.2891 20.5995 48.5008 20.529C48.5008 19.1181 48.5008 17.6719 48.5008 16.2256C48.5008 15.7318 48.5008 15.238 48.5008 14.7442C48.5361 13.7918 49.1357 13.1921 50.0175 13.1921C50.8288 13.2274 51.4285 13.7918 51.4285 14.7442C51.4638 16.4726 51.4285 18.2362 51.4285 19.9646C51.4285 20.141 51.4637 20.3174 51.4637 20.6701C52.3809 20.6701 53.2627 20.6701 54.1445 20.6701C55.5555 20.6701 56.0493 21.1639 56.0493 22.5749C56.0493 27.0546 56.0493 31.5343 56.0493 36.014C56.0493 36.3667 56.0493 36.7547 56.0493 37.178C58.977 37.178 61.7988 37.178 64.656 37.178C64.7265 37.1075 64.7618 37.0017 64.8324 36.9311C64.7265 36.8958 64.5854 36.8958 64.4796 36.8253C61.4461 35.238 60.6348 33.7918 61.0581 30.4408C61.2345 29.1004 61.5167 27.76 61.7636 26.4197C61.9399 25.5731 62.469 25.1498 63.3509 25.1498C65.2909 25.1498 67.1957 25.1498 69.1357 25.1498C70.0175 25.1498 70.5819 25.5378 70.723 26.3844C71.0405 28.0422 71.3932 29.6648 71.5696 31.3227C71.8165 33.8271 70.5466 35.5202 68.395 36.6489C68.1833 36.7547 67.9717 36.8606 67.7953 37.178C68.148 37.2133 68.5008 37.2486 68.8535 37.2486C73.4038 37.2486 77.9541 37.2486 82.5043 37.2486C83.4567 37.2486 84.1269 37.8482 84.0916 38.6948C84.0916 39.5061 83.492 40.0704 82.5396 40.1057C82.3985 40.1057 82.2221 40.1057 82.081 40.1057C78.6948 40.1057 75.3085 40.1057 71.887 40.1057C67.0899 40.1057 62.2927 40.141 57.4955 40.1057C56.7548 40.1057 56.5078 40.3174 56.3667 41.0581C54.85 49.3473 54.1798 57.7071 54.4973 66.1375C54.7089 71.887 55.3438 77.6013 56.4373 83.2803C56.5078 83.4567 56.5431 83.5978 56.6137 83.88ZM46.3844 40.2821C49.1357 54.85 49.1357 69.2768 46.3844 83.7742C48.8535 83.7742 51.2168 83.7742 53.686 83.7742C50.9699 69.2415 50.9699 54.7794 53.686 40.2821C51.1816 40.2821 48.8535 40.2821 46.3844 40.2821ZM46.8429 37.1075C48.9593 37.1075 50.9699 37.1075 53.051 37.1075C53.051 32.5925 53.051 28.148 53.051 23.6683C50.9346 23.6683 48.9241 23.6683 46.8429 23.6683C46.8429 28.148 46.8429 32.5925 46.8429 37.1075ZM33.7565 28.0775C33.298 28.0775 32.8041 28.007 32.3456 28.1128C32.0987 28.148 31.7107 28.4302 31.6754 28.6771C31.4637 29.7706 31.2521 30.8994 31.2874 31.9928C31.3227 32.5925 31.7107 33.298 32.1692 33.686C32.91 34.3562 33.8976 34.3914 34.7794 33.9329C35.6966 33.4743 36.2609 32.6983 36.1198 31.6048C36.0846 31.111 36.0493 30.6172 35.9787 30.1234C35.7318 28.0775 35.7318 28.0775 33.7565 28.0775ZM68.3244 28.1128C66.9135 28.1128 65.6789 28.1128 64.4091 28.1128C64.3033 28.6771 64.1622 29.2415 64.0916 29.7706C63.9858 30.3703 63.9153 31.0052 63.88 31.6048C63.7742 33.0158 64.8324 34.1092 66.2433 34.1092C67.7248 34.1092 68.8535 33.051 68.7477 31.6401C68.6772 30.5114 68.5008 29.3473 68.3244 28.1128Z" fill="#52545C"/>
<path d="M7.72475 56.4726C8.25385 56.4726 8.67713 56.4726 9.10041 56.4726C16.6489 56.4726 24.2327 56.4726 31.7812 56.4726C33.6507 56.4726 34.0387 56.8606 34.0387 58.6948C34.0387 67.3368 34.0387 76.014 34.0387 84.656C34.0387 84.8676 34.0387 85.0793 34.0387 85.3262C33.9681 86.2433 33.3685 86.8077 32.5572 86.8077C31.7459 86.7724 31.1463 86.208 31.1463 85.2909C31.111 83.4567 31.1463 81.6225 31.1463 79.7883C31.1463 79.4355 31.1463 79.1181 31.1463 78.6948C23.3861 78.6948 15.6613 78.6948 7.79529 78.6948C7.79529 79.6119 7.79529 80.529 7.79529 81.4461C7.79529 82.2221 7.79529 82.9982 7.79529 83.7742C7.76002 84.6913 7.16037 85.2909 6.34909 85.2909C5.57307 85.2909 4.97342 84.6913 4.93815 83.8447C4.90288 81.5167 4.90288 79.1886 4.8676 76.8606C4.79706 69.4179 4.8676 61.9752 4.65596 54.5678C4.44432 47.8659 3.91522 41.1992 3.49194 34.5325C3.20975 29.947 2.92757 25.3262 2.64538 20.7407C2.64538 20.4585 2.61011 20.1763 2.61011 19.8941C2.61011 18.9417 3.10393 18.3421 3.9505 18.3068C4.83233 18.2362 5.46725 18.7653 5.5378 19.753C5.67889 21.5167 5.78471 23.2803 5.89053 25.0793C6.34909 32.8041 6.80764 40.5643 7.26619 48.2892C7.37201 50.8994 7.54838 53.6154 7.72475 56.4726ZM7.79529 75.5555C15.6613 75.5555 23.3861 75.5555 31.111 75.5555C31.111 75.2733 31.1463 75.0616 31.1463 74.85C31.1463 70.0176 31.111 65.1851 31.1815 60.3879C31.1815 59.5414 30.8994 59.365 30.1233 59.365C23.0687 59.4003 15.9787 59.4003 8.92404 59.365C8.00693 59.365 7.79529 59.6825 7.79529 60.529C7.83057 65.1851 7.83057 69.8765 7.83057 74.5325C7.79529 74.85 7.79529 75.1675 7.79529 75.5555Z" fill="#52545C"/>
<path d="M68.8536 78.6595C68.8536 80.8817 68.8536 83.0334 68.8536 85.1498C68.8536 86.2432 68.1128 86.9134 67.1605 86.7723C66.4197 86.6665 65.9612 86.0316 65.9259 85.044C65.8906 82.3632 65.8906 79.6824 65.8906 77.0016C65.8906 70.8641 65.8906 64.7265 65.9259 58.5889C65.9259 56.8605 66.3492 56.4372 68.0776 56.4372C75.7672 56.4372 83.4568 56.4372 91.1464 56.4372C91.4991 56.4372 91.8165 56.4372 92.2398 56.4372C92.3456 54.8499 92.4867 53.3332 92.5573 51.8164C92.91 46.1374 93.2275 40.4584 93.5449 34.7794C93.8271 29.7706 94.1446 24.7618 94.462 19.7882C94.5326 18.7653 95.097 18.2009 95.9435 18.2362C96.8606 18.2715 97.425 18.9416 97.3897 20.0351C97.1428 24.3385 96.8959 28.6066 96.6137 32.9099C96.3315 37.4602 96.1199 41.9752 95.7319 46.5254C94.9559 56.1903 95.0264 65.8552 95.0617 75.5554C95.0617 78.2715 95.097 80.9522 95.0617 83.6683C95.0617 84.9734 93.8977 85.7141 92.9453 85.044C92.5573 84.7618 92.2751 84.1621 92.2398 83.6683C92.134 82.2574 92.2046 80.8111 92.2046 79.3649C92.2046 78.8358 92.0635 78.5889 91.4638 78.5889C84.0917 78.5889 76.7196 78.5889 69.3474 78.5889C69.2416 78.5536 69.1005 78.6242 68.8536 78.6595ZM92.0987 75.5907C92.134 75.379 92.1693 75.3085 92.1693 75.2027C92.1693 70.1586 92.1693 65.1145 92.2046 60.0704C92.2046 59.2944 91.7813 59.3297 91.2522 59.3297C84.127 59.3297 77.0017 59.3297 69.8765 59.3297C69.0652 59.3297 68.8183 59.506 68.8183 60.3526C68.8536 65.1498 68.8536 69.9469 68.8536 74.7089C68.8536 74.991 68.8889 75.2379 68.9241 75.5554C76.6843 75.5907 84.3739 75.5907 92.0987 75.5907Z" fill="#52545C"/>
</svg>
