<svg width="94" height="90" viewBox="0 0 94 90" fill="none" xmlns="http://www.w3.org/2000/svg">
<path d="M1.12692 35.8817C1.30329 35.8817 1.47966 35.917 1.65602 35.917C4.8659 35.917 8.11105 35.917 11.3209 35.917C11.4973 35.917 11.6737 35.917 11.8853 35.917C11.8148 35.7759 11.8148 35.6701 11.7442 35.5995C9.90999 32.4955 9.16925 29.1092 8.99288 25.5819C8.81652 22.0546 8.99288 18.5272 10.0864 15.141C10.298 14.5061 10.5449 13.8711 10.7566 13.2362C10.8624 12.9188 11.0035 12.8129 11.3209 12.8129C12.3439 12.8482 13.3668 12.8129 14.3897 12.8129C14.5308 12.8129 14.6719 12.8129 14.8483 12.7777C14.6013 11.3315 13.9664 10.1322 12.9788 9.10924C11.5326 7.59248 9.73363 6.7812 7.61722 6.67538C7.33504 6.67538 7.01758 6.6401 6.73539 6.53428C6.02992 6.28737 5.67719 5.5819 5.81828 4.87643C5.95937 4.13569 6.55902 3.64187 7.33504 3.64187C9.80417 3.71241 11.9558 4.5237 13.8959 6.07573C14.1781 6.28737 14.4603 6.53428 14.7424 6.7812C14.7777 6.81647 14.813 6.81647 14.9188 6.88702C14.9541 6.6401 14.9894 6.46374 14.9894 6.2521C15.0246 4.87643 15.0599 3.50077 15.0599 2.08984C15.0599 1.41964 15.3774 0.96109 15.977 0.678903C16.6119 0.396716 17.1058 0.714176 17.5643 1.10218C17.9523 1.41964 18.1287 1.77238 18.0934 2.30148C18.0581 3.78296 18.0934 5.26444 18.0934 6.88702C18.4814 6.60483 18.7989 6.35792 19.1163 6.111C20.7742 4.80589 22.6437 3.95933 24.7248 3.74769C25.1834 3.71241 25.6419 3.71241 26.0652 3.78296C26.8765 3.92405 27.2998 4.55897 27.2292 5.40553C27.1587 6.111 26.5943 6.67538 25.783 6.71065C24.5132 6.7812 23.3139 6.99284 22.1851 7.59248C20.2804 8.58014 18.94 10.0969 18.3051 12.178C18.164 12.6366 18.2698 12.8482 18.7636 12.8482C19.7513 12.8835 20.7389 12.8835 21.7266 12.8835C22.044 12.8835 22.1499 12.9893 22.2557 13.2715C23.7724 17.2927 24.3015 21.4196 24.0546 25.6877C23.843 29.0034 23.067 32.1427 21.5502 35.1057C21.4091 35.3879 21.3033 35.6701 21.1622 35.9523C23.7019 35.9523 26.2416 35.9523 28.8165 35.9523C28.8165 33.9064 28.8165 31.9311 28.8165 29.8853C29.8747 29.8853 30.8624 29.8853 31.8853 29.8853C31.8853 28.8623 31.8853 27.8747 31.8853 26.8165C30.8976 26.8165 29.91 26.8165 28.8871 26.8165C28.8871 23.7124 28.8871 20.6789 28.8871 17.6101C36.0476 17.6101 43.1728 17.6101 50.3333 17.6101C50.3333 19.6207 50.3333 21.6313 50.3333 23.7124C51.3915 23.7124 52.3791 23.7124 53.3668 23.7124C53.3668 26.8165 53.3668 29.85 53.3668 32.954C52.3791 32.954 51.3915 32.954 50.3685 32.954C50.3685 34.0122 50.3685 34.9646 50.3685 35.9875C57.0352 35.9875 63.7019 35.9875 70.3685 35.9875C70.3685 35.529 70.4391 35.0352 70.3333 34.6119C70.2627 34.365 69.9805 34.0828 69.7336 33.977C68.4285 33.342 66.9823 33.0599 65.5361 32.9893C65.007 32.954 64.5132 32.954 63.9841 32.9188C63.3491 32.8482 62.82 32.2838 62.7142 31.6842C62.6437 31.0845 63.0317 30.2027 63.5608 29.9558C63.6666 29.9205 63.8077 29.9205 63.9135 29.9205C71.7795 29.9558 79.6102 29.9558 87.4761 29.9911C88.111 29.9911 88.746 30.1322 89.4162 30.1322C90.2274 30.1674 90.6507 31.4726 90.2274 32.0722C89.8042 32.6366 89.3103 32.954 88.5696 32.9893C87.3703 33.0599 86.171 33.201 84.9717 33.3773C84.4426 33.4479 83.9488 33.7301 83.4197 33.9417C82.9259 34.1533 82.6789 34.5061 82.6789 35.0352C82.6789 35.3174 82.6437 35.6348 82.6084 35.9875C86.2416 35.9875 89.8042 35.9875 93.4373 35.9875C93.4373 51.4373 93.4373 66.8165 93.4373 82.2662C92.4497 82.2662 91.462 82.2662 90.4038 82.2662C90.4038 82.4778 90.3685 82.6542 90.3685 82.7953C90.3685 84.559 90.3333 86.3226 90.3685 88.0863C90.3685 88.5801 90.2627 89.0034 89.8747 89.3209C89.6983 89.462 89.5573 89.6736 89.3809 89.8853C87.723 89.8853 86.0299 89.8853 84.3721 89.8853C83.3491 89.85 82.8906 89.1092 82.5731 88.298C82.5379 88.2274 82.5026 88.1569 82.4673 88.0863C81.7618 86.3579 81.0211 84.6295 80.3509 82.9011C80.1745 82.4779 79.9629 82.372 79.5396 82.372C58.0934 82.372 36.6472 82.372 15.201 82.372C14.9894 82.372 14.7777 82.372 14.6014 82.372C14.3192 82.3368 14.1781 82.4426 14.0723 82.7248C13.7195 83.6419 13.3668 84.559 12.9788 85.4761C12.4849 86.6754 11.9558 87.8394 11.4267 89.0034C11.1798 89.5325 10.7918 89.8147 10.1922 89.8147C10.0864 89.8147 9.98054 89.85 9.87472 89.8853C8.25214 89.8853 6.5943 89.8853 4.97172 89.8853C4.79535 89.7089 4.68953 89.4972 4.47789 89.3209C4.05461 89.0034 3.94879 88.6154 3.98407 88.0863C4.01934 86.3226 3.98407 84.559 3.98407 82.7953C3.98407 82.6189 3.98407 82.4779 3.94879 82.2309C2.89059 82.2309 1.90294 82.2309 0.915283 82.2309C1.12692 66.7107 1.12692 51.2962 1.12692 35.8817ZM50.4744 78.9152C63.843 78.9152 77.1763 78.9152 90.5096 78.9152C90.5096 72.7777 90.5096 66.6754 90.5096 60.5378C77.141 60.5378 63.8077 60.5378 50.4744 60.5378C50.4744 66.6754 50.4744 72.7777 50.4744 78.9152ZM90.5449 39.0211C77.1763 39.0211 63.843 39.0211 50.5096 39.0211C50.5096 45.1586 50.5096 51.2609 50.5096 57.3632C63.8782 57.3632 77.2116 57.3632 90.5449 57.3632C90.5449 51.2256 90.5449 45.1234 90.5449 39.0211ZM47.3703 39.0211C43.2786 39.0211 39.2222 39.0211 35.1657 39.0211C35.1657 52.3191 35.1657 65.6172 35.1657 78.88C39.2574 78.88 43.3139 78.88 47.3703 78.88C47.3703 65.6172 47.3703 52.3191 47.3703 39.0211ZM4.23098 78.9152C8.32269 78.9152 12.3791 78.9152 16.4708 78.9152C16.4708 65.6172 16.4708 52.3191 16.4708 39.0563C12.3791 39.0563 8.32269 39.0563 4.23098 39.0563C4.23098 52.3544 4.23098 65.6172 4.23098 78.9152ZM19.7513 39.0211C19.7513 52.3544 19.7513 65.6172 19.7513 78.9152C23.7724 78.9152 27.7583 78.9152 31.7795 78.9152C31.7795 65.6172 31.7795 52.3191 31.7795 39.0211C27.7936 39.0211 23.7724 39.0211 19.7513 39.0211ZM16.8236 15.8817C16.8236 15.917 16.8236 15.9523 16.8236 15.9523C15.6948 15.9523 14.6013 15.9523 13.4726 15.9523C13.0846 15.9523 12.9435 16.1286 12.8377 16.4814C12.3439 18.2098 12.1322 19.9734 12.0264 21.7724C11.8853 24.8412 12.0264 27.9099 12.8377 30.9082C13.2257 32.2838 13.7195 33.589 14.6366 34.7177C15.8006 36.1286 17.2116 36.2345 18.3756 34.7883C18.9752 34.0475 19.4338 33.1657 19.8218 32.2838C20.5625 30.4496 20.8447 28.5096 21.0211 26.5343C21.3386 23.0775 21.1622 19.6207 20.1745 16.2345C20.0687 15.917 19.9276 15.8112 19.6102 15.8465C18.6931 15.8817 17.7407 15.8817 16.8236 15.8817ZM32.0264 23.5713C37.141 23.5713 42.2557 23.5713 47.335 23.5713C47.335 22.5484 47.335 21.5607 47.335 20.5731C42.2204 20.5731 37.141 20.5731 32.0264 20.5731C32.0264 21.596 32.0264 22.5837 32.0264 23.5713ZM35.1305 29.7442C40.2451 29.7442 45.3245 29.7442 50.4391 29.7442C50.4391 28.7212 50.4391 27.7336 50.4391 26.7459C45.3245 26.7459 40.2451 26.7459 35.1305 26.7459C35.1305 27.7689 35.1305 28.7212 35.1305 29.7442ZM32.0264 35.8817C37.141 35.8817 42.2557 35.8817 47.335 35.8817C47.335 34.8588 47.335 33.8711 47.335 32.8835C42.2204 32.8835 37.141 32.8835 32.0264 32.8835C32.0264 33.9064 32.0264 34.8588 32.0264 35.8817ZM80.0687 32.8835C77.8112 32.8835 75.4832 32.8835 73.0846 32.8835C73.6842 33.8359 73.5431 34.8941 73.6137 35.8817C75.6595 35.8817 77.6701 35.8817 79.6102 35.8817C79.7865 34.8588 79.9276 33.8711 80.0687 32.8835ZM7.26449 86.6754C7.89941 86.6754 8.46378 86.7107 9.06343 86.6754C9.20452 86.6754 9.38089 86.499 9.45144 86.3932C9.80417 85.5819 10.0864 84.7706 10.4038 83.9593C10.6155 83.4302 10.7918 82.9011 11.0387 82.3015C9.73362 82.3015 8.49906 82.3015 7.26449 82.3015C7.26449 83.7124 7.26449 85.1586 7.26449 86.6754ZM83.7019 82.2662C84.2663 83.7477 84.7953 85.1233 85.3597 86.4637C85.395 86.5696 85.5361 86.6754 85.6419 86.6754C86.2416 86.7107 86.8412 86.6754 87.4761 86.6754C87.4761 85.1586 87.4761 83.6771 87.4761 82.2309C86.2416 82.2662 85.007 82.2662 83.7019 82.2662Z" fill="#52545C"/>
<path d="M70.5097 68.3333C71.6385 68.3333 72.7672 68.298 73.896 68.3333C74.4956 68.3686 75.1305 69.074 75.1305 69.6384C75.1305 70.3439 74.5309 71.1904 73.896 71.1904C71.6385 71.2257 69.4162 71.2257 67.1588 71.1904C66.4886 71.1904 65.8889 70.4144 65.8889 69.709C65.8889 69.1093 66.5238 68.3686 67.1588 68.3333C68.2522 68.298 69.381 68.3333 70.5097 68.3333Z" fill="#52545C"/>
<path d="M70.2979 46.6753C71.6383 46.7458 72.767 46.8164 73.8605 46.8164C74.566 46.8164 74.9187 47.2749 75.0951 48.051C75.2009 48.5801 74.7776 49.3561 74.2485 49.5324C73.931 49.6383 73.5783 49.7441 73.2256 49.7441C71.3914 49.7793 69.5924 49.7793 67.7582 49.7441C66.6647 49.7088 66.2414 49.3913 65.9593 48.5801C65.6771 47.7688 66.2062 46.8869 67.0527 46.8164C68.2168 46.7458 69.3808 46.7106 70.2979 46.6753Z" fill="#52545C"/>
<path d="M44.3016 46.6754C44.3016 47.7336 44.3016 48.8271 44.3016 49.8853C44.3016 50.4144 43.4197 51.2257 42.7848 51.261C42.1499 51.3315 41.4444 50.8024 41.3386 50.1675C41.3033 49.9206 41.2681 49.6737 41.2681 49.4267C41.2681 47.5925 41.2681 45.7583 41.2681 43.8888C41.2681 43.2892 41.3386 42.7248 41.8677 42.3368C42.3263 42.0193 42.8201 41.9488 43.2786 42.231C43.9136 42.5837 44.4074 43.007 44.3368 43.8888C44.231 44.8059 44.3016 45.7583 44.3016 46.6754Z" fill="#52545C"/>
<path d="M10.3333 46.6754C10.3333 45.6172 10.3333 44.5237 10.3333 43.4655C10.3333 42.9011 11.1798 42.1604 11.85 42.0898C12.4849 42.0193 13.1904 42.5484 13.2962 43.1833C13.3315 43.3949 13.3668 43.6066 13.3668 43.8535C13.3668 45.7583 13.3668 47.663 13.3668 49.5678C13.3668 50.0969 13.2962 50.626 12.8024 51.014C12.3438 51.3667 11.8147 51.4725 11.3209 51.1551C10.7213 50.8023 10.2274 50.3791 10.298 49.5325C10.4038 48.5449 10.3333 47.5925 10.3333 46.6754Z" fill="#52545C"/>
<path d="M28.8518 46.7107C28.8518 47.7337 28.8518 48.7919 28.8518 49.8148C28.8518 50.8377 27.582 51.6137 26.6649 51.0846C26.2416 50.8377 25.9241 50.485 25.9241 49.9559C25.9241 47.7689 25.8889 45.5467 25.9241 43.3598C25.9594 42.3368 27.0529 41.7725 27.97 42.231C28.5344 42.5132 28.9224 42.9012 28.8518 43.642C28.8165 44.6649 28.8518 45.6878 28.8518 46.7107Z" fill="#52545C"/>
</svg>
