<svg width="96" height="96" viewBox="0 0 96 96" fill="none" xmlns="http://www.w3.org/2000/svg">
<path d="M0.610107 48.2645C0.610107 33.2733 0.610107 18.2821 0.610107 3.29093C0.610107 1.49199 1.13921 0.962891 2.90288 0.962891C32.85 0.962891 62.7618 0.962891 92.7089 0.962891C94.5078 0.962891 95.0369 1.49199 95.0369 3.29093C95.0369 33.2027 95.0369 63.1146 95.0369 93.0617C95.0369 95.1428 94.5784 95.6013 92.5325 95.6013C62.656 95.6013 32.8147 95.6013 2.93815 95.6013C1.13921 95.6013 0.610107 95.0722 0.610107 93.2733C0.610107 78.2468 0.610107 63.2557 0.610107 48.2645ZM91.6154 70.2045C91.6154 48.1939 91.6154 26.2892 91.6154 4.38441C74.7547 4.38441 57.9293 4.38441 41.1392 4.38441C41.1392 26.3597 41.1392 48.2645 41.1392 70.2045C57.9646 70.2045 74.7547 70.2045 91.6154 70.2045ZM19.0934 70.2045C19.0934 48.1939 19.0934 26.2892 19.0934 4.38441C14.014 4.38441 9.04044 4.38441 4.03162 4.38441C4.03162 26.3597 4.03162 48.2645 4.03162 70.2045C9.07572 70.2045 14.0493 70.2045 19.0934 70.2045ZM22.5854 4.34913C22.5854 26.3597 22.5854 48.2645 22.5854 70.1692C27.6648 70.1692 32.6736 70.1692 37.6471 70.1692C37.6471 48.1939 37.6471 26.2892 37.6471 4.34913C32.6031 4.34913 27.6295 4.34913 22.5854 4.34913ZM4.03162 73.626C4.03162 79.8694 4.03162 86.007 4.03162 92.1445C15.2838 92.1445 26.4655 92.1445 37.6471 92.1445C37.6471 85.9364 37.6471 79.7989 37.6471 73.626C26.3949 73.626 15.2486 73.626 4.03162 73.626ZM64.6313 92.1798C64.6313 85.9364 64.6313 79.7989 64.6313 73.6613C56.7653 73.6613 48.9346 73.6613 41.1392 73.6613C41.1392 79.8694 41.1392 86.007 41.1392 92.1798C48.9699 92.1798 56.7653 92.1798 64.6313 92.1798ZM68.1233 73.626C68.1233 79.8694 68.1233 86.007 68.1233 92.1445C75.9893 92.1445 83.82 92.1445 91.6154 92.1445C91.6154 85.9364 91.6154 79.7989 91.6154 73.626C83.7494 73.626 75.954 73.626 68.1233 73.626Z" fill="#52545C"/>
<path d="M51.0864 52.7442C50.134 52.5679 49.3227 52.4268 48.5114 52.2504C45.8306 51.6507 43.8906 48.97 44.5608 46.4303C46.3597 39.9047 48.8642 33.7319 53.0264 28.2998C53.8377 27.2768 54.9664 26.5008 55.9541 25.619C56.2363 25.3368 56.5185 25.0194 56.6596 24.6313C58.1411 21.3509 59.6931 18.141 62.0917 15.3897C65.0899 11.9329 67.6296 11.9682 70.6631 15.425C72.9559 18.1058 74.4726 21.2098 75.9541 24.3844C76.201 24.9135 76.6948 25.3368 77.1181 25.7954C78.4232 27.2416 79.9753 28.5467 81.0687 30.134C84.3139 34.9664 86.5008 40.3633 88.1234 45.9717C88.9347 48.8289 87.1358 51.6507 84.2081 52.2504C83.4321 52.4268 82.6208 52.5679 81.7037 52.7442C81.88 54.4021 82.0917 56.0246 82.268 57.6472C82.4444 59.3051 82.1975 59.7636 80.6102 60.1869C76.9418 61.2098 73.2381 62.1975 69.5344 63.1146C66.1128 63.9612 62.7619 63.1499 59.4462 62.3386C56.9418 61.7037 54.4726 60.8924 52.0035 60.1164C50.7336 59.7284 50.4515 59.2345 50.5926 57.8941C50.6984 56.2363 50.91 54.5784 51.0864 52.7442ZM64.6313 60.1869C64.6313 51.1216 64.6313 42.3738 64.6313 33.6613C63.5026 33.3791 62.4444 33.2028 61.4215 32.8148C60.4338 32.462 59.4814 31.8977 58.388 31.4038C56.9418 40.0458 54.8254 48.5467 53.9082 57.4356C57.5061 58.3527 61.0335 59.2698 64.6313 60.1869ZM68.1234 33.8024C68.1234 42.3738 68.1234 51.1216 68.1234 60.2222C71.6155 59.2698 74.9665 58.3527 78.2821 57.4003C78.4938 57.3298 78.7054 56.8712 78.6702 56.6243C78.4232 54.5432 78.2116 52.4268 77.8589 50.3456C77.0123 45.619 76.0952 40.8924 75.1781 36.1657C74.8606 34.5784 74.5432 32.9559 74.261 31.5802C72.2151 32.3562 70.2045 33.0617 68.1234 33.8024ZM66.0776 30.3456C67.1358 30.2398 67.9823 30.2045 68.8289 30.0987C70.522 29.8518 72.0035 29.2169 72.9559 27.7001C73.1675 27.3827 73.2733 26.783 73.1322 26.4656C71.8271 23.7495 70.6278 20.9629 69.0405 18.4232C67.1358 15.3544 65.5837 15.3544 63.679 18.4232C62.1622 20.8571 61.0335 23.5379 59.6931 26.0776C59.2345 26.9241 59.4109 27.6296 60.0458 28.1234C60.9629 28.7936 61.9153 29.4991 62.9735 29.8871C64.0317 30.2398 65.1957 30.2398 66.0776 30.3456ZM55.2486 30.4515C54.9664 30.8042 54.8254 30.91 54.7548 31.0511C51.5802 35.9894 49.5343 41.3862 47.8765 46.9594C47.6296 47.806 48.0176 48.5467 48.8289 48.8289C49.7107 49.1463 50.6631 49.2169 51.6508 49.4285C52.85 43.1146 54.0141 36.9065 55.2486 30.4515ZM81.104 49.4285C81.9859 49.2522 82.6913 49.1463 83.4321 49.0052C84.7019 48.7231 85.1605 47.947 84.8077 46.6772C83.4321 41.7742 81.492 37.1181 79.0582 32.6737C78.6702 31.9682 78.2116 31.3333 77.7883 30.6631C77.7178 30.6984 77.6472 30.7336 77.6119 30.7689C78.7407 36.9417 79.9047 43.1146 81.104 49.4285Z" fill="#52545C"/>
<path d="M46.148 13.7671C46.148 13.0616 46.148 12.3562 46.148 11.6507C46.148 10.2045 46.7124 9.42847 47.8058 9.39319C48.8993 9.35792 49.499 10.1692 49.499 11.686C49.499 13.0969 49.499 14.5078 49.499 15.9188C49.499 17.2592 49.9222 17.7883 51.051 17.8588C52.2856 17.9293 52.7441 17.4708 52.9205 16.1304C53.0616 15.0722 53.8023 14.402 54.7194 14.4726C55.7071 14.5431 56.342 15.3897 56.2362 16.4831C56.0245 18.9523 53.5201 21.245 51.0863 21.1745C48.6524 21.104 46.2538 18.7406 46.148 16.2715C46.1127 15.4602 46.148 14.6137 46.148 13.7671Z" fill="#52545C"/>
<path d="M79.8693 13.8025C79.8693 12.9559 79.8693 12.1094 79.8693 11.2628C79.9045 10.1341 80.61 9.39331 81.5624 9.39331C82.5148 9.42858 83.185 10.1341 83.185 11.2275C83.2202 12.8148 83.185 14.4021 83.185 15.9542C83.185 17.2593 83.6435 17.7884 84.8075 17.8236C86.0068 17.8589 86.4654 17.4356 86.6065 16.1305C86.7476 15.0018 87.4883 14.3316 88.476 14.4374C89.4636 14.5785 90.0633 15.4251 89.9222 16.5185C89.64 18.9877 87.1356 21.2452 84.7017 21.1393C82.2326 21.0335 79.9398 18.6702 79.834 16.1658C79.8693 15.4251 79.8693 14.6138 79.8693 13.8025Z" fill="#52545C"/>
<path d="M15.7425 41.4921C15.7425 43.6438 15.7425 45.7602 15.7425 47.9119C15.7425 49.1464 15.0723 49.9224 14.0846 49.9224C13.0617 49.9224 12.4268 49.1464 12.4268 47.9119C12.4268 43.6085 12.4268 39.2699 12.4268 34.9665C12.4268 33.8378 13.1322 33.0618 14.0846 33.0618C15.0723 33.0618 15.7425 33.8025 15.7425 34.9665C15.7777 37.1535 15.7425 39.3404 15.7425 41.4921Z" fill="#52545C"/>
<path d="M29.252 41.6331C29.252 43.7495 29.252 45.8659 29.252 47.947C29.252 49.1816 28.5818 49.9576 27.5941 49.9576C26.5712 49.9576 25.9363 49.1816 25.9363 47.947C25.9363 43.6789 25.9363 39.3756 25.9363 35.1075C25.9363 33.8729 26.6065 33.0969 27.5941 33.0969C28.6171 33.0969 29.252 33.8729 29.252 35.1075C29.252 37.2592 29.252 39.4461 29.252 41.6331Z" fill="#52545C"/>
<path d="M20.7865 83.7494C18.6701 83.7494 16.5889 83.7494 14.4725 83.7494C13.1674 83.7494 12.3914 83.0792 12.4267 82.021C12.462 80.9981 13.2027 80.3984 14.4725 80.3984C18.7053 80.3984 22.9734 80.3984 27.2062 80.3984C28.5113 80.3984 29.2874 81.0686 29.2521 82.1268C29.2168 83.1498 28.4761 83.7494 27.2062 83.7494C25.0546 83.7494 22.9382 83.7494 20.7865 83.7494Z" fill="#52545C"/>
<path d="M61.2803 82.0916C61.2803 83.185 61.3155 84.2785 61.2803 85.3367C61.245 86.3949 60.5395 87.1357 59.5871 87.1004C58.6348 87.1004 57.9646 86.3596 57.9293 85.3014C57.894 83.1145 57.894 80.9628 57.9293 78.7759C57.9293 77.7177 58.67 76.9769 59.6224 77.0122C60.5748 77.0122 61.245 77.7529 61.2803 78.8111C61.3155 79.9046 61.2803 80.9981 61.2803 82.0916Z" fill="#52545C"/>
<path d="M71.439 81.9506C71.439 80.8924 71.4037 79.8342 71.439 78.776C71.4743 77.7178 72.1445 76.9771 73.0969 76.9771C74.0492 76.9771 74.7547 77.6825 74.7547 78.776C74.79 80.9629 74.79 83.1146 74.7547 85.3016C74.7547 86.395 74.0492 87.1005 73.0969 87.1005C72.1445 87.1005 71.439 86.3598 71.439 85.3016C71.439 84.2081 71.439 83.0793 71.439 81.9506Z" fill="#52545C"/>
</svg>
