<svg width="95" height="96" viewBox="0 0 95 96" fill="none" xmlns="http://www.w3.org/2000/svg">
<path d="M1.58552 95.0371C0.668417 94.6138 0.38623 93.9083 0.38623 92.8854C0.421504 81.7037 0.38623 70.5221 0.421504 59.3404C0.421504 57.7531 0.915331 57.2593 2.50263 57.2593C3.84302 57.2593 5.14814 57.2593 6.48852 57.2593C6.5238 57.2593 6.59434 57.224 6.73544 57.1887C6.73544 56.2364 6.73544 55.2134 6.73544 54.2258C6.73544 53.6614 6.73544 53.097 6.73544 52.5327C6.77071 51.6508 7.29981 51.0159 8.18165 50.9806C9.73367 50.9101 11.321 50.9806 12.9436 50.9806C12.9436 52.0388 12.9436 53.0618 12.9436 54.1552C11.9206 54.1552 10.933 54.1552 9.91004 54.1552C9.91004 55.2134 9.91004 56.2364 9.91004 57.2593C11.9912 57.2593 14.037 57.2593 16.1887 57.2593C16.1887 55.1782 16.1887 53.1323 16.1887 51.0159C17.2469 51.0159 18.2698 51.0159 19.328 51.0159C19.328 53.097 19.328 55.1429 19.328 57.2593C21.4444 57.2593 23.4903 57.2593 25.6067 57.2593C25.6067 56.2364 25.6067 55.2487 25.6067 54.1905C24.5838 54.1905 23.5608 54.1905 22.5379 54.1905C22.5379 53.1323 22.5379 52.1094 22.5379 50.9806C22.8554 50.9806 23.1376 50.9806 23.455 50.9806C24.5838 50.9806 25.7125 50.9806 26.8413 50.9806C28.2169 50.9806 28.7813 51.545 28.7813 52.9207C28.7813 54.3316 28.7813 55.7778 28.7813 57.2593C40.3157 57.2593 51.8148 57.2593 63.3845 57.2593C63.3845 56.9418 63.3845 56.6244 63.3845 56.3069C63.3845 44.7725 63.3845 33.2029 63.3845 21.6685C63.3845 21.1746 63.4903 20.6455 63.7019 20.2223C64.0194 19.6226 64.6896 19.5873 65.3245 19.5873C73.2257 19.5873 81.0917 19.5873 88.9929 19.5873C90.2628 19.5873 91.4973 19.6226 92.7672 19.5873C93.7548 19.5521 94.425 19.8695 94.813 20.7866C94.813 45.1605 94.813 69.5344 94.813 93.9436C94.425 94.3316 94.037 94.7196 93.649 95.1076C62.9259 95.0371 32.2381 95.0371 1.58552 95.0371ZM66.4885 44.7372C66.4885 60.5044 66.4885 76.1658 66.4885 91.8625C74.8483 91.8625 83.2081 91.8625 91.5679 91.8625C91.5679 76.1306 91.5679 60.4339 91.5679 44.7372C83.2081 44.7372 74.8836 44.7372 66.4885 44.7372ZM91.6032 22.6914C83.1728 22.6914 74.8483 22.6914 66.4885 22.6914C66.4885 28.97 66.4885 35.2134 66.4885 41.4568C74.8836 41.4568 83.2081 41.4568 91.6032 41.4568C91.6032 35.2134 91.6032 28.97 91.6032 22.6914ZM3.56083 91.8625C13.0141 91.8625 22.3968 91.8625 31.7795 91.8625C31.7795 84.4903 31.7795 77.1887 31.7795 69.8872C22.3615 69.8872 12.9788 69.8872 3.56083 69.8872C3.56083 77.224 3.56083 84.5256 3.56083 91.8625ZM63.2786 69.8872C59.0458 69.8872 54.9189 69.8872 50.7566 69.8872C50.7566 77.2593 50.7566 84.5609 50.7566 91.8625C54.9541 91.8625 59.0811 91.8625 63.2786 91.8625C63.2786 84.5256 63.2786 77.224 63.2786 69.8872ZM35.06 91.8625C39.2928 91.8625 43.4197 91.8625 47.5467 91.8625C47.5467 84.4903 47.5467 77.1887 47.5467 69.8872C43.3492 69.8872 39.2222 69.8872 35.06 69.8872C35.06 77.224 35.06 84.5256 35.06 91.8625ZM63.2786 60.4339C53.8254 60.4339 44.4427 60.4339 35.06 60.4339C35.06 62.5503 35.06 64.5962 35.06 66.642C44.5132 66.642 53.8959 66.642 63.2786 66.642C63.2786 64.5609 63.2786 62.5503 63.2786 60.4339ZM31.7795 66.6773C31.7795 64.5609 31.7795 62.515 31.7795 60.4339C22.3615 60.4339 12.9788 60.4339 3.56083 60.4339C3.56083 62.5503 3.56083 64.5962 3.56083 66.6773C13.0141 66.6773 22.3615 66.6773 31.7795 66.6773Z" fill="#52545C"/>
<path d="M25.5713 16.3422C25.7477 16.3774 25.8535 16.4127 25.9241 16.4127C27.3703 16.1658 28.3579 16.8713 29.3103 17.8942C30.8976 19.5873 32.5907 21.2099 34.2486 22.8677C34.7777 23.3968 35.0246 23.9612 35.0246 24.702C34.9893 26.0423 35.0246 27.3475 35.0246 28.6878C35.0246 29.9577 34.3897 30.5926 33.1198 30.5926C22.8553 30.5926 12.5907 30.5926 2.2909 30.5926C1.02106 30.5926 0.421416 29.9577 0.421416 28.6878C0.421416 27.2769 0.386143 25.866 0.456689 24.4903C0.491963 23.9965 0.703603 23.3968 1.05634 23.0794C2.99637 21.0688 5.00695 19.0935 6.98226 17.1182C7.44082 16.6596 7.93464 16.448 8.56956 16.4833C8.99284 16.5185 9.38085 16.4833 9.90995 16.4833C9.90995 16.1658 9.90995 15.8836 9.90995 15.6367C9.90995 11.2981 9.90995 6.99472 9.90995 2.6561C9.90995 1.28044 10.4391 0.716064 11.8147 0.716064C15.7653 0.716064 19.7159 0.716064 23.7018 0.716064C25.1128 0.716064 25.6419 1.28044 25.6419 2.69137C25.6419 6.95945 25.6419 11.2275 25.6419 15.5309C25.5713 15.7425 25.5713 16.0247 25.5713 16.3422ZM3.52547 27.3122C13.014 27.3122 22.3967 27.3122 31.85 27.3122C31.85 26.7478 31.8147 26.254 31.85 25.7249C31.9205 25.1252 31.7089 24.702 31.2856 24.3139C29.8041 22.8677 28.3579 21.3863 26.8764 19.9401C26.6295 19.7284 26.2415 19.5168 25.9241 19.5168C20.4214 19.4815 14.9188 19.4815 9.41613 19.5168C9.09867 19.5168 8.74593 19.6579 8.53429 19.8695C6.98226 21.3863 5.43023 22.9383 3.87821 24.5256C3.70184 24.702 3.52547 24.9136 3.52547 25.1252C3.4902 25.8307 3.52547 26.5362 3.52547 27.3122ZM22.3615 16.3422C22.3615 12.1446 22.3615 7.98238 22.3615 3.82012C19.2221 3.82012 16.1181 3.82012 13.014 3.82012C13.014 8.01765 13.014 12.1799 13.014 16.3422C16.1533 16.3422 19.2221 16.3422 22.3615 16.3422Z" fill="#52545C"/>
<path d="M41.268 0.680664C42.3615 0.680664 43.3492 0.680664 44.4426 0.680664C44.4426 0.998124 44.4426 1.31558 44.4426 1.59777C44.4426 11.051 44.4426 20.5043 44.4426 29.9576C44.4426 30.5572 44.619 30.7688 45.1481 31.0158C47.7583 32.1092 49.0282 34.1198 49.1693 36.9064C49.2045 37.365 49.2045 37.8235 49.1693 38.3174C49.134 39.305 48.4991 39.9752 47.5467 39.9752C44.4426 40.0105 41.3033 40.0105 38.1993 39.9752C37.388 39.9752 36.7531 39.4814 36.6472 38.7406C36.3298 36.2715 36.6472 33.9435 38.6578 32.2151C39.2222 31.7212 39.9277 31.2979 40.6684 31.0158C41.2328 30.8041 41.3386 30.5219 41.3386 29.9928C41.3033 27.4179 41.3386 24.8429 41.3386 22.268C41.3386 15.3897 41.3386 8.51135 41.3386 1.63305C41.268 1.31558 41.268 1.0334 41.268 0.680664ZM45.9241 36.7653C45.9947 35.1075 44.5837 33.6965 42.8553 33.6965C41.1269 33.6965 39.716 35.1075 39.7866 36.7653C41.8324 36.7653 43.8783 36.7653 45.9241 36.7653Z" fill="#52545C"/>
<path d="M55.448 0.680781C55.448 0.998241 55.448 1.28043 55.448 1.56262C55.448 6.85362 55.448 12.1446 55.448 17.4004C55.448 17.9295 55.5891 18.1411 56.0829 18.3527C58.5168 19.3404 59.9277 21.1746 60.1394 23.8201C60.2099 24.4903 60.1746 25.1958 60.1394 25.866C60.1041 26.7478 59.5044 27.3122 58.6226 27.3122C55.448 27.3122 52.2734 27.3122 49.0988 27.3122C48.358 27.3122 47.6879 26.8183 47.6173 26.1129C47.3704 23.6437 47.6173 21.3157 49.6279 19.5873C50.3686 18.9524 51.2857 18.4938 52.3087 17.8942C52.3087 12.321 52.3087 6.50089 52.3087 0.645508C53.3669 0.680781 54.3545 0.680781 55.448 0.680781ZM57 24.2081C56.8589 22.2681 55.4833 21.0335 53.7196 21.1041C52.0618 21.1746 50.7566 22.5503 50.8272 24.2081C52.8378 24.2081 54.8836 24.2081 57 24.2081Z" fill="#52545C"/>
<path d="M72.7319 51.0159C72.7319 53.097 72.7319 55.1429 72.7319 57.224C71.7089 57.224 70.686 57.224 69.6631 57.224C69.6631 55.1429 69.6631 53.097 69.6631 51.0159C70.6507 51.0159 71.6384 51.0159 72.7319 51.0159Z" fill="#52545C"/>
<path d="M72.6967 35.2488C71.6738 35.2488 70.6861 35.2488 69.6279 35.2488C69.6279 33.1676 69.6279 31.1218 69.6279 29.0054C70.6509 29.0054 71.6385 29.0054 72.6967 29.0054C72.6967 31.0512 72.6967 33.0971 72.6967 35.2488Z" fill="#52545C"/>
<path d="M17.7054 88.7231C14.6366 88.7231 11.5678 88.7231 8.49902 88.7231C7.29972 88.7231 6.73535 88.194 6.73535 86.9947C6.73535 82.903 6.73535 78.8466 6.73535 74.7549C6.73535 73.6261 7.29973 73.0618 8.3932 73.0618C14.6013 73.0618 20.8094 73.0618 27.0528 73.0618C28.111 73.0618 28.7459 73.6967 28.7459 74.7902C28.7459 78.8819 28.7459 83.0089 28.7459 87.1006C28.7459 88.1588 28.111 88.7584 27.0175 88.7584C23.8782 88.7231 20.7742 88.7231 17.7054 88.7231ZM9.87468 85.5485C15.1304 85.5485 20.3156 85.5485 25.5361 85.5485C25.5361 82.4092 25.5361 79.3052 25.5361 76.2011C20.2803 76.2011 15.0951 76.2011 9.87468 76.2011C9.87468 79.3404 9.87468 82.4092 9.87468 85.5485Z" fill="#52545C"/>
<path d="M56.9647 83.9612C55.9417 83.9612 54.9894 83.9612 53.9312 83.9612C53.9312 81.9153 53.9312 79.8695 53.9312 77.7883C54.9188 77.7883 55.9065 77.7883 56.9647 77.7883C56.9647 79.8342 56.9647 81.8448 56.9647 83.9612Z" fill="#52545C"/>
<path d="M41.3386 77.7883C42.3616 77.7883 43.3845 77.7883 44.4074 77.7883C44.4074 79.8342 44.4074 81.8448 44.4074 83.9259C43.3845 83.9259 42.3968 83.9259 41.3386 83.9259C41.3386 81.88 41.3386 79.8695 41.3386 77.7883Z" fill="#52545C"/>
<path d="M52.2733 62.0212C52.2733 63.0442 52.2733 64.0318 52.2733 65.0548C50.1922 65.0548 48.1463 65.0548 46.0652 65.0548C46.0652 64.0318 46.0652 63.0442 46.0652 62.0212C48.111 62.0212 50.1569 62.0212 52.2733 62.0212Z" fill="#52545C"/>
<path d="M14.5661 65.1253C13.6842 65.1253 12.9788 64.4198 12.9788 63.5733C12.9788 62.7267 13.6842 62.0212 14.5308 62.0212C15.3773 62.0212 16.1534 62.762 16.1181 63.6085C16.1181 64.4198 15.4126 65.09 14.5661 65.1253Z" fill="#52545C"/>
<path d="M8.25222 65.1252C7.37039 65.1252 6.73547 64.4903 6.7002 63.6084C6.7002 62.7266 7.37039 61.9858 8.25222 61.9858C9.09878 61.9858 9.80425 62.6913 9.83953 63.5026C9.83953 64.3844 9.13406 65.1252 8.25222 65.1252Z" fill="#52545C"/>
<path d="M22.3968 63.5733C22.3968 64.4551 21.7618 65.0901 20.88 65.1253C19.9982 65.1253 19.2574 64.4551 19.2927 63.5733C19.2927 62.6915 20.0335 61.986 20.9153 62.0213C21.7266 62.0213 22.3968 62.7268 22.3968 63.5733Z" fill="#52545C"/>
<path d="M27.1234 65.1252C26.2416 65.1252 25.6067 64.455 25.6067 63.5731C25.6067 62.6913 26.3122 61.9858 27.194 61.9858C28.0406 61.9858 28.746 62.6913 28.746 63.5379C28.7107 64.4197 28.0053 65.1252 27.1234 65.1252Z" fill="#52545C"/>
</svg>
