<svg width="97" height="94" viewBox="0 0 97 94" fill="none" xmlns="http://www.w3.org/2000/svg">
<path d="M0.334229 92.8377C0.334229 62.6084 0.334229 32.3438 0.334229 2.11457C0.757509 1.09164 1.60407 0.88 2.627 0.88C9.6464 0.88 16.6658 0.88 23.7205 0.88C24.0379 0.88 24.3554 0.88 24.6729 0.950547C25.4136 1.05637 25.8722 1.47965 25.978 2.22039C26.0485 2.64367 26.0485 3.10222 26.0485 3.5255C26.0485 20.9505 26.0485 38.3403 26.0485 55.7654C26.0485 56.1886 26.0485 56.6119 26.0485 57.0352C30.493 57.0352 34.761 57.0352 39.0644 57.0352C38.2178 52.8377 41.2161 50.3333 44.7081 50.6507C45.4136 50.7213 46.1191 50.6507 46.8598 50.6507C46.8598 49.522 46.8598 48.5343 46.8598 47.4408C46.4718 47.4408 46.1543 47.4408 45.8016 47.4408C41.0397 47.4408 36.2778 47.4408 31.4806 47.4408C29.7522 47.4408 29.2231 46.947 29.2231 45.2186C29.2231 37.0705 29.2231 28.9223 29.2231 20.7389C29.2231 19.0105 29.7522 18.5167 31.4806 18.5167C42.8034 18.5167 54.1261 18.5167 65.4489 18.5167C67.2478 18.5167 67.7416 19.0105 67.7416 20.8095C67.7416 28.9223 67.7416 37.0705 67.7416 45.1834C67.7416 46.9823 67.2478 47.4408 65.4136 47.4408C60.6517 47.4408 55.8898 47.4408 51.0926 47.4408C50.7752 47.4408 50.4577 47.4408 50.1402 47.4408C50.1402 48.6049 50.1402 49.5925 50.1402 50.6507C51.1984 50.6507 52.1861 50.6155 53.209 50.6507C55.6076 50.7213 57.5124 52.1675 57.9709 54.425C58.1473 55.2363 58.0062 56.1181 58.0062 56.9999C62.3095 56.9999 66.5776 56.9999 70.9868 56.9999C70.9868 56.5061 70.9868 56.0828 70.9868 55.6595C70.9868 38.1992 70.9868 20.7036 70.9868 3.24332C70.9868 1.30328 71.4101 0.844727 73.3854 0.844727C77.336 0.844727 81.2866 0.844727 85.2372 0.844727C88.3766 0.844727 91.5159 0.844727 94.6552 0.844727C96.1367 0.844727 96.7011 1.4091 96.7011 2.89058C96.7011 3.03168 96.7011 3.1375 96.7011 3.27859C96.7011 32.6966 96.7011 62.1146 96.7011 91.5326C96.7011 91.85 96.7363 92.1675 96.6658 92.4849C96.56 93.3315 96.1014 93.8606 95.2196 93.9311C94.8316 93.9664 94.4083 93.9664 93.985 93.9664C74.4083 93.9664 54.8316 93.9664 35.2549 93.9664C24.3907 93.9664 13.5617 93.9664 2.69754 93.9664C1.70989 94.037 0.792782 93.9312 0.334229 92.8377ZM93.4912 4.16042C87.0714 4.16042 80.7222 4.16042 74.3025 4.16042C74.3025 10.5802 74.3025 16.8941 74.3025 23.3139C80.7222 23.3139 87.0714 23.3139 93.4912 23.3139C93.4912 16.9294 93.4912 10.5802 93.4912 4.16042ZM3.61465 45.783C10.0344 45.783 16.3836 45.783 22.7681 45.783C22.7681 39.3632 22.7681 32.9788 22.7681 26.6296C16.3483 26.6296 9.99913 26.6296 3.61465 26.6296C3.61465 33.0493 3.61465 39.3985 3.61465 45.783ZM74.3025 68.2874C80.7222 68.2874 87.1067 68.2874 93.4559 68.2874C93.4559 61.8677 93.4559 55.5185 93.4559 49.134C87.0362 49.134 80.687 49.134 74.3025 49.134C74.3025 55.5537 74.3025 61.9029 74.3025 68.2874ZM22.7681 71.6384C16.3483 71.6384 9.96386 71.6384 3.61465 71.6384C3.61465 78.0581 3.61465 84.4073 3.61465 90.7565C10.0344 90.7565 16.3836 90.7565 22.7681 90.7565C22.7681 84.3721 22.7681 78.0581 22.7681 71.6384ZM46.8598 73.261C39.911 73.261 32.9974 73.261 26.1191 73.261C26.1191 79.1516 26.1191 84.9364 26.1191 90.7213C33.0679 90.7213 39.9815 90.7213 46.8598 90.7213C46.8598 84.8659 46.8598 79.0811 46.8598 73.261ZM70.9162 90.7565C70.9162 84.8306 70.9162 79.0458 70.9162 73.261C63.9321 73.261 57.0891 73.261 50.1755 73.261C50.1755 79.1516 50.1755 84.9364 50.1755 90.7565C57.1244 90.7565 64.0027 90.7565 70.9162 90.7565ZM64.5318 28.2521C53.8439 28.2521 43.2266 28.2521 32.5741 28.2521C32.5741 31.462 32.5741 34.6013 32.5741 37.7407C43.2619 37.7407 53.9145 37.7407 64.5318 37.7407C64.5318 34.5661 64.5318 31.4267 64.5318 28.2521ZM8.34128 20.2451C7.07144 19.716 6.64816 19.1163 6.82453 18.2698C7.03617 17.3527 7.67109 16.9647 9.01148 16.9647C10.6341 16.9647 12.2566 16.9647 13.9145 16.9647C15.2901 16.9647 16.6658 16.9294 18.0415 16.9999C18.8527 17.0352 19.4171 17.4585 19.5582 18.2698C19.6993 19.0811 19.3818 19.6807 18.6058 20.0334C18.4295 20.104 18.2178 20.2098 18.0767 20.2451C18.0767 21.3033 18.0767 22.2909 18.0767 23.3139C19.664 23.3139 21.2161 23.3139 22.7681 23.3139C22.7681 16.8941 22.7681 10.5449 22.7681 4.16042C16.3483 4.16042 9.99913 4.16042 3.64993 4.16042C3.64993 10.5802 3.64993 16.9647 3.64993 23.3491C5.13141 23.3491 6.54234 23.3491 7.95328 23.3491C8.0591 23.3491 8.20019 23.3139 8.34128 23.2786C8.34128 22.2909 8.34128 21.3033 8.34128 20.2451ZM35.6781 69.8747C35.6781 68.8518 35.6781 67.9347 35.6781 66.9823C35.7134 64.8306 36.948 63.5255 39.1349 63.4902C45.3783 63.455 51.6217 63.455 57.8651 63.4902C60.0873 63.4902 61.3219 64.7953 61.3572 67.0176C61.3572 67.9347 61.3572 68.8871 61.3572 69.8394C64.6376 69.8394 67.7769 69.8394 70.9515 69.8394C70.9515 66.6296 70.9515 63.5255 70.9515 60.3156C55.9956 60.3156 41.075 60.3156 26.1191 60.3156C26.1191 63.4902 26.1191 66.6296 26.1191 69.8394C29.2937 69.8747 32.3977 69.8747 35.6781 69.8747ZM77.4418 90.7565C77.4418 90.3685 77.4418 90.0511 77.4418 89.6983C77.4418 86.0652 77.4418 82.432 77.4418 78.7989C77.4418 78.4109 77.4418 78.0581 77.5124 77.6701C77.6535 76.8941 78.1473 76.4708 78.9233 76.4003C79.7346 76.365 80.3342 76.753 80.5106 77.529C80.6164 77.917 80.6164 78.3403 80.6164 78.7283C80.6164 82.3968 80.6164 86.0652 80.6164 89.7336C80.6164 90.0511 80.6517 90.4038 80.6517 90.686C81.2161 90.686 81.6746 90.686 82.1684 90.686C82.1684 86.6296 82.1684 82.6437 82.1684 78.6578C82.1684 78.2345 82.2037 77.7759 82.3448 77.3527C82.5917 76.6119 83.1914 76.2945 83.9674 76.365C84.7081 76.4356 85.1667 76.8588 85.343 77.5643C85.4136 77.8818 85.4136 78.2345 85.4136 78.5872C85.4136 82.2557 85.4136 85.9241 85.4136 89.5925C85.4136 89.9453 85.4136 90.2627 85.4136 90.6507C85.978 90.6507 86.4718 90.6507 87.0362 90.6507C87.0362 90.2627 87.0362 89.91 87.0362 89.5925C87.0362 85.9241 87.0362 82.2557 87.0362 78.5872C87.0362 78.2698 87.0009 77.9523 87.0714 77.6349C87.2125 76.8588 87.6711 76.4003 88.4471 76.3297C89.2584 76.2592 89.858 76.6119 90.105 77.4232C90.2108 77.7759 90.2461 78.164 90.2461 78.552C90.2461 82.2557 90.2461 85.9594 90.2461 89.6631C90.2461 89.9805 90.2461 90.3333 90.2461 90.686C91.3748 90.686 92.3977 90.686 93.3854 90.686C93.3854 84.2663 93.3854 77.917 93.3854 71.5678C86.9656 71.5678 80.6164 71.5678 74.2319 71.5678C74.2319 77.9876 74.2319 84.3368 74.2319 90.7213C75.3607 90.7566 76.3483 90.7565 77.4418 90.7565ZM93.4559 45.8183C93.4559 39.3985 93.4559 33.014 93.4559 26.6648C87.0362 26.6648 80.687 26.6648 74.3025 26.6648C74.3025 33.0846 74.3025 39.4338 74.3025 45.8183C75.3607 45.8183 76.3483 45.8183 77.4418 45.8183C77.4418 45.395 77.4418 45.0423 77.4418 44.6895C77.4418 40.9505 77.4418 37.2116 77.4418 33.5079C77.4418 31.9911 77.9709 31.462 79.4877 31.462C82.3448 31.462 85.202 31.462 88.0591 31.462C89.7875 31.462 90.2813 31.9911 90.2813 33.7195C90.2813 37.4232 90.2813 41.1269 90.2813 44.8306C90.2813 45.1481 90.2813 45.5008 90.2813 45.8535C91.4101 45.8183 92.3977 45.8183 93.4559 45.8183ZM6.75398 68.3227C6.75398 67.8994 6.75398 67.5467 6.75398 67.2292C6.75398 63.4902 6.75398 59.7513 6.75398 56.0476C6.75398 54.4603 7.31836 53.8959 8.90566 53.8959C11.6923 53.8959 14.4789 53.8959 17.2654 53.8959C19.0644 53.8959 19.5582 54.3897 19.5582 56.1534C19.5582 59.8571 19.5582 63.5608 19.5582 67.2645C19.5582 67.6172 19.5582 67.9347 19.5582 68.2874C20.687 68.2874 21.7099 68.2874 22.6975 68.2874C22.6975 61.8677 22.6975 55.5185 22.6975 49.134C16.2778 49.134 9.92859 49.134 3.57938 49.134C3.57938 55.5537 3.57938 61.9382 3.57938 68.3227C4.67285 68.3227 5.62523 68.3227 6.75398 68.3227ZM64.5318 21.8324C53.8087 21.8324 43.1914 21.8324 32.5741 21.8324C32.5741 22.8906 32.5741 23.9135 32.5741 24.9364C43.2619 24.9364 53.8792 24.9364 64.5318 24.9364C64.5318 23.8782 64.5318 22.8906 64.5318 21.8324ZM32.5388 41.0916C32.5388 42.1851 32.5388 43.1728 32.5388 44.1957C43.2266 44.1957 53.8792 44.1957 64.4965 44.1957C64.4965 43.1375 64.4965 42.1146 64.4965 41.0916C53.8087 41.0916 43.1914 41.0916 32.5388 41.0916ZM38.9586 66.7707C38.9586 67.8641 38.9586 68.8518 38.9586 69.8747C45.343 69.8747 51.6923 69.8747 58.0767 69.8747C58.0767 68.8165 58.0767 67.7936 58.0767 66.7707C51.6923 66.7707 45.343 66.7707 38.9586 66.7707ZM48.5177 57.0705C50.0344 57.0705 51.5864 57.0705 53.1032 57.0705C54.1967 57.0705 54.8669 56.4708 54.9021 55.5537C54.9374 54.6013 54.2319 53.8959 53.1385 53.8959C50.0344 53.8606 46.9304 53.8606 43.8263 53.8959C42.7681 53.8959 42.0979 54.6013 42.0979 55.4832C42.0979 56.4356 42.8034 57.0705 43.8968 57.0705C45.4489 57.1058 47.0009 57.0705 48.5177 57.0705ZM85.5194 34.6719C85.5194 38.4461 85.5194 42.0793 85.5194 45.783C86.0485 45.783 86.5423 45.783 87.0362 45.783C87.0362 42.044 87.0362 38.3756 87.0362 34.6719C86.5071 34.6719 86.0485 34.6719 85.5194 34.6719ZM82.1684 45.8183C82.1684 42.0793 82.1684 38.3756 82.1684 34.7072C81.6393 34.7072 81.2161 34.7072 80.7222 34.7072C80.7222 38.4461 80.7222 42.1146 80.7222 45.8183C81.2161 45.8183 81.6393 45.8183 82.1684 45.8183ZM16.3131 58.6578C16.3131 58.1287 16.3131 57.6349 16.3131 57.141C14.1967 57.141 12.1155 57.141 10.0344 57.141C10.0344 57.6701 10.0344 58.164 10.0344 58.6578C12.1508 58.6578 14.1967 58.6578 16.3131 58.6578ZM10.0344 66.7707C10.0344 67.2998 10.0344 67.7936 10.0344 68.2874C12.1861 68.2874 14.2672 68.2874 16.3483 68.2874C16.3483 67.7583 16.3483 67.2998 16.3483 66.7707C14.2319 66.7707 12.1508 66.7707 10.0344 66.7707ZM14.7258 23.3139C14.7258 22.2909 14.7258 21.268 14.7258 20.2451C13.6676 20.2451 12.6446 20.2451 11.6217 20.2451C11.6217 21.3033 11.6217 22.2909 11.6217 23.3139C12.6799 23.3139 13.6676 23.3139 14.7258 23.3139ZM9.96386 63.4197C12.0803 63.4197 14.1614 63.4197 16.3131 63.4197C16.3131 62.9611 16.3131 62.5026 16.3131 62.0088C14.1614 62.0088 12.0803 62.0088 9.96386 62.0088C9.96386 62.5026 9.96386 62.9259 9.96386 63.4197Z" fill="#52545C"/>
</svg>
